<svg xmlns="http://www.w3.org/2000/svg" xmlns:xlink="http://www.w3.org/1999/xlink" xmlns:lucid="lucid" width="1180" height="777.1"><g transform="translate(0 -20)" lucid:page-tab-id="X.UV-BUqfGou"><path d="M385 147.9h100v40H385z" stroke="#d2d3d3" stroke-width="2" fill="#fff"/><use xlink:href="#a" transform="matrix(1,0,0,1,390,152.90000000000003) translate(8.024999999999999 18.6)"/><use xlink:href="#b" transform="matrix(1,0,0,1,390,152.90000000000003) translate(61.975 18.6)"/><path d="M436 232.95h-2v-4.9h2zm0-26.5h-2V189.9h2z"/><path d="M436 189.93h-2v-1.03h2zM436 233.95h-2v-1.03h2z"/><use xlink:href="#c" transform="matrix(1,0,0,1,429,206.4354911150166) translate(0 14.4)"/><path d="M569.4 237.47l-.68 1.87-59.75-22.06v-2.13zm-73.38-27.1v2.13l-60.43-22.32.68-1.87z"/><path d="M435.62 190.2l-3.5-1.3h3.97zM572.9 238.75h-4l.48-1.3z"/><use xlink:href="#d" transform="matrix(1,0,0,1,496.025,203.02500000000003) translate(0 14.4)"/><path d="M395 233.95h80v40h-80z" stroke="#000" stroke-opacity="0" stroke-width="2" fill="#fff"/><use xlink:href="#e" transform="matrix(1,0,0,1,400,238.95) translate(12.524999999999999 18.6)"/><path d="M500 239.75h140v34.2H500z" stroke="#d2d3d3" stroke-width="2" fill="#fff"/><use xlink:href="#a" transform="matrix(1,0,0,1,505,244.75000000000006) translate(28.025 16.1)"/><use xlink:href="#f" transform="matrix(1,0,0,1,505,244.75000000000006) translate(81.975 16.1)"/><path d="M486.86 323.27h135v60h-135z" stroke="#d2d3d3" stroke-width="2" fill="#fff"/><use xlink:href="#g" transform="matrix(1,0,0,1,491.8580406918342,328.275) translate(1.2249999999999943 28.6)"/><use xlink:href="#h" transform="matrix(1,0,0,1,491.8580406918342,328.275) translate(50.175 28.6)"/><use xlink:href="#i" transform="matrix(1,0,0,1,491.8580406918342,328.275) translate(87.075 28.6)"/><path d="M555.36 431.6h-2v-9.57h2zm0-31.17h-2v-15.16h2z"/><path d="M555.36 385.3h-2v-1.03h2zM555.36 432.6h-2v-1.03h2z"/><use xlink:href="#c" transform="matrix(1,0,0,1,548.3580406918343,400.42699186991865) translate(0 14.4)"/><path d="M504.36 432.6h100v74.8h-100z" stroke="#000" stroke-opacity="0" stroke-width="2" fill="#fff"/><use xlink:href="#j" transform="matrix(1,0,0,1,509.3580406918343,437.59999999999997) translate(12.049999999999997 25.299999999999997)"/><use xlink:href="#k" transform="matrix(1,0,0,1,509.3580406918343,437.59999999999997) translate(21.525 46.9)"/><path d="M654.05 446.02l-1.07 1.7-48.52-30.64v-2.36zm-62.54-39.48v2.37l-36.83-23.25 1.07-1.7z"/><path d="M554.7 385.67l-2.22-1.4h3.1zM656.23 447.4h-3.08l.87-1.4z"/><use xlink:href="#d" transform="matrix(1,0,0,1,591.5104916722264,401.0148284313725) translate(0.004999999999999893 14.4)"/><path d="M604.36 447.4h100v60h-100z" stroke="#000" stroke-opacity="0" stroke-width="2" fill="#fff"/><use xlink:href="#l" transform="matrix(1,0,0,1,609.3580406918343,452.4) translate(10.549999999999997 17.799999999999997)"/><use xlink:href="#m" transform="matrix(1,0,0,1,609.3580406918343,452.4) translate(23.025 39.4)"/><path d="M831.02 357.74l-.6 1.9-123.1-39.53V318zm-136.66-43.9v2.1l-123.7-39.73.6-1.9z"/><path d="M570.67 276.22l-3.83-1.24 4.24-.03zM834.83 358.97l-4.24.03.4-1.27z"/><use xlink:href="#d" transform="matrix(1,0,0,1,694.3583333333332,306.175) translate(0.004999999999999893 14.4)"/><path d="M781.67 360h100v40h-100z" stroke="#d2d3d3" stroke-width="2" fill="#fff"/><use xlink:href="#a" transform="matrix(1,0,0,1,786.6666666666666,365) translate(8.024999999999999 18.6)"/><use xlink:href="#n" transform="matrix(1,0,0,1,786.6666666666666,365) translate(61.975 18.6)"/><path d="M310 40h120v40H310z" stroke="#d2d3d3" stroke-width="2" fill="#fff"/><use xlink:href="#o" transform="matrix(1,0,0,1,315,45) translate(6.125 18.6)"/><use xlink:href="#p" transform="matrix(1,0,0,1,315,45) translate(78.075 18.6)"/><path d="M1001.48 529.67l-1.22 1.6-96.15-73.58v-2.53zm-110.32-84.4v2.5l-59.3-45.37 1.2-1.6z"/><path d="M831.87 402.42l-1.85-1.42h2.94zM1003.3 531.08h-2.92l1.08-1.42z"/><use xlink:href="#d" transform="matrix(1,0,0,1,891.1574786324786,440.6735470085469) translate(0.004999999999999893 14.4)"/><path d="M945 532.07h113.33v42.25H945z" stroke="#d2d3d3" stroke-width="2" fill="#fff"/><use xlink:href="#a" transform="matrix(1,0,0,1,950,537.0749999999998) translate(15.024999999999999 20.1)"/><use xlink:href="#q" transform="matrix(1,0,0,1,950,537.0749999999998) translate(68.975 20.1)"/><path d="M96.86 400h120v60h-120z" stroke="#d2d3d3" stroke-width="2" fill="#fff"/><use xlink:href="#g" transform="matrix(1,0,0,1,101.85804069183423,405) translate(21.549999999999997 18.299999999999997)"/><use xlink:href="#r" transform="matrix(1,0,0,1,101.85804069183423,405) translate(70.5 18.299999999999997)"/><use xlink:href="#s" transform="matrix(1,0,0,1,101.85804069183423,405) translate(7 39.9)"/><path d="M117.43 505.68l-26.02 28.5-1.46-1.34 27.5-30.12zm39.5-43.27l-27.5 30.13v-2.96l26.02-28.5z"/><path d="M156.9 462.43l-1.47-1.35 2.78-.08zM91.43 534.17l-2.78.08 1.3-1.43z"/><use xlink:href="#c" transform="matrix(1,0,0,1,117.42902034591711,486.82500000000005) translate(0.004999999999999893 14.4)"/><path d="M239.92 533.84l-1.33 1.5L200 500.87v-2.68zm-52.85-47.2v2.68l-30.13-26.9 1.33-1.5z"/><path d="M156.96 462.43l-1.6-1.43h2.87zM241.5 535.25h-2.88l1.28-1.43z"/><use xlink:href="#d" transform="matrix(1,0,0,1,187.06566740357542,482.95945209868637) translate(0.004999999999999893 14.4)"/><path d="M20 535.25h140v60H20z" stroke="#d2d3d3" stroke-width="2" fill="#fff"/><use xlink:href="#t" transform="matrix(1,0,0,1,25,540.2500000000001) translate(5.699999999999996 18.299999999999997)"/><use xlink:href="#u" transform="matrix(1,0,0,1,25,540.2500000000001) translate(40.699999999999996 18.299999999999997)"/><use xlink:href="#v" transform="matrix(1,0,0,1,25,540.2500000000001) translate(77.6 18.299999999999997)"/><use xlink:href="#w" transform="matrix(1,0,0,1,25,540.2500000000001) translate(102.6 18.299999999999997)"/><use xlink:href="#x" transform="matrix(1,0,0,1,25,540.2500000000001) translate(12.424999999999997 39.9)"/><use xlink:href="#y" transform="matrix(1,0,0,1,25,540.2500000000001) translate(84.375 39.9)"/><path d="M200 535.25h80v60h-80z" stroke="#000" stroke-opacity="0" stroke-width="2" fill="#fff"/><use xlink:href="#l" transform="matrix(1,0,0,1,205,540.2500000000001) translate(0.5499999999999972 17.799999999999997)"/><use xlink:href="#z" transform="matrix(1,0,0,1,205,540.2500000000001) translate(5.024999999999999 39.4)"/><path d="M930 595.25h143.33v36.9H930z" stroke="#d2d3d3" stroke-width="2" fill="#fff"/><use xlink:href="#g" transform="matrix(1,0,0,1,935,600.2500000000001) translate(5.724999999999994 17.1)"/><use xlink:href="#h" transform="matrix(1,0,0,1,935,600.2500000000001) translate(54.675 17.1)"/><use xlink:href="#i" transform="matrix(1,0,0,1,935,600.2500000000001) translate(91.575 17.1)"/><path d="M955.07 679.03l-22 21-1.37-1.44 23.37-22.34zm46.56-44.47l-34.56 33v-2.76l33.18-31.68z"/><path d="M1001.62 634.58l-1.37-1.43h2.86zM933.08 700h-2.86l1.5-1.43z"/><use xlink:href="#c" transform="matrix(1,0,0,1,955.0730593607306,661.1168949771691) translate(0.004999999999999893 14.4)"/><path d="M1079.9 698.6l-1.3 1.5-21.82-18.6v-2.63zm-36.07-30.78v2.63l-42.05-35.9 1.3-1.5z"/><path d="M1001.8 634.58l-1.67-1.43h2.9zM1081.54 700h-2.9l1.23-1.43z"/><use xlink:href="#d" transform="matrix(1,0,0,1,1043.8283621022802,663.8567628494139) translate(0.004999999999999893 14.4)"/><path d="M881.67 700h100v60h-100z" stroke="#000" stroke-opacity="0" stroke-width="2" fill="#fff"/><use xlink:href="#A" transform="matrix(1,0,0,1,886.6666666666666,705) translate(3.5249999999999986 17.799999999999997)"/><use xlink:href="#k" transform="matrix(1,0,0,1,886.6666666666666,705) translate(21.525 39.4)"/><path d="M1000 700h160v77.1h-160z" stroke="#000" stroke-opacity="0" stroke-width="2" fill="#fff"/><use xlink:href="#B" transform="matrix(1,0,0,1,1005,705) translate(6.625 16)"/><use xlink:href="#C" transform="matrix(1,0,0,1,1005,705) translate(80.525 16)"/><use xlink:href="#D" transform="matrix(1,0,0,1,1005,705) translate(14.599999999999994 37.6)"/><use xlink:href="#E" transform="matrix(1,0,0,1,1005,705) translate(6.025000000000006 59.2)"/><use xlink:href="#F" transform="matrix(1,0,0,1,1005,705) translate(54.97500000000001 59.2)"/><use xlink:href="#G" transform="matrix(1,0,0,1,1005,705) translate(89.97500000000001 59.2)"/><path d="M315.43 120l-34.02 27.06-1.24-1.57 35.27-28.06zm47.27-37.6l-35.27 28.06v-2.56l34.02-27.06z"/><path d="M362.68 82.42L361.55 81h2.92zM281.3 146.9h-2.9l1.78-1.42z"/><use xlink:href="#c" transform="matrix(1,0,0,1,315.4299334140436,103.15000000000002) translate(0.004999999999999893 14.4)"/><path d="M200 147.9h160v53.2H200z" stroke="#d2d3d3" stroke-width="2" fill="#fff"/><use xlink:href="#H" transform="matrix(1,0,0,1,205,152.90000000000003) translate(17.574999999999996 14.799999999999999)"/><use xlink:href="#u" transform="matrix(1,0,0,1,205,152.90000000000003) translate(46.574999999999996 14.799999999999999)"/><use xlink:href="#I" transform="matrix(1,0,0,1,205,152.90000000000003) translate(83.475 14.799999999999999)"/><use xlink:href="#J" transform="matrix(1,0,0,1,205,152.90000000000003) translate(12.725000000000001 36.4)"/><use xlink:href="#u" transform="matrix(1,0,0,1,205,152.90000000000003) translate(53.675000000000004 36.4)"/><use xlink:href="#v" transform="matrix(1,0,0,1,205,152.90000000000003) translate(90.57499999999999 36.4)"/><use xlink:href="#w" transform="matrix(1,0,0,1,205,152.90000000000003) translate(115.57499999999999 36.4)"/><path d="M279.27 202.8l-121.7 115.5" stroke="#000" stroke-width="2" fill="none"/><path d="M279.94 203.53l-1.35-1.43h2.85zM158.27 319h-2.86l1.5-1.43z"/><path d="M126.86 320h60v60h-60z" stroke="#d2d3d3" stroke-width="2" fill="#fff"/><use xlink:href="#K" transform="matrix(1,0,0,1,131.85804069183422,324.99999999999994) translate(15 28.6)"/><path d="M156.86 382v16" stroke="#000" stroke-width="2" fill="none"/><path d="M157.86 382.03h-2V381h2zM157.86 399h-2v-1.03h2z"/><path d="M253.14 318.4h60v60h-60z" stroke="#d2d3d3" stroke-width="2" fill="#fff"/><use xlink:href="#L" transform="matrix(1,0,0,1,258.1419593081658,323.4000000000001) translate(15 28.6)"/><path d="M280.03 203.1l3.08 113.3" stroke="#000" stroke-width="2" fill="none"/><path d="M281.03 203.1l-2 .05-.03-1.05h2zM284.14 317.4h-2l-.03-1 2-.05z"/><path d="M220 413.4h120v67.4H220z" stroke="#000" stroke-opacity="0" stroke-width="2" fill="#fff"/><use xlink:href="#B" transform="matrix(1,0,0,1,225,418.39999999999986) translate(6.599999999999994 14.4)"/><use xlink:href="#M" transform="matrix(1,0,0,1,225,418.39999999999986) translate(80.5 14.4)"/><use xlink:href="#D" transform="matrix(1,0,0,1,225,418.39999999999986) translate(-5.400000000000006 36)"/><use xlink:href="#N" transform="matrix(1,0,0,1,225,418.39999999999986) translate(7.524999999999999 57.6)"/><use xlink:href="#O" transform="matrix(1,0,0,1,225,418.39999999999986) translate(72.475 57.6)"/><use xlink:href="#P" transform="matrix(1,0,0,1,225,418.39999999999986) translate(29.025 79.20000000000002)"/><path d="M370 320h60v60h-60z" stroke="#d2d3d3" stroke-width="2" fill="#fff"/><use xlink:href="#Q" transform="matrix(1,0,0,1,375,324.99999999999994) translate(15 28.6)"/><path d="M280.72 202.8l118.56 115.5" stroke="#000" stroke-width="2" fill="none"/><path d="M280.04 203.53l-1.47-1.43h2.86zM401.43 319h-2.86l1.4-1.43z"/><path d="M283.14 380.4v32" stroke="#000" stroke-width="2" fill="none"/><path d="M284.14 380.43h-2v-1.03h2zM284.14 413.4h-2v-1.03h2z"/><path d="M385 500h180v67.4H385z" stroke="#000" stroke-opacity="0" stroke-width="2" fill="#fff"/><use xlink:href="#B" transform="matrix(1,0,0,1,390,505) translate(8.125 14.4)"/><use xlink:href="#R" transform="matrix(1,0,0,1,390,505) translate(82.025 14.4)"/><use xlink:href="#S" transform="matrix(1,0,0,1,390,505) translate(109.92500000000001 14.4)"/><use xlink:href="#T" transform="matrix(1,0,0,1,390,505) translate(126.92500000000001 14.4)"/><use xlink:href="#D" transform="matrix(1,0,0,1,390,505) translate(24.599999999999994 36)"/><use xlink:href="#N" transform="matrix(1,0,0,1,390,505) translate(4.049999999999997 57.6)"/><use xlink:href="#F" transform="matrix(1,0,0,1,390,505) translate(69 57.6)"/><use xlink:href="#U" transform="matrix(1,0,0,1,390,505) translate(104 57.6)"/><path d="M400.46 381.9l59.92 117.2" stroke="#000" stroke-width="2" fill="none"/><path d="M401.36 381.46l-1.78.9-.7-1.36h2.24zM461.96 500h-2.25l-.22-.46 1.78-.9zM91 648.35h-2v-11.43h2zm0-33.03h-2v-18.07h2z"/><path d="M91 597.28h-2v-1.03h2zM91 649.35h-2v-1.03h2z"/><g><use xlink:href="#c" transform="matrix(1,0,0,1,84,615.3241290631172) translate(0.004999999999999893 14.4)"/></g><path d="M240 535.25" stroke="#000" stroke-width="2" fill="none"/><path/><path/><path d="M260 555.25" stroke="#000" stroke-width="2" fill="none"/><path d="M30 649.35h120v75.1H30z" stroke="#000" stroke-opacity="0" stroke-width="2" fill="#fff"/><g><use xlink:href="#V" transform="matrix(1,0,0,1,35,654.3499999999999) translate(6.049999999999997 15.000000000000002)"/><use xlink:href="#W" transform="matrix(1,0,0,1,35,654.3499999999999) translate(44 15.000000000000002)"/><use xlink:href="#X" transform="matrix(1,0,0,1,35,654.3499999999999) translate(40 36.6)"/><use xlink:href="#Y" transform="matrix(1,0,0,1,35,654.3499999999999) translate(15.075000000000003 58.2)"/></g><path d="M199.6 655.54l-.96 1.75-47.16-26V629zm-61.07-33.68v2.3L90.39 597.6l.96-1.74z"/><path d="M90.42 597.62l-2.5-1.37h3.25zM202.07 656.9h-3.24l.75-1.37z"/><g><use xlink:href="#d" transform="matrix(1,0,0,1,138.525,615.7750000000001) translate(0.004999999999999893 14.4)"/></g><path d="M160 656.9h80v60h-80z" stroke="#000" stroke-opacity="0" stroke-width="2" fill="#fff"/><g><use xlink:href="#Z" transform="matrix(1,0,0,1,165,661.9) translate(13.524999999999999 17.799999999999997)"/><use xlink:href="#z" transform="matrix(1,0,0,1,165,661.9) translate(5.024999999999999 39.4)"/></g><path d="M435 145.5l-1.4 1.4-27.98-28.36v-2.85zm-42.33-42.94v2.85L370 82.4l1.4-1.4z"/><path d="M371.43 81.03l-1.42 1.4-1.4-1.43h2.8zM436.4 146.9h-2.8l1.4-1.43z"/><g><use xlink:href="#d" transform="matrix(1,0,0,1,392.6694403269637,99.74797873149093) translate(0.004999999999999893 14.4)"/></g><path d="M1001.67 576.32v16.93" stroke="#000" stroke-width="2" fill="none"/><path d="M1002.67 576.35h-2v-1.02h2zM1002.67 594.25h-2v-1.03h2z"/><path d="M724.68 480.8h200v72.6h-200z" stroke="#000" stroke-opacity="0" stroke-width="2" fill="#fff"/><g><use xlink:href="#B" transform="matrix(1,0,0,1,729.6790203459171,485.7999999999999) translate(46.599999999999994 14.4)"/><use xlink:href="#M" transform="matrix(1,0,0,1,729.6790203459171,485.7999999999999) translate(120.5 14.4)"/><use xlink:href="#aa" transform="matrix(1,0,0,1,729.6790203459171,485.7999999999999) translate(7.625 36)"/><use xlink:href="#ab" transform="matrix(1,0,0,1,729.6790203459171,485.7999999999999) translate(138.425 36)"/><use xlink:href="#ac" transform="matrix(1,0,0,1,729.6790203459171,485.7999999999999) translate(56.025 57.6)"/><use xlink:href="#ad" transform="matrix(1,0,0,1,729.6790203459171,485.7999999999999) translate(91.025 57.6)"/></g><path d="M809.26 480.13l-1.92-.57 4.85-16.4h2.08zm23.08-77.9l-11.66 39.34h-2.08l11.82-39.9z"/><path d="M832.33 402.27l-1.9-.57.2-.7h2.08zM809.26 480.1l-.2.7h-2.1l.4-1.27z"/><g><use xlink:href="#c" transform="matrix(1,0,0,1,810.4391324930439,441.5714867855832) translate(0.004999999999999893 14.4)"/></g><path d="M485.86 345.5" stroke="#000" stroke-width="2" fill="none"/><path/><path/><path d="M555.62 321.64l-1.9-.63 3.84-11.6h2.1zm15.02-45.43l-3.84 11.6h-2.1l4.04-12.2z"/><path d="M570.63 276.24l-1.9-.63.22-.65h2.1zM555.63 321.6l-.22.67h-2.1l.43-1.28z"/><g><use xlink:href="#c" transform="matrix(1,0,0,1,556.1790203459171,287.8125) translate(0.004999999999999893 14.4)"/></g><defs><path d="M24 0v-261h32V0H24" id="ae"/><path d="M100-194c63 0 86 42 84 106H49c0 40 14 67 53 68 26 1 43-12 49-29l28 8c-11 28-37 45-77 45C44 4 14-33 15-96c1-61 26-98 85-98zm52 81c6-60-76-77-97-28-3 7-6 17-6 28h103" id="af"/><path d="M117-194c89-4 53 116 60 194h-32v-121c0-31-8-49-39-48C34-167 62-67 57 0H25l-1-190h30c1 10-1 24 2 32 11-22 29-35 61-36" id="ag"/><path d="M177-190C167-65 218 103 67 71c-23-6-38-20-44-43l32-5c15 47 100 32 89-28v-30C133-14 115 1 83 1 29 1 15-40 15-95c0-56 16-97 71-98 29-1 48 16 59 35 1-10 0-23 2-32h30zM94-22c36 0 50-32 50-73 0-42-14-75-50-75-39 0-46 34-46 75s6 73 46 73" id="ah"/><path d="M59-47c-2 24 18 29 38 22v24C64 9 27 4 27-40v-127H5v-23h24l9-43h21v43h35v23H59v120" id="ai"/><path d="M106-169C34-169 62-67 57 0H25v-261h32l-1 103c12-21 28-36 61-36 89 0 53 116 60 194h-32v-121c2-32-8-49-39-48" id="aj"/><g id="a"><use transform="matrix(0.05,0,0,0.05,0,0)" xlink:href="#ae"/><use transform="matrix(0.05,0,0,0.05,3.95,0)" xlink:href="#af"/><use transform="matrix(0.05,0,0,0.05,13.949999999999998,0)" xlink:href="#ag"/><use transform="matrix(0.05,0,0,0.05,23.95,0)" xlink:href="#ah"/><use transform="matrix(0.05,0,0,0.05,33.95,0)" xlink:href="#ai"/><use transform="matrix(0.05,0,0,0.05,38.95,0)" xlink:href="#aj"/></g><path d="M101-251c82-7 93 87 43 132L82-64C71-53 59-42 53-27h129V0H18c2-99 128-94 128-182 0-28-16-43-45-43s-46 15-49 41l-32-3c6-41 34-60 81-64" id="ak"/><path d="M103-251c84 0 111 97 45 133-19 10-37 24-39 52H78c0-63 77-55 77-114 0-30-21-42-52-43-32 0-53 17-56 46l-32-2c7-45 34-72 88-72zM77 0v-35h34V0H77" id="al"/><g id="b"><use transform="matrix(0.05,0,0,0.05,0,0)" xlink:href="#ak"/><use transform="matrix(0.05,0,0,0.05,10,0)" xlink:href="#al"/></g><path d="M137-103V0h-34v-103L8-248h37l75 118 75-118h37" id="am"/><use transform="matrix(0.05,0,0,0.05,0,0)" xlink:href="#am" id="c"/><path d="M190 0L58-211 59 0H30v-248h39L202-35l-2-213h31V0h-41" id="an"/><use transform="matrix(0.05,0,0,0.05,0,0)" xlink:href="#an" id="d"/><path d="M30-248c87 1 191-15 191 75 0 78-77 80-158 76V0H30v-248zm33 125c57 0 124 11 124-50 0-59-68-47-124-48v98" id="ao"/><path d="M141-36C126-15 110 5 73 4 37 3 15-17 15-53c-1-64 63-63 125-63 3-35-9-54-41-54-24 1-41 7-42 31l-33-3c5-37 33-52 76-52 45 0 72 20 72 64v82c-1 20 7 32 28 27v20c-31 9-61-2-59-35zM48-53c0 20 12 33 32 33 41-3 63-29 60-74-43 2-92-5-92 41" id="ap"/><path d="M206 0h-36l-40-164L89 0H53L-1-190h32L70-26l43-164h34l41 164 42-164h31" id="aq"/><g id="e"><use transform="matrix(0.05,0,0,0.05,0,0)" xlink:href="#ao"/><use transform="matrix(0.05,0,0,0.05,12,0)" xlink:href="#ap"/><use transform="matrix(0.05,0,0,0.05,22,0)" xlink:href="#aq"/><use transform="matrix(0.05,0,0,0.05,34.95,0)" xlink:href="#ag"/></g><path d="M126-127c33 6 58 20 58 59 0 88-139 92-164 29-3-8-5-16-6-25l32-3c6 27 21 44 54 44 32 0 52-15 52-46 0-38-36-46-79-43v-28c39 1 72-4 72-42 0-27-17-43-46-43-28 0-47 15-49 41l-32-3c6-42 35-63 81-64 48-1 79 21 79 65 0 36-21 52-52 59" id="ar"/><g id="f"><use transform="matrix(0.05,0,0,0.05,0,0)" xlink:href="#ar"/><use transform="matrix(0.05,0,0,0.05,10,0)" xlink:href="#al"/></g><path d="M135-143c-3-34-86-38-87 0 15 53 115 12 119 90S17 21 10-45l28-5c4 36 97 45 98 0-10-56-113-15-118-90-4-57 82-63 122-42 12 7 21 19 24 35" id="as"/><path d="M114-163C36-179 61-72 57 0H25l-1-190h30c1 12-1 29 2 39 6-27 23-49 58-41v29" id="at"/><g id="g"><use transform="matrix(0.05,0,0,0.05,0,0)" xlink:href="#as"/><use transform="matrix(0.05,0,0,0.05,9,0)" xlink:href="#ai"/><use transform="matrix(0.05,0,0,0.05,14,0)" xlink:href="#ap"/><use transform="matrix(0.05,0,0,0.05,24,0)" xlink:href="#at"/><use transform="matrix(0.05,0,0,0.05,29.950000000000003,0)" xlink:href="#ai"/><use transform="matrix(0.05,0,0,0.05,34.95,0)" xlink:href="#as"/></g><path d="M24-231v-30h32v30H24zM24 0v-190h32V0H24" id="au"/><g id="h"><use transform="matrix(0.05,0,0,0.05,0,0)" xlink:href="#aq"/><use transform="matrix(0.05,0,0,0.05,12.950000000000001,0)" xlink:href="#au"/><use transform="matrix(0.05,0,0,0.05,16.900000000000002,0)" xlink:href="#ai"/><use transform="matrix(0.05,0,0,0.05,21.900000000000002,0)" xlink:href="#aj"/></g><path d="M109-170H84l-4-78h32zm-65 0H19l-4-78h33" id="av"/><path d="M140-251c81 0 123 46 123 126C263-46 219 4 140 4 59 4 17-45 17-125s42-126 123-126zm0 227c63 0 89-41 89-101s-29-99-89-99c-61 0-89 39-89 99S79-25 140-24" id="aw"/><g id="i"><use transform="matrix(0.05,0,0,0.05,0,0)" xlink:href="#av"/><use transform="matrix(0.05,0,0,0.05,6.3500000000000005,0)" xlink:href="#aw"/><use transform="matrix(0.05,0,0,0.05,20.35,0)" xlink:href="#av"/><use transform="matrix(0.05,0,0,0.05,26.700000000000003,0)" xlink:href="#al"/></g><path d="M143 0L79-87 56-68V0H24v-261h32v163l83-92h37l-77 82L181 0h-38" id="ax"/><path d="M85-194c31 0 48 13 60 33l-1-100h32l1 261h-30c-2-10 0-23-3-31C134-8 116 4 85 4 32 4 16-35 15-94c0-66 23-100 70-100zm9 24c-40 0-46 34-46 75 0 40 6 74 45 74 42 0 51-32 51-76 0-42-9-74-50-73" id="ay"/><g id="j"><use transform="matrix(0.05,0,0,0.05,0,0)" xlink:href="#ax"/><use transform="matrix(0.05,0,0,0.05,9,0)" xlink:href="#au"/><use transform="matrix(0.05,0,0,0.05,12.949999999999998,0)" xlink:href="#ag"/><use transform="matrix(0.05,0,0,0.05,22.95,0)" xlink:href="#ah"/><use transform="matrix(0.05,0,0,0.05,32.95,0)" xlink:href="#as"/><use transform="matrix(0.05,0,0,0.05,41.95,0)" xlink:href="#au"/><use transform="matrix(0.05,0,0,0.05,45.900000000000006,0)" xlink:href="#ay"/><use transform="matrix(0.05,0,0,0.05,55.900000000000006,0)" xlink:href="#af"/></g><path d="M96-169c-40 0-48 33-48 73s9 75 48 75c24 0 41-14 43-38l32 2c-6 37-31 61-74 61-59 0-76-41-82-99-10-93 101-131 147-64 4 7 5 14 7 22l-32 3c-4-21-16-35-41-35" id="az"/><g id="k"><use transform="matrix(0.05,0,0,0.05,0,0)" xlink:href="#az"/><use transform="matrix(0.05,0,0,0.05,9,0)" xlink:href="#ap"/><use transform="matrix(0.05,0,0,0.05,19,0)" xlink:href="#as"/><use transform="matrix(0.05,0,0,0.05,28,0)" xlink:href="#ai"/><use transform="matrix(0.05,0,0,0.05,33,0)" xlink:href="#ae"/><use transform="matrix(0.05,0,0,0.05,36.95,0)" xlink:href="#af"/></g><path d="M100-194c62-1 85 37 85 99 1 63-27 99-86 99S16-35 15-95c0-66 28-99 85-99zM99-20c44 1 53-31 53-75 0-43-8-75-51-75s-53 32-53 75 10 74 51 75" id="aA"/><path d="M16-82v-28h88v28H16" id="aB"/><path d="M115-194c55 1 70 41 70 98S169 2 115 4C84 4 66-9 55-30l1 105H24l-1-265h31l2 30c10-21 28-34 59-34zm-8 174c40 0 45-34 45-75s-6-73-45-74c-42 0-51 32-51 76 0 43 10 73 51 73" id="aC"/><g id="l"><use transform="matrix(0.05,0,0,0.05,0,0)" xlink:href="#ag"/><use transform="matrix(0.05,0,0,0.05,10,0)" xlink:href="#aA"/><use transform="matrix(0.05,0,0,0.05,20,0)" xlink:href="#ag"/><use transform="matrix(0.05,0,0,0.05,30,0)" xlink:href="#aB"/><use transform="matrix(0.05,0,0,0.05,35.95,0)" xlink:href="#aC"/><use transform="matrix(0.05,0,0,0.05,45.95,0)" xlink:href="#aq"/><use transform="matrix(0.05,0,0,0.05,58.900000000000006,0)" xlink:href="#ag"/></g><path d="M210-169c-67 3-38 105-44 169h-31v-121c0-29-5-50-35-48C34-165 62-65 56 0H25l-1-190h30c1 10-1 24 2 32 10-44 99-50 107 0 11-21 27-35 58-36 85-2 47 119 55 194h-31v-121c0-29-5-49-35-48" id="aD"/><path d="M108 0H70L1-190h34L89-25l56-165h34" id="aE"/><g id="m"><use transform="matrix(0.05,0,0,0.05,0,0)" xlink:href="#aD"/><use transform="matrix(0.05,0,0,0.05,14.950000000000001,0)" xlink:href="#aA"/><use transform="matrix(0.05,0,0,0.05,24.950000000000003,0)" xlink:href="#aE"/><use transform="matrix(0.05,0,0,0.05,33.95,0)" xlink:href="#af"/></g><path d="M155-56V0h-30v-56H8v-25l114-167h33v167h35v25h-35zm-30-156c-27 46-58 90-88 131h88v-131" id="aF"/><g id="n"><use transform="matrix(0.05,0,0,0.05,0,0)" xlink:href="#aF"/><use transform="matrix(0.05,0,0,0.05,10,0)" xlink:href="#al"/></g><g id="o"><use transform="matrix(0.05,0,0,0.05,0,0)" xlink:href="#az"/><use transform="matrix(0.05,0,0,0.05,9,0)" xlink:href="#aA"/><use transform="matrix(0.05,0,0,0.05,19,0)" xlink:href="#ag"/><use transform="matrix(0.05,0,0,0.05,29,0)" xlink:href="#ai"/><use transform="matrix(0.05,0,0,0.05,34,0)" xlink:href="#ap"/><use transform="matrix(0.05,0,0,0.05,44,0)" xlink:href="#au"/><use transform="matrix(0.05,0,0,0.05,47.95,0)" xlink:href="#ag"/><use transform="matrix(0.05,0,0,0.05,57.95,0)" xlink:href="#as"/></g><path d="M47-170H22l-4-78h33" id="aG"/><path d="M141 0L90-78 38 0H4l68-98-65-92h35l48 74 47-74h35l-64 92 68 98h-35" id="aH"/><g id="p"><use transform="matrix(0.05,0,0,0.05,0,0)" xlink:href="#aG"/><use transform="matrix(0.05,0,0,0.05,3.4000000000000004,0)" xlink:href="#aH"/><use transform="matrix(0.05,0,0,0.05,12.4,0)" xlink:href="#aG"/><use transform="matrix(0.05,0,0,0.05,15.8,0)" xlink:href="#al"/></g><path d="M54-142c48-35 137-8 131 61C196 18 31 33 14-55l32-4c7 23 22 37 52 37 35-1 51-22 54-58 4-55-73-65-99-34H22l8-134h141v27H59" id="aI"/><g id="q"><use transform="matrix(0.05,0,0,0.05,0,0)" xlink:href="#aI"/><use transform="matrix(0.05,0,0,0.05,10,0)" xlink:href="#al"/></g><path d="M0 4l72-265h28L28 4H0" id="aJ"/><g id="r"><use transform="matrix(0.05,0,0,0.05,0,0)" xlink:href="#aq"/><use transform="matrix(0.05,0,0,0.05,12.950000000000001,0)" xlink:href="#aJ"/></g><path d="M39-94c74 12-11 154 75 146v23c-44 4-70-10-70-52C44-23 55-84 6-82v-22c81 4-7-162 84-157h24v23c-82-15-2 131-75 144" id="aK"/><path d="M115-194c53 0 69 39 70 98 0 66-23 100-70 100C84 3 66-7 56-30L54 0H23l1-261h32v101c10-23 28-34 59-34zm-8 174c40 0 45-34 45-75 0-40-5-75-45-74-42 0-51 32-51 76 0 43 10 73 51 73" id="aL"/><path d="M101-234c-31-9-42 10-38 44h38v23H63V0H32v-167H5v-23h27c-7-52 17-82 69-68v24" id="aM"/><path d="M76-40C78 24 84 88 6 75V52C86 64 9-79 80-94c-40-6-34-59-34-106 1-29-11-41-40-38v-23c44-4 70 10 70 52 0 47-12 108 38 105v22c-26 1-39 14-38 42" id="aN"/><g id="s"><use transform="matrix(0.05,0,0,0.05,0,0)" xlink:href="#aK"/><use transform="matrix(0.05,0,0,0.05,6,0)" xlink:href="#ap"/><use transform="matrix(0.05,0,0,0.05,16,0)" xlink:href="#aL"/><use transform="matrix(0.05,0,0,0.05,26,0)" xlink:href="#az"/><use transform="matrix(0.05,0,0,0.05,35,0)" xlink:href="#ay"/><use transform="matrix(0.05,0,0,0.05,45,0)" xlink:href="#af"/><use transform="matrix(0.05,0,0,0.05,55,0)" xlink:href="#aM"/><use transform="matrix(0.05,0,0,0.05,60,0)" xlink:href="#ah"/><use transform="matrix(0.05,0,0,0.05,70,0)" xlink:href="#aj"/><use transform="matrix(0.05,0,0,0.05,80,0)" xlink:href="#aN"/><use transform="matrix(0.05,0,0,0.05,86,0)" xlink:href="#al"/></g><g id="t"><use transform="matrix(0.05,0,0,0.05,0,0)" xlink:href="#ak"/><use transform="matrix(0.05,0,0,0.05,10,0)" xlink:href="#ag"/><use transform="matrix(0.05,0,0,0.05,20,0)" xlink:href="#ay"/></g><g id="u"><use transform="matrix(0.05,0,0,0.05,0,0)" xlink:href="#as"/><use transform="matrix(0.05,0,0,0.05,9,0)" xlink:href="#aC"/><use transform="matrix(0.05,0,0,0.05,19,0)" xlink:href="#ae"/><use transform="matrix(0.05,0,0,0.05,22.95,0)" xlink:href="#au"/><use transform="matrix(0.05,0,0,0.05,26.899999999999995,0)" xlink:href="#ai"/></g><g id="v"><use transform="matrix(0.05,0,0,0.05,0,0)" xlink:href="#aA"/><use transform="matrix(0.05,0,0,0.05,10,0)" xlink:href="#ag"/></g><g id="w"><use transform="matrix(0.05,0,0,0.05,0,0)" xlink:href="#av"/><use transform="matrix(0.05,0,0,0.05,6.3500000000000005,0)" xlink:href="#aH"/><use transform="matrix(0.05,0,0,0.05,15.350000000000001,0)" xlink:href="#av"/></g><g id="x"><use transform="matrix(0.05,0,0,0.05,0,0)" xlink:href="#az"/><use transform="matrix(0.05,0,0,0.05,9,0)" xlink:href="#aA"/><use transform="matrix(0.05,0,0,0.05,19,0)" xlink:href="#ag"/><use transform="matrix(0.05,0,0,0.05,29,0)" xlink:href="#ai"/><use transform="matrix(0.05,0,0,0.05,34,0)" xlink:href="#ap"/><use transform="matrix(0.05,0,0,0.05,44,0)" xlink:href="#au"/><use transform="matrix(0.05,0,0,0.05,47.95,0)" xlink:href="#ag"/><use transform="matrix(0.05,0,0,0.05,57.95,0)" xlink:href="#as"/></g><path d="M18-150v-26h174v26H18zm0 90v-26h174v26H18" id="aO"/><g id="y"><use transform="matrix(0.05,0,0,0.05,0,0)" xlink:href="#av"/><use transform="matrix(0.05,0,0,0.05,6.3500000000000005,0)" xlink:href="#aO"/><use transform="matrix(0.05,0,0,0.05,16.85,0)" xlink:href="#av"/><use transform="matrix(0.05,0,0,0.05,23.200000000000003,0)" xlink:href="#al"/></g><path d="M84 4C-5 8 30-112 23-190h32v120c0 31 7 50 39 49 72-2 45-101 50-169h31l1 190h-30c-1-10 1-25-2-33-11 22-28 36-60 37" id="aP"/><g id="z"><use transform="matrix(0.05,0,0,0.05,0,0)" xlink:href="#az"/><use transform="matrix(0.05,0,0,0.05,9,0)" xlink:href="#ap"/><use transform="matrix(0.05,0,0,0.05,19,0)" xlink:href="#aC"/><use transform="matrix(0.05,0,0,0.05,29,0)" xlink:href="#ai"/><use transform="matrix(0.05,0,0,0.05,34,0)" xlink:href="#aP"/><use transform="matrix(0.05,0,0,0.05,44,0)" xlink:href="#at"/><use transform="matrix(0.05,0,0,0.05,49.95,0)" xlink:href="#af"/></g><path d="M145-31C134-9 116 4 85 4 32 4 16-35 15-94c0-59 17-99 70-100 32-1 48 14 60 33 0-11-1-24 2-32h30l-1 268h-32zM93-21c41 0 51-33 51-76s-8-73-50-73c-40 0-46 35-46 75s5 74 45 74" id="aQ"/><g id="A"><use transform="matrix(0.05,0,0,0.05,0,0)" xlink:href="#aQ"/><use transform="matrix(0.05,0,0,0.05,10,0)" xlink:href="#aP"/><use transform="matrix(0.05,0,0,0.05,20,0)" xlink:href="#af"/><use transform="matrix(0.05,0,0,0.05,30,0)" xlink:href="#af"/><use transform="matrix(0.05,0,0,0.05,40,0)" xlink:href="#ag"/><use transform="matrix(0.05,0,0,0.05,50,0)" xlink:href="#as"/><use transform="matrix(0.05,0,0,0.05,59,0)" xlink:href="#au"/><use transform="matrix(0.05,0,0,0.05,62.95,0)" xlink:href="#ay"/><use transform="matrix(0.05,0,0,0.05,72.95,0)" xlink:href="#af"/></g><g id="B"><use transform="matrix(0.05,0,0,0.05,0,0)" xlink:href="#ag"/><use transform="matrix(0.05,0,0,0.05,10,0)" xlink:href="#aA"/><use transform="matrix(0.05,0,0,0.05,20,0)" xlink:href="#ag"/><use transform="matrix(0.05,0,0,0.05,30,0)" xlink:href="#aB"/><use transform="matrix(0.05,0,0,0.05,35.95,0)" xlink:href="#aC"/><use transform="matrix(0.05,0,0,0.05,45.95,0)" xlink:href="#aq"/><use transform="matrix(0.05,0,0,0.05,58.900000000000006,0)" xlink:href="#ag"/></g><g id="C"><use transform="matrix(0.05,0,0,0.05,0,0)" xlink:href="#at"/><use transform="matrix(0.05,0,0,0.05,5.95,0)" xlink:href="#ap"/><use transform="matrix(0.05,0,0,0.05,15.949999999999998,0)" xlink:href="#ag"/><use transform="matrix(0.05,0,0,0.05,25.950000000000003,0)" xlink:href="#ax"/><use transform="matrix(0.05,0,0,0.05,34.95,0)" xlink:href="#aJ"/><use transform="matrix(0.05,0,0,0.05,39.95,0)" xlink:href="#aM"/><use transform="matrix(0.05,0,0,0.05,44.95,0)" xlink:href="#au"/><use transform="matrix(0.05,0,0,0.05,48.900000000000006,0)" xlink:href="#ae"/><use transform="matrix(0.05,0,0,0.05,52.85,0)" xlink:href="#af"/></g><g id="D"><use transform="matrix(0.05,0,0,0.05,0,0)" xlink:href="#ay"/><use transform="matrix(0.05,0,0,0.05,10,0)" xlink:href="#au"/><use transform="matrix(0.05,0,0,0.05,13.949999999999998,0)" xlink:href="#as"/><use transform="matrix(0.05,0,0,0.05,22.95,0)" xlink:href="#ap"/><use transform="matrix(0.05,0,0,0.05,32.95,0)" xlink:href="#aD"/><use transform="matrix(0.05,0,0,0.05,47.900000000000006,0)" xlink:href="#aL"/><use transform="matrix(0.05,0,0,0.05,57.900000000000006,0)" xlink:href="#au"/><use transform="matrix(0.05,0,0,0.05,61.85,0)" xlink:href="#ah"/><use transform="matrix(0.05,0,0,0.05,71.85000000000001,0)" xlink:href="#aP"/><use transform="matrix(0.05,0,0,0.05,81.85000000000001,0)" xlink:href="#ap"/><use transform="matrix(0.05,0,0,0.05,91.85000000000001,0)" xlink:href="#ai"/><use transform="matrix(0.05,0,0,0.05,96.85000000000001,0)" xlink:href="#au"/><use transform="matrix(0.05,0,0,0.05,100.80000000000001,0)" xlink:href="#aA"/><use transform="matrix(0.05,0,0,0.05,110.80000000000001,0)" xlink:href="#ag"/></g><g id="E"><use transform="matrix(0.05,0,0,0.05,0,0)" xlink:href="#aD"/><use transform="matrix(0.05,0,0,0.05,14.950000000000001,0)" xlink:href="#aA"/><use transform="matrix(0.05,0,0,0.05,24.950000000000003,0)" xlink:href="#aE"/><use transform="matrix(0.05,0,0,0.05,33.95,0)" xlink:href="#af"/></g><path d="M33 0v-38h34V0H33" id="aR"/><g id="F"><use transform="matrix(0.05,0,0,0.05,0,0)" xlink:href="#af"/><use transform="matrix(0.05,0,0,0.05,10,0)" xlink:href="#aR"/><use transform="matrix(0.05,0,0,0.05,15,0)" xlink:href="#ah"/><use transform="matrix(0.05,0,0,0.05,25,0)" xlink:href="#aR"/></g><path d="M140-251c81 0 123 46 123 126C263-53 228-8 163 1c7 30 30 48 69 40v23c-55 16-95-15-103-61C56-3 17-48 17-125c0-80 42-126 123-126zm0 227c63 0 89-41 89-101s-29-99-89-99c-61 0-89 39-89 99S79-25 140-24" id="aS"/><g id="G"><use transform="matrix(0.05,0,0,0.05,0,0)" xlink:href="#aS"/><use transform="matrix(0.05,0,0,0.05,14,0)" xlink:href="#af"/><use transform="matrix(0.05,0,0,0.05,24,0)" xlink:href="#aF"/><use transform="matrix(0.05,0,0,0.05,34,0)" xlink:href="#ay"/><use transform="matrix(0.05,0,0,0.05,44,0)" xlink:href="#aI"/></g><path d="M27 0v-27h64v-190l-56 39v-29l58-41h29v221h61V0H27" id="aT"/><g id="H"><use transform="matrix(0.05,0,0,0.05,0,0)" xlink:href="#aT"/><use transform="matrix(0.05,0,0,0.05,10,0)" xlink:href="#as"/><use transform="matrix(0.05,0,0,0.05,19,0)" xlink:href="#ai"/></g><g id="I"><use transform="matrix(0.05,0,0,0.05,0,0)" xlink:href="#ae"/><use transform="matrix(0.05,0,0,0.05,3.95,0)" xlink:href="#af"/><use transform="matrix(0.05,0,0,0.05,13.949999999999998,0)" xlink:href="#ag"/><use transform="matrix(0.05,0,0,0.05,23.95,0)" xlink:href="#ah"/><use transform="matrix(0.05,0,0,0.05,33.95,0)" xlink:href="#ai"/><use transform="matrix(0.05,0,0,0.05,38.95,0)" xlink:href="#aj"/></g><g id="J"><use transform="matrix(0.05,0,0,0.05,0,0)" xlink:href="#ap"/><use transform="matrix(0.05,0,0,0.05,10,0)" xlink:href="#aM"/><use transform="matrix(0.05,0,0,0.05,15,0)" xlink:href="#ai"/><use transform="matrix(0.05,0,0,0.05,20,0)" xlink:href="#af"/><use transform="matrix(0.05,0,0,0.05,30,0)" xlink:href="#at"/></g><g id="K"><use transform="matrix(0.05,0,0,0.05,0,0)" xlink:href="#aT"/><use transform="matrix(0.05,0,0,0.05,10,0)" xlink:href="#al"/></g><g id="L"><use transform="matrix(0.05,0,0,0.05,0,0)" xlink:href="#ak"/><use transform="matrix(0.05,0,0,0.05,10,0)" xlink:href="#al"/></g><g id="M"><use transform="matrix(0.05,0,0,0.05,0,0)" xlink:href="#aM"/><use transform="matrix(0.05,0,0,0.05,5,0)" xlink:href="#au"/><use transform="matrix(0.05,0,0,0.05,8.95,0)" xlink:href="#ae"/><use transform="matrix(0.05,0,0,0.05,12.899999999999999,0)" xlink:href="#af"/></g><g id="N"><use transform="matrix(0.05,0,0,0.05,0,0)" xlink:href="#az"/><use transform="matrix(0.05,0,0,0.05,9,0)" xlink:href="#ap"/><use transform="matrix(0.05,0,0,0.05,19,0)" xlink:href="#aC"/><use transform="matrix(0.05,0,0,0.05,29,0)" xlink:href="#ai"/><use transform="matrix(0.05,0,0,0.05,34,0)" xlink:href="#aP"/><use transform="matrix(0.05,0,0,0.05,44,0)" xlink:href="#at"/><use transform="matrix(0.05,0,0,0.05,49.95,0)" xlink:href="#af"/></g><g id="O"><use transform="matrix(0.05,0,0,0.05,0,0)" xlink:href="#af"/><use transform="matrix(0.05,0,0,0.05,10,0)" xlink:href="#aR"/><use transform="matrix(0.05,0,0,0.05,15,0)" xlink:href="#ah"/><use transform="matrix(0.05,0,0,0.05,25,0)" xlink:href="#aR"/></g><path d="M233-177c-1 41-23 64-60 70L243 0h-38l-65-103H63V0H30v-248c88 3 205-21 203 71zM63-129c60-2 137 13 137-47 0-61-80-42-137-45v92" id="aU"/><g id="P"><use transform="matrix(0.05,0,0,0.05,0,0)" xlink:href="#aU"/><use transform="matrix(0.05,0,0,0.05,12.950000000000001,0)" xlink:href="#aL"/><use transform="matrix(0.05,0,0,0.05,22.950000000000003,0)" xlink:href="#aH"/><use transform="matrix(0.05,0,0,0.05,31.950000000000003,0)" xlink:href="#ay"/><use transform="matrix(0.05,0,0,0.05,41.95,0)" xlink:href="#aI"/></g><g id="Q"><use transform="matrix(0.05,0,0,0.05,0,0)" xlink:href="#ar"/><use transform="matrix(0.05,0,0,0.05,10,0)" xlink:href="#al"/></g><g id="R"><use transform="matrix(0.05,0,0,0.05,0,0)" xlink:href="#aM"/><use transform="matrix(0.05,0,0,0.05,5,0)" xlink:href="#au"/><use transform="matrix(0.05,0,0,0.05,8.95,0)" xlink:href="#ae"/><use transform="matrix(0.05,0,0,0.05,12.899999999999999,0)" xlink:href="#af"/></g><path d="M234-2c-28 10-62 0-77-18C117 19 8 12 13-65c3-43 29-61 60-76-25-40-17-114 47-108 35 3 59 15 59 50 0 44-40 53-71 69 14 26 32 50 51 72 14-21 24-43 30-72l26 8c-9 33-21 57-38 82 13 13 33 22 57 15v23zM97-151c25-10 52-18 56-48-1-18-13-29-33-29-42 0-39 50-23 77zM42-66c-3 51 71 58 98 28-20-24-41-51-56-80-23 10-40 24-42 52" id="aV"/><use transform="matrix(0.05,0,0,0.05,0,0)" xlink:href="#aV" id="S"/><g id="T"><use transform="matrix(0.05,0,0,0.05,0,0)" xlink:href="#at"/><use transform="matrix(0.05,0,0,0.05,5.95,0)" xlink:href="#ap"/><use transform="matrix(0.05,0,0,0.05,15.949999999999998,0)" xlink:href="#ag"/><use transform="matrix(0.05,0,0,0.05,25.950000000000003,0)" xlink:href="#ax"/></g><g id="U"><use transform="matrix(0.05,0,0,0.05,0,0)" xlink:href="#aU"/><use transform="matrix(0.05,0,0,0.05,12.950000000000001,0)" xlink:href="#aL"/><use transform="matrix(0.05,0,0,0.05,22.950000000000003,0)" xlink:href="#ak"/><use transform="matrix(0.05,0,0,0.05,32.95,0)" xlink:href="#aH"/><use transform="matrix(0.05,0,0,0.05,41.95,0)" xlink:href="#ay"/><use transform="matrix(0.05,0,0,0.05,51.95,0)" xlink:href="#ak"/></g><g id="V"><use transform="matrix(0.05,0,0,0.05,0,0)" xlink:href="#aC"/><use transform="matrix(0.05,0,0,0.05,10,0)" xlink:href="#aq"/><use transform="matrix(0.05,0,0,0.05,22.950000000000003,0)" xlink:href="#ag"/></g><g id="W"><use transform="matrix(0.05,0,0,0.05,0,0)" xlink:href="#az"/><use transform="matrix(0.05,0,0,0.05,9,0)" xlink:href="#ap"/><use transform="matrix(0.05,0,0,0.05,19,0)" xlink:href="#aC"/><use transform="matrix(0.05,0,0,0.05,29,0)" xlink:href="#ai"/><use transform="matrix(0.05,0,0,0.05,34,0)" xlink:href="#aP"/><use transform="matrix(0.05,0,0,0.05,44,0)" xlink:href="#at"/><use transform="matrix(0.05,0,0,0.05,49.95,0)" xlink:href="#af"/></g><g id="X"><use transform="matrix(0.05,0,0,0.05,0,0)" xlink:href="#ap"/><use transform="matrix(0.05,0,0,0.05,10,0)" xlink:href="#ag"/><use transform="matrix(0.05,0,0,0.05,20,0)" xlink:href="#ay"/></g><g id="Y"><use transform="matrix(0.05,0,0,0.05,0,0)" xlink:href="#aC"/><use transform="matrix(0.05,0,0,0.05,10,0)" xlink:href="#at"/><use transform="matrix(0.05,0,0,0.05,15.949999999999998,0)" xlink:href="#aA"/><use transform="matrix(0.05,0,0,0.05,25.950000000000003,0)" xlink:href="#aD"/><use transform="matrix(0.05,0,0,0.05,40.9,0)" xlink:href="#aA"/><use transform="matrix(0.05,0,0,0.05,50.9,0)" xlink:href="#ai"/><use transform="matrix(0.05,0,0,0.05,55.900000000000006,0)" xlink:href="#au"/><use transform="matrix(0.05,0,0,0.05,59.85,0)" xlink:href="#aA"/><use transform="matrix(0.05,0,0,0.05,69.85,0)" xlink:href="#ag"/></g><g id="Z"><use transform="matrix(0.05,0,0,0.05,0,0)" xlink:href="#aC"/><use transform="matrix(0.05,0,0,0.05,10,0)" xlink:href="#ap"/><use transform="matrix(0.05,0,0,0.05,20,0)" xlink:href="#aq"/><use transform="matrix(0.05,0,0,0.05,32.95,0)" xlink:href="#ag"/></g><g id="aa"><use transform="matrix(0.05,0,0,0.05,0,0)" xlink:href="#ay"/><use transform="matrix(0.05,0,0,0.05,10,0)" xlink:href="#au"/><use transform="matrix(0.05,0,0,0.05,13.949999999999998,0)" xlink:href="#as"/><use transform="matrix(0.05,0,0,0.05,22.95,0)" xlink:href="#ap"/><use transform="matrix(0.05,0,0,0.05,32.95,0)" xlink:href="#aD"/><use transform="matrix(0.05,0,0,0.05,47.900000000000006,0)" xlink:href="#aL"/><use transform="matrix(0.05,0,0,0.05,57.900000000000006,0)" xlink:href="#au"/><use transform="matrix(0.05,0,0,0.05,61.85,0)" xlink:href="#ah"/><use transform="matrix(0.05,0,0,0.05,71.85000000000001,0)" xlink:href="#aP"/><use transform="matrix(0.05,0,0,0.05,81.85000000000001,0)" xlink:href="#ap"/><use transform="matrix(0.05,0,0,0.05,91.85000000000001,0)" xlink:href="#ai"/><use transform="matrix(0.05,0,0,0.05,96.85000000000001,0)" xlink:href="#au"/><use transform="matrix(0.05,0,0,0.05,100.80000000000001,0)" xlink:href="#aA"/><use transform="matrix(0.05,0,0,0.05,110.80000000000001,0)" xlink:href="#ag"/></g><g id="ab"><use transform="matrix(0.05,0,0,0.05,0,0)" xlink:href="#aD"/><use transform="matrix(0.05,0,0,0.05,14.950000000000001,0)" xlink:href="#aA"/><use transform="matrix(0.05,0,0,0.05,24.950000000000003,0)" xlink:href="#aE"/><use transform="matrix(0.05,0,0,0.05,33.95,0)" xlink:href="#af"/></g><g id="ac"><use transform="matrix(0.05,0,0,0.05,0,0)" xlink:href="#af"/><use transform="matrix(0.05,0,0,0.05,10,0)" xlink:href="#aR"/><use transform="matrix(0.05,0,0,0.05,15,0)" xlink:href="#ah"/><use transform="matrix(0.05,0,0,0.05,25,0)" xlink:href="#aR"/></g><g id="ad"><use transform="matrix(0.05,0,0,0.05,0,0)" xlink:href="#aU"/><use transform="matrix(0.05,0,0,0.05,12.950000000000001,0)" xlink:href="#aL"/><use transform="matrix(0.05,0,0,0.05,22.950000000000003,0)" xlink:href="#ay"/><use transform="matrix(0.05,0,0,0.05,32.95,0)" xlink:href="#aI"/></g></defs></g></svg>