<svg xmlns="http://www.w3.org/2000/svg" xmlns:xlink="http://www.w3.org/1999/xlink" xmlns:lucid="lucid" width="968.72" height="724.45"><g transform="translate(0 -20)" lucid:page-tab-id="tuCWWnzR5YvH"><path d="M480 326.07v46.33" stroke="#000" stroke-width="2" fill="none"/><path d="M481 326.1h-2v-1.03h2zM481 373.4h-2v-1.03h2z"/><path d="M440 373.4h80v40h-80z" stroke="#000" stroke-opacity="0" stroke-width="2" fill="#fff"/><use xlink:href="#a" transform="matrix(1,0,0,1,445,378.39999999999986) translate(12.524999999999999 18.6)"/><path d="M501.86 511.6h135v60h-135z" stroke="#d2d3d3" stroke-width="2" fill="#fff"/><use xlink:href="#b" transform="matrix(1,0,0,1,506.85804069183416,516.5999999999997) translate(1.2249999999999943 28.6)"/><use xlink:href="#c" transform="matrix(1,0,0,1,506.85804069183416,516.5999999999997) translate(50.175 28.6)"/><use xlink:href="#d" transform="matrix(1,0,0,1,506.85804069183416,516.5999999999997) translate(87.075 28.6)"/><path d="M530.25 609.86l-18.84 17.3-1.34-1.47 20.2-18.55zM569.3 574l-27.05 24.84v-2.7l25.7-23.6z"/><path d="M569.28 574.03l-1.3-1.43h2.86zM511.4 627.1h-2.88l1.56-1.43z"/><use xlink:href="#e" transform="matrix(1,0,0,1,530.2526618994779,592.1959349593493) translate(0 14.4)"/><path d="M460 627.1h100v74.8H460z" stroke="#000" stroke-opacity="0" stroke-width="2" fill="#fff"/><use xlink:href="#f" transform="matrix(1,0,0,1,465,632.0999999999997) translate(12.049999999999997 25.299999999999997)"/><use xlink:href="#g" transform="matrix(1,0,0,1,465,632.0999999999997) translate(21.525 46.9)"/><path d="M637 633.1l-1.36 1.46-30.27-27.68v-2.7zm-44.58-40.77v2.7l-23-21.02 1.35-1.46z"/><path d="M569.44 574.03l-1.56-1.43h2.87zM638.53 634.5h-2.87l1.3-1.43z"/><use xlink:href="#h" transform="matrix(1,0,0,1,592.4150617126181,588.8053921568625) translate(0.004999999999999893 14.4)"/><path d="M587.05 634.5h100v60h-100z" stroke="#000" stroke-opacity="0" stroke-width="2" fill="#fff"/><use xlink:href="#i" transform="matrix(1,0,0,1,592.049414717002,639.4999999999997) translate(10.549999999999997 17.799999999999997)"/><use xlink:href="#j" transform="matrix(1,0,0,1,592.049414717002,639.4999999999997) translate(23.025 39.4)"/><path d="M383.33 40h120v40h-120z" stroke="#d2d3d3" stroke-width="2" fill="#fff"/><use xlink:href="#k" transform="matrix(1,0,0,1,388.3333333333338,45) translate(6.125 18.6)"/><use xlink:href="#l" transform="matrix(1,0,0,1,388.3333333333338,45) translate(78.075 18.6)"/><path d="M96.86 400h120v60h-120z" stroke="#d2d3d3" stroke-width="2" fill="#fff"/><use xlink:href="#b" transform="matrix(1,0,0,1,101.85804069183423,405) translate(21.549999999999997 18.299999999999997)"/><use xlink:href="#m" transform="matrix(1,0,0,1,101.85804069183423,405) translate(70.5 18.299999999999997)"/><use xlink:href="#n" transform="matrix(1,0,0,1,101.85804069183423,405) translate(7 39.9)"/><path d="M117.43 505.68l-26.02 28.5-1.46-1.34 27.5-30.12zm39.5-43.27l-27.5 30.13v-2.96l26.02-28.5z"/><path d="M156.9 462.43l-1.47-1.35 2.78-.08zM91.43 534.17l-2.78.08 1.3-1.43z"/><use xlink:href="#e" transform="matrix(1,0,0,1,117.42902034591711,486.82500000000005) translate(0.004999999999999893 14.4)"/><path d="M239.92 533.84l-1.33 1.5L200 500.87v-2.68zm-52.85-47.2v2.68l-30.13-26.9 1.33-1.5z"/><path d="M156.96 462.43l-1.6-1.43h2.87zM241.5 535.25h-2.88l1.28-1.43z"/><use xlink:href="#h" transform="matrix(1,0,0,1,187.06566740357542,482.95945209868637) translate(0.004999999999999893 14.4)"/><path d="M20 535.25h140v60H20z" stroke="#d2d3d3" stroke-width="2" fill="#fff"/><use xlink:href="#o" transform="matrix(1,0,0,1,25,540.2500000000001) translate(5.699999999999996 18.299999999999997)"/><use xlink:href="#p" transform="matrix(1,0,0,1,25,540.2500000000001) translate(40.699999999999996 18.299999999999997)"/><use xlink:href="#q" transform="matrix(1,0,0,1,25,540.2500000000001) translate(77.6 18.299999999999997)"/><use xlink:href="#r" transform="matrix(1,0,0,1,25,540.2500000000001) translate(102.6 18.299999999999997)"/><use xlink:href="#s" transform="matrix(1,0,0,1,25,540.2500000000001) translate(12.424999999999997 39.9)"/><use xlink:href="#t" transform="matrix(1,0,0,1,25,540.2500000000001) translate(84.375 39.9)"/><path d="M200 535.25h80v60h-80z" stroke="#000" stroke-opacity="0" stroke-width="2" fill="#fff"/><use xlink:href="#i" transform="matrix(1,0,0,1,205,540.2500000000001) translate(0.5499999999999972 17.799999999999997)"/><use xlink:href="#u" transform="matrix(1,0,0,1,205,540.2500000000001) translate(5.024999999999999 39.4)"/><path d="M718.72 472.33h143.33v36.9H718.72z" stroke="#d2d3d3" stroke-width="2" fill="#fff"/><use xlink:href="#b" transform="matrix(1,0,0,1,723.716081383669,477.32500000000044) translate(5.724999999999994 17.1)"/><use xlink:href="#c" transform="matrix(1,0,0,1,723.716081383669,477.32500000000044) translate(54.675 17.1)"/><use xlink:href="#d" transform="matrix(1,0,0,1,723.716081383669,477.32500000000044) translate(91.575 17.1)"/><path d="M743.8 556.1l-22 21-1.38-1.44 23.37-22.32zm46.55-44.46l-34.56 33v-2.76l33.17-31.7z"/><path d="M790.33 511.66l-1.37-1.44h2.87zM721.8 577.08h-2.87l1.5-1.44z"/><use xlink:href="#e" transform="matrix(1,0,0,1,743.7891407443994,538.1918949771695) translate(0.004999999999999893 14.4)"/><path d="M868.6 575.67l-1.3 1.52-21.8-18.63v-2.63zm-36.06-30.78v2.62l-42.05-35.9 1.3-1.5z"/><path d="M790.5 511.65l-1.66-1.42h2.9zM870.26 577.08h-2.9l1.23-1.43z"/><use xlink:href="#h" transform="matrix(1,0,0,1,832.5444434859488,540.9317628494143) translate(0.004999999999999893 14.4)"/><path d="M670.38 577.08h100v60h-100z" stroke="#000" stroke-opacity="0" stroke-width="2" fill="#fff"/><use xlink:href="#v" transform="matrix(1,0,0,1,675.3827480503354,582.0750000000005) translate(3.5249999999999986 17.799999999999997)"/><use xlink:href="#g" transform="matrix(1,0,0,1,675.3827480503354,582.0750000000005) translate(21.525 39.4)"/><path d="M788.72 577.08h160v77.1h-160z" stroke="#000" stroke-opacity="0" stroke-width="2" fill="#fff"/><use xlink:href="#w" transform="matrix(1,0,0,1,793.7160813836688,582.0750000000005) translate(6.625 16)"/><use xlink:href="#x" transform="matrix(1,0,0,1,793.7160813836688,582.0750000000005) translate(80.525 16)"/><use xlink:href="#y" transform="matrix(1,0,0,1,793.7160813836688,582.0750000000005) translate(14.599999999999994 37.6)"/><use xlink:href="#z" transform="matrix(1,0,0,1,793.7160813836688,582.0750000000005) translate(6.025000000000006 59.2)"/><use xlink:href="#A" transform="matrix(1,0,0,1,793.7160813836688,582.0750000000005) translate(54.97500000000001 59.2)"/><use xlink:href="#B" transform="matrix(1,0,0,1,793.7160813836688,582.0750000000005) translate(89.97500000000001 59.2)"/><path d="M387.1 116.53l-35.7 24.95-1.15-1.64 36.85-25.75zm48.85-34.14l-36.85 25.75v-2.44l35.7-24.95z"/><path d="M435.93 82.4l-1-1.4h3zM351.25 141.24h-3l2.02-1.4z"/><use xlink:href="#e" transform="matrix(1,0,0,1,387.09660008071046,100.31875) translate(0.004999999999999893 14.4)"/><path d="M270 142.24h160v53.2H270z" stroke="#d2d3d3" stroke-width="2" fill="#fff"/><use xlink:href="#C" transform="matrix(1,0,0,1,275,147.23749999999998) translate(17.574999999999996 14.799999999999999)"/><use xlink:href="#p" transform="matrix(1,0,0,1,275,147.23749999999998) translate(46.574999999999996 14.799999999999999)"/><use xlink:href="#D" transform="matrix(1,0,0,1,275,147.23749999999998) translate(83.475 14.799999999999999)"/><use xlink:href="#E" transform="matrix(1,0,0,1,275,147.23749999999998) translate(12.725000000000001 36.4)"/><use xlink:href="#p" transform="matrix(1,0,0,1,275,147.23749999999998) translate(53.675000000000004 36.4)"/><use xlink:href="#q" transform="matrix(1,0,0,1,275,147.23749999999998) translate(90.57499999999999 36.4)"/><use xlink:href="#r" transform="matrix(1,0,0,1,275,147.23749999999998) translate(115.57499999999999 36.4)"/><path d="M349.16 196.97L157.7 318.47" stroke="#000" stroke-width="2" fill="none"/><path d="M349.67 197.83l-.88-1.4h3.07zM158.07 319H155l2.2-1.4z"/><path d="M126.86 320h60v60h-60z" stroke="#d2d3d3" stroke-width="2" fill="#fff"/><use xlink:href="#F" transform="matrix(1,0,0,1,131.85804069183422,324.99999999999994) translate(15 28.6)"/><path d="M156.86 382v16" stroke="#000" stroke-width="2" fill="none"/><path d="M157.86 382.03h-2V381h2zM157.86 399h-2v-1.03h2z"/><path d="M253.14 318.4h60v60h-60z" stroke="#d2d3d3" stroke-width="2" fill="#fff"/><use xlink:href="#G" transform="matrix(1,0,0,1,258.1419593081658,323.4000000000001) translate(15 28.6)"/><path d="M349.52 197.3l-65.9 119.22" stroke="#000" stroke-width="2" fill="none"/><path d="M350.38 197.82l-1.75-.97.23-.4h2.28zM284.5 317l-.22.4H282l.76-1.38z"/><path d="M220 413.4h120v67.4H220z" stroke="#000" stroke-opacity="0" stroke-width="2" fill="#fff"/><use xlink:href="#w" transform="matrix(1,0,0,1,225,418.39999999999986) translate(6.599999999999994 14.4)"/><use xlink:href="#H" transform="matrix(1,0,0,1,225,418.39999999999986) translate(80.5 14.4)"/><use xlink:href="#y" transform="matrix(1,0,0,1,225,418.39999999999986) translate(-5.400000000000006 36)"/><use xlink:href="#I" transform="matrix(1,0,0,1,225,418.39999999999986) translate(7.524999999999999 57.6)"/><use xlink:href="#J" transform="matrix(1,0,0,1,225,418.39999999999986) translate(72.475 57.6)"/><use xlink:href="#K" transform="matrix(1,0,0,1,225,418.39999999999986) translate(29.025 79.20000000000002)"/><path d="M370 320h60v60h-60z" stroke="#d2d3d3" stroke-width="2" fill="#fff"/><use xlink:href="#L" transform="matrix(1,0,0,1,375,324.99999999999994) translate(15 28.6)"/><path d="M350.38 197.36l49.24 120.7" stroke="#000" stroke-width="2" fill="none"/><path d="M351.3 197l-1.84.76-.54-1.32h2.16zM401.08 319h-2.16l-.23-.57 1.84-.76z"/><path d="M283.14 380.4v32" stroke="#000" stroke-width="2" fill="none"/><path d="M284.14 380.43h-2v-1.03h2zM284.14 413.4h-2v-1.03h2z"/><path d="M320 511.6h180V579H320z" stroke="#000" stroke-opacity="0" stroke-width="2" fill="#fff"/><use xlink:href="#w" transform="matrix(1,0,0,1,325,516.5999999999997) translate(8.125 14.4)"/><use xlink:href="#M" transform="matrix(1,0,0,1,325,516.5999999999997) translate(82.025 14.4)"/><use xlink:href="#N" transform="matrix(1,0,0,1,325,516.5999999999997) translate(109.92500000000001 14.4)"/><use xlink:href="#O" transform="matrix(1,0,0,1,325,516.5999999999997) translate(126.92500000000001 14.4)"/><use xlink:href="#y" transform="matrix(1,0,0,1,325,516.5999999999997) translate(24.599999999999994 36)"/><use xlink:href="#I" transform="matrix(1,0,0,1,325,516.5999999999997) translate(4.049999999999997 57.6)"/><use xlink:href="#A" transform="matrix(1,0,0,1,325,516.5999999999997) translate(69 57.6)"/><use xlink:href="#P" transform="matrix(1,0,0,1,325,516.5999999999997) translate(104 57.6)"/><path d="M91 648.35h-2v-11.43h2zm0-33.03h-2v-18.07h2z"/><path d="M91 597.28h-2v-1.03h2zM91 649.35h-2v-1.03h2z"/><use xlink:href="#e" transform="matrix(1,0,0,1,84,615.3241290631172) translate(0.004999999999999893 14.4)"/><path d="M240 535.25" stroke="#000" stroke-width="2" fill="none"/><path/><path/><path d="M260 555.25" stroke="#000" stroke-width="2" fill="none"/><path d="M30 649.35h120v75.1H30z" stroke="#000" stroke-opacity="0" stroke-width="2" fill="#fff"/><use xlink:href="#Q" transform="matrix(1,0,0,1,35,654.3499999999999) translate(6.049999999999997 15.000000000000002)"/><use xlink:href="#R" transform="matrix(1,0,0,1,35,654.3499999999999) translate(44 15.000000000000002)"/><use xlink:href="#S" transform="matrix(1,0,0,1,35,654.3499999999999) translate(40 36.6)"/><use xlink:href="#T" transform="matrix(1,0,0,1,35,654.3499999999999) translate(15.075000000000003 58.2)"/><path d="M199.6 655.54l-.96 1.75-47.16-26V629zm-61.07-33.68v2.3L90.39 597.6l.96-1.74z"/><path d="M90.42 597.62l-2.5-1.37h3.25zM202.07 656.9h-3.24l.75-1.37z"/><use xlink:href="#h" transform="matrix(1,0,0,1,138.525,615.7750000000001) translate(0.004999999999999893 14.4)"/><path d="M160 656.9h80v60h-80z" stroke="#000" stroke-opacity="0" stroke-width="2" fill="#fff"/><use xlink:href="#U" transform="matrix(1,0,0,1,165,661.9) translate(13.524999999999999 17.799999999999997)"/><use xlink:href="#u" transform="matrix(1,0,0,1,165,661.9) translate(5.024999999999999 39.4)"/><path d="M788.73 326.07l1.64 144.26" stroke="#000" stroke-width="2" fill="none"/><path d="M789.73 326.1h-2v-1.03h2zM791.38 471.32h-2v-1l2-.03z"/><path d="M587.05 387.4h200V460h-200z" stroke="#000" stroke-opacity="0" stroke-width="2" fill="#fff"/><g><use xlink:href="#w" transform="matrix(1,0,0,1,592.049414717002,392.4) translate(46.599999999999994 14.4)"/><use xlink:href="#H" transform="matrix(1,0,0,1,592.049414717002,392.4) translate(120.5 14.4)"/><use xlink:href="#V" transform="matrix(1,0,0,1,592.049414717002,392.4) translate(7.625 36)"/><use xlink:href="#W" transform="matrix(1,0,0,1,592.049414717002,392.4) translate(138.425 36)"/><use xlink:href="#X" transform="matrix(1,0,0,1,592.049414717002,392.4) translate(56.025 57.6)"/><use xlink:href="#Y" transform="matrix(1,0,0,1,592.049414717002,392.4) translate(91.025 57.6)"/></g><path d="M670.38 326.07v60.33" stroke="#000" stroke-width="2" fill="none"/><path d="M671.38 326.1h-2v-1.03h2zM671.38 387.4h-2v-1.03h2z"/><path d="M500.86 533.82" stroke="#000" stroke-width="2" fill="none"/><path/><path/><path d="M569.36 326.07V509.6" stroke="#000" stroke-width="2" fill="none"/><path d="M570.36 326.1h-2v-1.03h2zM570.36 510.6h-2v-1.03h2z"/><path d="M450 264.07h60v60h-60z" stroke="#d2d3d3" stroke-width="2" fill="#fff"/><g><use xlink:href="#G" transform="matrix(1,0,0,1,455,269.0749999999999) translate(15 28.6)"/></g><path d="M539.36 264.07h60v60h-60z" stroke="#d2d3d3" stroke-width="2" fill="#fff"/><g><use xlink:href="#L" transform="matrix(1,0,0,1,544.3580406918343,269.0749999999999) translate(15 28.6)"/></g><path d="M640.38 264.07h60v60h-60z" stroke="#d2d3d3" stroke-width="2" fill="#fff"/><g><use xlink:href="#Z" transform="matrix(1,0,0,1,645.3827480503354,269.0749999999999) translate(15 28.6)"/></g><path d="M758.72 264.07h60v60h-60z" stroke="#d2d3d3" stroke-width="2" fill="#fff"/><g><use xlink:href="#aa" transform="matrix(1,0,0,1,763.7160813836686,269.0749999999999) translate(15 28.6)"/></g><path d="M492.7 142.24h120v39.9h-120z" stroke="#d2d3d3" stroke-width="2" fill="#fff"/><g><use xlink:href="#ab" transform="matrix(1,0,0,1,497.6913740251681,147.23749999999998) translate(6.075000000000003 18.6)"/><use xlink:href="#ac" transform="matrix(1,0,0,1,497.6913740251681,147.23749999999998) translate(54.975 18.6)"/></g><path d="M548.22 139.87l-1 1.74L502.45 116v-2.3zm-58.73-33.6v2.3l-45.8-26.2 1-1.74z"/><path d="M443.73 82.38l-2.4-1.38h3.2zM550.6 141.24h-3.2l.8-1.38z"/><g><use xlink:href="#h" transform="matrix(1,0,0,1,489.48735367925093,100.31875) translate(0.004999999999999893 14.4)"/></g><path d="M552 183.87l-72.35 78.47" stroke="#000" stroke-width="2" fill="none"/><path d="M552.73 184.57l-1.47-1.36.07-.06h2.72zM480.4 263l-.06.07h-2.73l1.34-1.43z"/><path d="M552.9 184.12l16.25 77.98" stroke="#000" stroke-width="2" fill="none"/><path d="M553.88 183.94l-1.96.4-.25-1.2h2.04zM570.38 263.07h-2.04l-.17-.8 1.96-.4z"/><path d="M553.52 183.7l116.04 78.8" stroke="#000" stroke-width="2" fill="none"/><path d="M552.98 184.54l-2.07-1.4h3.03zM672.16 263.07h-3.02l.96-1.4z"/><path d="M553.64 183.46l234.13 79.3" stroke="#000" stroke-width="2" fill="none"/><path d="M553.34 184.4l-3.77-1.26h4.2zM791.83 263.07h-4.2l.44-1.27z"/><path d="M400 382v128.6" stroke="#000" stroke-width="2" fill="none"/><path d="M401 382.03h-2V381h2zM401 511.6h-2v-1.03h2z"/><defs><path d="M30-248c87 1 191-15 191 75 0 78-77 80-158 76V0H30v-248zm33 125c57 0 124 11 124-50 0-59-68-47-124-48v98" id="ad"/><path d="M141-36C126-15 110 5 73 4 37 3 15-17 15-53c-1-64 63-63 125-63 3-35-9-54-41-54-24 1-41 7-42 31l-33-3c5-37 33-52 76-52 45 0 72 20 72 64v82c-1 20 7 32 28 27v20c-31 9-61-2-59-35zM48-53c0 20 12 33 32 33 41-3 63-29 60-74-43 2-92-5-92 41" id="ae"/><path d="M206 0h-36l-40-164L89 0H53L-1-190h32L70-26l43-164h34l41 164 42-164h31" id="af"/><path d="M117-194c89-4 53 116 60 194h-32v-121c0-31-8-49-39-48C34-167 62-67 57 0H25l-1-190h30c1 10-1 24 2 32 11-22 29-35 61-36" id="ag"/><g id="a"><use transform="matrix(0.05,0,0,0.05,0,0)" xlink:href="#ad"/><use transform="matrix(0.05,0,0,0.05,12,0)" xlink:href="#ae"/><use transform="matrix(0.05,0,0,0.05,22,0)" xlink:href="#af"/><use transform="matrix(0.05,0,0,0.05,34.95,0)" xlink:href="#ag"/></g><path d="M135-143c-3-34-86-38-87 0 15 53 115 12 119 90S17 21 10-45l28-5c4 36 97 45 98 0-10-56-113-15-118-90-4-57 82-63 122-42 12 7 21 19 24 35" id="ah"/><path d="M59-47c-2 24 18 29 38 22v24C64 9 27 4 27-40v-127H5v-23h24l9-43h21v43h35v23H59v120" id="ai"/><path d="M114-163C36-179 61-72 57 0H25l-1-190h30c1 12-1 29 2 39 6-27 23-49 58-41v29" id="aj"/><g id="b"><use transform="matrix(0.05,0,0,0.05,0,0)" xlink:href="#ah"/><use transform="matrix(0.05,0,0,0.05,9,0)" xlink:href="#ai"/><use transform="matrix(0.05,0,0,0.05,14,0)" xlink:href="#ae"/><use transform="matrix(0.05,0,0,0.05,24,0)" xlink:href="#aj"/><use transform="matrix(0.05,0,0,0.05,29.950000000000003,0)" xlink:href="#ai"/><use transform="matrix(0.05,0,0,0.05,34.95,0)" xlink:href="#ah"/></g><path d="M24-231v-30h32v30H24zM24 0v-190h32V0H24" id="ak"/><path d="M106-169C34-169 62-67 57 0H25v-261h32l-1 103c12-21 28-36 61-36 89 0 53 116 60 194h-32v-121c2-32-8-49-39-48" id="al"/><g id="c"><use transform="matrix(0.05,0,0,0.05,0,0)" xlink:href="#af"/><use transform="matrix(0.05,0,0,0.05,12.950000000000001,0)" xlink:href="#ak"/><use transform="matrix(0.05,0,0,0.05,16.900000000000002,0)" xlink:href="#ai"/><use transform="matrix(0.05,0,0,0.05,21.900000000000002,0)" xlink:href="#al"/></g><path d="M109-170H84l-4-78h32zm-65 0H19l-4-78h33" id="am"/><path d="M140-251c81 0 123 46 123 126C263-46 219 4 140 4 59 4 17-45 17-125s42-126 123-126zm0 227c63 0 89-41 89-101s-29-99-89-99c-61 0-89 39-89 99S79-25 140-24" id="an"/><path d="M103-251c84 0 111 97 45 133-19 10-37 24-39 52H78c0-63 77-55 77-114 0-30-21-42-52-43-32 0-53 17-56 46l-32-2c7-45 34-72 88-72zM77 0v-35h34V0H77" id="ao"/><g id="d"><use transform="matrix(0.05,0,0,0.05,0,0)" xlink:href="#am"/><use transform="matrix(0.05,0,0,0.05,6.3500000000000005,0)" xlink:href="#an"/><use transform="matrix(0.05,0,0,0.05,20.35,0)" xlink:href="#am"/><use transform="matrix(0.05,0,0,0.05,26.700000000000003,0)" xlink:href="#ao"/></g><path d="M137-103V0h-34v-103L8-248h37l75 118 75-118h37" id="ap"/><use transform="matrix(0.05,0,0,0.05,0,0)" xlink:href="#ap" id="e"/><path d="M143 0L79-87 56-68V0H24v-261h32v163l83-92h37l-77 82L181 0h-38" id="aq"/><path d="M177-190C167-65 218 103 67 71c-23-6-38-20-44-43l32-5c15 47 100 32 89-28v-30C133-14 115 1 83 1 29 1 15-40 15-95c0-56 16-97 71-98 29-1 48 16 59 35 1-10 0-23 2-32h30zM94-22c36 0 50-32 50-73 0-42-14-75-50-75-39 0-46 34-46 75s6 73 46 73" id="ar"/><path d="M85-194c31 0 48 13 60 33l-1-100h32l1 261h-30c-2-10 0-23-3-31C134-8 116 4 85 4 32 4 16-35 15-94c0-66 23-100 70-100zm9 24c-40 0-46 34-46 75 0 40 6 74 45 74 42 0 51-32 51-76 0-42-9-74-50-73" id="as"/><path d="M100-194c63 0 86 42 84 106H49c0 40 14 67 53 68 26 1 43-12 49-29l28 8c-11 28-37 45-77 45C44 4 14-33 15-96c1-61 26-98 85-98zm52 81c6-60-76-77-97-28-3 7-6 17-6 28h103" id="at"/><g id="f"><use transform="matrix(0.05,0,0,0.05,0,0)" xlink:href="#aq"/><use transform="matrix(0.05,0,0,0.05,9,0)" xlink:href="#ak"/><use transform="matrix(0.05,0,0,0.05,12.949999999999998,0)" xlink:href="#ag"/><use transform="matrix(0.05,0,0,0.05,22.95,0)" xlink:href="#ar"/><use transform="matrix(0.05,0,0,0.05,32.95,0)" xlink:href="#ah"/><use transform="matrix(0.05,0,0,0.05,41.95,0)" xlink:href="#ak"/><use transform="matrix(0.05,0,0,0.05,45.900000000000006,0)" xlink:href="#as"/><use transform="matrix(0.05,0,0,0.05,55.900000000000006,0)" xlink:href="#at"/></g><path d="M96-169c-40 0-48 33-48 73s9 75 48 75c24 0 41-14 43-38l32 2c-6 37-31 61-74 61-59 0-76-41-82-99-10-93 101-131 147-64 4 7 5 14 7 22l-32 3c-4-21-16-35-41-35" id="au"/><path d="M24 0v-261h32V0H24" id="av"/><g id="g"><use transform="matrix(0.05,0,0,0.05,0,0)" xlink:href="#au"/><use transform="matrix(0.05,0,0,0.05,9,0)" xlink:href="#ae"/><use transform="matrix(0.05,0,0,0.05,19,0)" xlink:href="#ah"/><use transform="matrix(0.05,0,0,0.05,28,0)" xlink:href="#ai"/><use transform="matrix(0.05,0,0,0.05,33,0)" xlink:href="#av"/><use transform="matrix(0.05,0,0,0.05,36.95,0)" xlink:href="#at"/></g><path d="M190 0L58-211 59 0H30v-248h39L202-35l-2-213h31V0h-41" id="aw"/><use transform="matrix(0.05,0,0,0.05,0,0)" xlink:href="#aw" id="h"/><path d="M100-194c62-1 85 37 85 99 1 63-27 99-86 99S16-35 15-95c0-66 28-99 85-99zM99-20c44 1 53-31 53-75 0-43-8-75-51-75s-53 32-53 75 10 74 51 75" id="ax"/><path d="M16-82v-28h88v28H16" id="ay"/><path d="M115-194c55 1 70 41 70 98S169 2 115 4C84 4 66-9 55-30l1 105H24l-1-265h31l2 30c10-21 28-34 59-34zm-8 174c40 0 45-34 45-75s-6-73-45-74c-42 0-51 32-51 76 0 43 10 73 51 73" id="az"/><g id="i"><use transform="matrix(0.05,0,0,0.05,0,0)" xlink:href="#ag"/><use transform="matrix(0.05,0,0,0.05,10,0)" xlink:href="#ax"/><use transform="matrix(0.05,0,0,0.05,20,0)" xlink:href="#ag"/><use transform="matrix(0.05,0,0,0.05,30,0)" xlink:href="#ay"/><use transform="matrix(0.05,0,0,0.05,35.95,0)" xlink:href="#az"/><use transform="matrix(0.05,0,0,0.05,45.95,0)" xlink:href="#af"/><use transform="matrix(0.05,0,0,0.05,58.900000000000006,0)" xlink:href="#ag"/></g><path d="M210-169c-67 3-38 105-44 169h-31v-121c0-29-5-50-35-48C34-165 62-65 56 0H25l-1-190h30c1 10-1 24 2 32 10-44 99-50 107 0 11-21 27-35 58-36 85-2 47 119 55 194h-31v-121c0-29-5-49-35-48" id="aA"/><path d="M108 0H70L1-190h34L89-25l56-165h34" id="aB"/><g id="j"><use transform="matrix(0.05,0,0,0.05,0,0)" xlink:href="#aA"/><use transform="matrix(0.05,0,0,0.05,14.950000000000001,0)" xlink:href="#ax"/><use transform="matrix(0.05,0,0,0.05,24.950000000000003,0)" xlink:href="#aB"/><use transform="matrix(0.05,0,0,0.05,33.95,0)" xlink:href="#at"/></g><g id="k"><use transform="matrix(0.05,0,0,0.05,0,0)" xlink:href="#au"/><use transform="matrix(0.05,0,0,0.05,9,0)" xlink:href="#ax"/><use transform="matrix(0.05,0,0,0.05,19,0)" xlink:href="#ag"/><use transform="matrix(0.05,0,0,0.05,29,0)" xlink:href="#ai"/><use transform="matrix(0.05,0,0,0.05,34,0)" xlink:href="#ae"/><use transform="matrix(0.05,0,0,0.05,44,0)" xlink:href="#ak"/><use transform="matrix(0.05,0,0,0.05,47.95,0)" xlink:href="#ag"/><use transform="matrix(0.05,0,0,0.05,57.95,0)" xlink:href="#ah"/></g><path d="M47-170H22l-4-78h33" id="aC"/><path d="M141 0L90-78 38 0H4l68-98-65-92h35l48 74 47-74h35l-64 92 68 98h-35" id="aD"/><g id="l"><use transform="matrix(0.05,0,0,0.05,0,0)" xlink:href="#aC"/><use transform="matrix(0.05,0,0,0.05,3.4000000000000004,0)" xlink:href="#aD"/><use transform="matrix(0.05,0,0,0.05,12.4,0)" xlink:href="#aC"/><use transform="matrix(0.05,0,0,0.05,15.8,0)" xlink:href="#ao"/></g><path d="M0 4l72-265h28L28 4H0" id="aE"/><g id="m"><use transform="matrix(0.05,0,0,0.05,0,0)" xlink:href="#af"/><use transform="matrix(0.05,0,0,0.05,12.950000000000001,0)" xlink:href="#aE"/></g><path d="M39-94c74 12-11 154 75 146v23c-44 4-70-10-70-52C44-23 55-84 6-82v-22c81 4-7-162 84-157h24v23c-82-15-2 131-75 144" id="aF"/><path d="M115-194c53 0 69 39 70 98 0 66-23 100-70 100C84 3 66-7 56-30L54 0H23l1-261h32v101c10-23 28-34 59-34zm-8 174c40 0 45-34 45-75 0-40-5-75-45-74-42 0-51 32-51 76 0 43 10 73 51 73" id="aG"/><path d="M101-234c-31-9-42 10-38 44h38v23H63V0H32v-167H5v-23h27c-7-52 17-82 69-68v24" id="aH"/><path d="M76-40C78 24 84 88 6 75V52C86 64 9-79 80-94c-40-6-34-59-34-106 1-29-11-41-40-38v-23c44-4 70 10 70 52 0 47-12 108 38 105v22c-26 1-39 14-38 42" id="aI"/><g id="n"><use transform="matrix(0.05,0,0,0.05,0,0)" xlink:href="#aF"/><use transform="matrix(0.05,0,0,0.05,6,0)" xlink:href="#ae"/><use transform="matrix(0.05,0,0,0.05,16,0)" xlink:href="#aG"/><use transform="matrix(0.05,0,0,0.05,26,0)" xlink:href="#au"/><use transform="matrix(0.05,0,0,0.05,35,0)" xlink:href="#as"/><use transform="matrix(0.05,0,0,0.05,45,0)" xlink:href="#at"/><use transform="matrix(0.05,0,0,0.05,55,0)" xlink:href="#aH"/><use transform="matrix(0.05,0,0,0.05,60,0)" xlink:href="#ar"/><use transform="matrix(0.05,0,0,0.05,70,0)" xlink:href="#al"/><use transform="matrix(0.05,0,0,0.05,80,0)" xlink:href="#aI"/><use transform="matrix(0.05,0,0,0.05,86,0)" xlink:href="#ao"/></g><path d="M101-251c82-7 93 87 43 132L82-64C71-53 59-42 53-27h129V0H18c2-99 128-94 128-182 0-28-16-43-45-43s-46 15-49 41l-32-3c6-41 34-60 81-64" id="aJ"/><g id="o"><use transform="matrix(0.05,0,0,0.05,0,0)" xlink:href="#aJ"/><use transform="matrix(0.05,0,0,0.05,10,0)" xlink:href="#ag"/><use transform="matrix(0.05,0,0,0.05,20,0)" xlink:href="#as"/></g><g id="p"><use transform="matrix(0.05,0,0,0.05,0,0)" xlink:href="#ah"/><use transform="matrix(0.05,0,0,0.05,9,0)" xlink:href="#az"/><use transform="matrix(0.05,0,0,0.05,19,0)" xlink:href="#av"/><use transform="matrix(0.05,0,0,0.05,22.95,0)" xlink:href="#ak"/><use transform="matrix(0.05,0,0,0.05,26.899999999999995,0)" xlink:href="#ai"/></g><g id="q"><use transform="matrix(0.05,0,0,0.05,0,0)" xlink:href="#ax"/><use transform="matrix(0.05,0,0,0.05,10,0)" xlink:href="#ag"/></g><g id="r"><use transform="matrix(0.05,0,0,0.05,0,0)" xlink:href="#am"/><use transform="matrix(0.05,0,0,0.05,6.3500000000000005,0)" xlink:href="#aD"/><use transform="matrix(0.05,0,0,0.05,15.350000000000001,0)" xlink:href="#am"/></g><g id="s"><use transform="matrix(0.05,0,0,0.05,0,0)" xlink:href="#au"/><use transform="matrix(0.05,0,0,0.05,9,0)" xlink:href="#ax"/><use transform="matrix(0.05,0,0,0.05,19,0)" xlink:href="#ag"/><use transform="matrix(0.05,0,0,0.05,29,0)" xlink:href="#ai"/><use transform="matrix(0.05,0,0,0.05,34,0)" xlink:href="#ae"/><use transform="matrix(0.05,0,0,0.05,44,0)" xlink:href="#ak"/><use transform="matrix(0.05,0,0,0.05,47.95,0)" xlink:href="#ag"/><use transform="matrix(0.05,0,0,0.05,57.95,0)" xlink:href="#ah"/></g><path d="M18-150v-26h174v26H18zm0 90v-26h174v26H18" id="aK"/><g id="t"><use transform="matrix(0.05,0,0,0.05,0,0)" xlink:href="#am"/><use transform="matrix(0.05,0,0,0.05,6.3500000000000005,0)" xlink:href="#aK"/><use transform="matrix(0.05,0,0,0.05,16.85,0)" xlink:href="#am"/><use transform="matrix(0.05,0,0,0.05,23.200000000000003,0)" xlink:href="#ao"/></g><path d="M84 4C-5 8 30-112 23-190h32v120c0 31 7 50 39 49 72-2 45-101 50-169h31l1 190h-30c-1-10 1-25-2-33-11 22-28 36-60 37" id="aL"/><g id="u"><use transform="matrix(0.05,0,0,0.05,0,0)" xlink:href="#au"/><use transform="matrix(0.05,0,0,0.05,9,0)" xlink:href="#ae"/><use transform="matrix(0.05,0,0,0.05,19,0)" xlink:href="#az"/><use transform="matrix(0.05,0,0,0.05,29,0)" xlink:href="#ai"/><use transform="matrix(0.05,0,0,0.05,34,0)" xlink:href="#aL"/><use transform="matrix(0.05,0,0,0.05,44,0)" xlink:href="#aj"/><use transform="matrix(0.05,0,0,0.05,49.95,0)" xlink:href="#at"/></g><path d="M145-31C134-9 116 4 85 4 32 4 16-35 15-94c0-59 17-99 70-100 32-1 48 14 60 33 0-11-1-24 2-32h30l-1 268h-32zM93-21c41 0 51-33 51-76s-8-73-50-73c-40 0-46 35-46 75s5 74 45 74" id="aM"/><g id="v"><use transform="matrix(0.05,0,0,0.05,0,0)" xlink:href="#aM"/><use transform="matrix(0.05,0,0,0.05,10,0)" xlink:href="#aL"/><use transform="matrix(0.05,0,0,0.05,20,0)" xlink:href="#at"/><use transform="matrix(0.05,0,0,0.05,30,0)" xlink:href="#at"/><use transform="matrix(0.05,0,0,0.05,40,0)" xlink:href="#ag"/><use transform="matrix(0.05,0,0,0.05,50,0)" xlink:href="#ah"/><use transform="matrix(0.05,0,0,0.05,59,0)" xlink:href="#ak"/><use transform="matrix(0.05,0,0,0.05,62.95,0)" xlink:href="#as"/><use transform="matrix(0.05,0,0,0.05,72.95,0)" xlink:href="#at"/></g><g id="w"><use transform="matrix(0.05,0,0,0.05,0,0)" xlink:href="#ag"/><use transform="matrix(0.05,0,0,0.05,10,0)" xlink:href="#ax"/><use transform="matrix(0.05,0,0,0.05,20,0)" xlink:href="#ag"/><use transform="matrix(0.05,0,0,0.05,30,0)" xlink:href="#ay"/><use transform="matrix(0.05,0,0,0.05,35.95,0)" xlink:href="#az"/><use transform="matrix(0.05,0,0,0.05,45.95,0)" xlink:href="#af"/><use transform="matrix(0.05,0,0,0.05,58.900000000000006,0)" xlink:href="#ag"/></g><g id="x"><use transform="matrix(0.05,0,0,0.05,0,0)" xlink:href="#aj"/><use transform="matrix(0.05,0,0,0.05,5.95,0)" xlink:href="#ae"/><use transform="matrix(0.05,0,0,0.05,15.949999999999998,0)" xlink:href="#ag"/><use transform="matrix(0.05,0,0,0.05,25.950000000000003,0)" xlink:href="#aq"/><use transform="matrix(0.05,0,0,0.05,34.95,0)" xlink:href="#aE"/><use transform="matrix(0.05,0,0,0.05,39.95,0)" xlink:href="#aH"/><use transform="matrix(0.05,0,0,0.05,44.95,0)" xlink:href="#ak"/><use transform="matrix(0.05,0,0,0.05,48.900000000000006,0)" xlink:href="#av"/><use transform="matrix(0.05,0,0,0.05,52.85,0)" xlink:href="#at"/></g><g id="y"><use transform="matrix(0.05,0,0,0.05,0,0)" xlink:href="#as"/><use transform="matrix(0.05,0,0,0.05,10,0)" xlink:href="#ak"/><use transform="matrix(0.05,0,0,0.05,13.949999999999998,0)" xlink:href="#ah"/><use transform="matrix(0.05,0,0,0.05,22.95,0)" xlink:href="#ae"/><use transform="matrix(0.05,0,0,0.05,32.95,0)" xlink:href="#aA"/><use transform="matrix(0.05,0,0,0.05,47.900000000000006,0)" xlink:href="#aG"/><use transform="matrix(0.05,0,0,0.05,57.900000000000006,0)" xlink:href="#ak"/><use transform="matrix(0.05,0,0,0.05,61.85,0)" xlink:href="#ar"/><use transform="matrix(0.05,0,0,0.05,71.85000000000001,0)" xlink:href="#aL"/><use transform="matrix(0.05,0,0,0.05,81.85000000000001,0)" xlink:href="#ae"/><use transform="matrix(0.05,0,0,0.05,91.85000000000001,0)" xlink:href="#ai"/><use transform="matrix(0.05,0,0,0.05,96.85000000000001,0)" xlink:href="#ak"/><use transform="matrix(0.05,0,0,0.05,100.80000000000001,0)" xlink:href="#ax"/><use transform="matrix(0.05,0,0,0.05,110.80000000000001,0)" xlink:href="#ag"/></g><g id="z"><use transform="matrix(0.05,0,0,0.05,0,0)" xlink:href="#aA"/><use transform="matrix(0.05,0,0,0.05,14.950000000000001,0)" xlink:href="#ax"/><use transform="matrix(0.05,0,0,0.05,24.950000000000003,0)" xlink:href="#aB"/><use transform="matrix(0.05,0,0,0.05,33.95,0)" xlink:href="#at"/></g><path d="M33 0v-38h34V0H33" id="aN"/><g id="A"><use transform="matrix(0.05,0,0,0.05,0,0)" xlink:href="#at"/><use transform="matrix(0.05,0,0,0.05,10,0)" xlink:href="#aN"/><use transform="matrix(0.05,0,0,0.05,15,0)" xlink:href="#ar"/><use transform="matrix(0.05,0,0,0.05,25,0)" xlink:href="#aN"/></g><path d="M140-251c81 0 123 46 123 126C263-53 228-8 163 1c7 30 30 48 69 40v23c-55 16-95-15-103-61C56-3 17-48 17-125c0-80 42-126 123-126zm0 227c63 0 89-41 89-101s-29-99-89-99c-61 0-89 39-89 99S79-25 140-24" id="aO"/><path d="M155-56V0h-30v-56H8v-25l114-167h33v167h35v25h-35zm-30-156c-27 46-58 90-88 131h88v-131" id="aP"/><path d="M54-142c48-35 137-8 131 61C196 18 31 33 14-55l32-4c7 23 22 37 52 37 35-1 51-22 54-58 4-55-73-65-99-34H22l8-134h141v27H59" id="aQ"/><g id="B"><use transform="matrix(0.05,0,0,0.05,0,0)" xlink:href="#aO"/><use transform="matrix(0.05,0,0,0.05,14,0)" xlink:href="#at"/><use transform="matrix(0.05,0,0,0.05,24,0)" xlink:href="#aP"/><use transform="matrix(0.05,0,0,0.05,34,0)" xlink:href="#as"/><use transform="matrix(0.05,0,0,0.05,44,0)" xlink:href="#aQ"/></g><path d="M27 0v-27h64v-190l-56 39v-29l58-41h29v221h61V0H27" id="aR"/><g id="C"><use transform="matrix(0.05,0,0,0.05,0,0)" xlink:href="#aR"/><use transform="matrix(0.05,0,0,0.05,10,0)" xlink:href="#ah"/><use transform="matrix(0.05,0,0,0.05,19,0)" xlink:href="#ai"/></g><g id="D"><use transform="matrix(0.05,0,0,0.05,0,0)" xlink:href="#av"/><use transform="matrix(0.05,0,0,0.05,3.95,0)" xlink:href="#at"/><use transform="matrix(0.05,0,0,0.05,13.949999999999998,0)" xlink:href="#ag"/><use transform="matrix(0.05,0,0,0.05,23.95,0)" xlink:href="#ar"/><use transform="matrix(0.05,0,0,0.05,33.95,0)" xlink:href="#ai"/><use transform="matrix(0.05,0,0,0.05,38.95,0)" xlink:href="#al"/></g><g id="E"><use transform="matrix(0.05,0,0,0.05,0,0)" xlink:href="#ae"/><use transform="matrix(0.05,0,0,0.05,10,0)" xlink:href="#aH"/><use transform="matrix(0.05,0,0,0.05,15,0)" xlink:href="#ai"/><use transform="matrix(0.05,0,0,0.05,20,0)" xlink:href="#at"/><use transform="matrix(0.05,0,0,0.05,30,0)" xlink:href="#aj"/></g><g id="F"><use transform="matrix(0.05,0,0,0.05,0,0)" xlink:href="#aR"/><use transform="matrix(0.05,0,0,0.05,10,0)" xlink:href="#ao"/></g><g id="G"><use transform="matrix(0.05,0,0,0.05,0,0)" xlink:href="#aJ"/><use transform="matrix(0.05,0,0,0.05,10,0)" xlink:href="#ao"/></g><g id="H"><use transform="matrix(0.05,0,0,0.05,0,0)" xlink:href="#aH"/><use transform="matrix(0.05,0,0,0.05,5,0)" xlink:href="#ak"/><use transform="matrix(0.05,0,0,0.05,8.95,0)" xlink:href="#av"/><use transform="matrix(0.05,0,0,0.05,12.899999999999999,0)" xlink:href="#at"/></g><g id="I"><use transform="matrix(0.05,0,0,0.05,0,0)" xlink:href="#au"/><use transform="matrix(0.05,0,0,0.05,9,0)" xlink:href="#ae"/><use transform="matrix(0.05,0,0,0.05,19,0)" xlink:href="#az"/><use transform="matrix(0.05,0,0,0.05,29,0)" xlink:href="#ai"/><use transform="matrix(0.05,0,0,0.05,34,0)" xlink:href="#aL"/><use transform="matrix(0.05,0,0,0.05,44,0)" xlink:href="#aj"/><use transform="matrix(0.05,0,0,0.05,49.95,0)" xlink:href="#at"/></g><g id="J"><use transform="matrix(0.05,0,0,0.05,0,0)" xlink:href="#at"/><use transform="matrix(0.05,0,0,0.05,10,0)" xlink:href="#aN"/><use transform="matrix(0.05,0,0,0.05,15,0)" xlink:href="#ar"/><use transform="matrix(0.05,0,0,0.05,25,0)" xlink:href="#aN"/></g><path d="M233-177c-1 41-23 64-60 70L243 0h-38l-65-103H63V0H30v-248c88 3 205-21 203 71zM63-129c60-2 137 13 137-47 0-61-80-42-137-45v92" id="aS"/><g id="K"><use transform="matrix(0.05,0,0,0.05,0,0)" xlink:href="#aS"/><use transform="matrix(0.05,0,0,0.05,12.950000000000001,0)" xlink:href="#aG"/><use transform="matrix(0.05,0,0,0.05,22.950000000000003,0)" xlink:href="#aD"/><use transform="matrix(0.05,0,0,0.05,31.950000000000003,0)" xlink:href="#as"/><use transform="matrix(0.05,0,0,0.05,41.95,0)" xlink:href="#aQ"/></g><path d="M126-127c33 6 58 20 58 59 0 88-139 92-164 29-3-8-5-16-6-25l32-3c6 27 21 44 54 44 32 0 52-15 52-46 0-38-36-46-79-43v-28c39 1 72-4 72-42 0-27-17-43-46-43-28 0-47 15-49 41l-32-3c6-42 35-63 81-64 48-1 79 21 79 65 0 36-21 52-52 59" id="aT"/><g id="L"><use transform="matrix(0.05,0,0,0.05,0,0)" xlink:href="#aT"/><use transform="matrix(0.05,0,0,0.05,10,0)" xlink:href="#ao"/></g><g id="M"><use transform="matrix(0.05,0,0,0.05,0,0)" xlink:href="#aH"/><use transform="matrix(0.05,0,0,0.05,5,0)" xlink:href="#ak"/><use transform="matrix(0.05,0,0,0.05,8.95,0)" xlink:href="#av"/><use transform="matrix(0.05,0,0,0.05,12.899999999999999,0)" xlink:href="#at"/></g><path d="M234-2c-28 10-62 0-77-18C117 19 8 12 13-65c3-43 29-61 60-76-25-40-17-114 47-108 35 3 59 15 59 50 0 44-40 53-71 69 14 26 32 50 51 72 14-21 24-43 30-72l26 8c-9 33-21 57-38 82 13 13 33 22 57 15v23zM97-151c25-10 52-18 56-48-1-18-13-29-33-29-42 0-39 50-23 77zM42-66c-3 51 71 58 98 28-20-24-41-51-56-80-23 10-40 24-42 52" id="aU"/><use transform="matrix(0.05,0,0,0.05,0,0)" xlink:href="#aU" id="N"/><g id="O"><use transform="matrix(0.05,0,0,0.05,0,0)" xlink:href="#aj"/><use transform="matrix(0.05,0,0,0.05,5.95,0)" xlink:href="#ae"/><use transform="matrix(0.05,0,0,0.05,15.949999999999998,0)" xlink:href="#ag"/><use transform="matrix(0.05,0,0,0.05,25.950000000000003,0)" xlink:href="#aq"/></g><g id="P"><use transform="matrix(0.05,0,0,0.05,0,0)" xlink:href="#aS"/><use transform="matrix(0.05,0,0,0.05,12.950000000000001,0)" xlink:href="#aG"/><use transform="matrix(0.05,0,0,0.05,22.950000000000003,0)" xlink:href="#aJ"/><use transform="matrix(0.05,0,0,0.05,32.95,0)" xlink:href="#aD"/><use transform="matrix(0.05,0,0,0.05,41.95,0)" xlink:href="#as"/><use transform="matrix(0.05,0,0,0.05,51.95,0)" xlink:href="#aJ"/></g><g id="Q"><use transform="matrix(0.05,0,0,0.05,0,0)" xlink:href="#az"/><use transform="matrix(0.05,0,0,0.05,10,0)" xlink:href="#af"/><use transform="matrix(0.05,0,0,0.05,22.950000000000003,0)" xlink:href="#ag"/></g><g id="R"><use transform="matrix(0.05,0,0,0.05,0,0)" xlink:href="#au"/><use transform="matrix(0.05,0,0,0.05,9,0)" xlink:href="#ae"/><use transform="matrix(0.05,0,0,0.05,19,0)" xlink:href="#az"/><use transform="matrix(0.05,0,0,0.05,29,0)" xlink:href="#ai"/><use transform="matrix(0.05,0,0,0.05,34,0)" xlink:href="#aL"/><use transform="matrix(0.05,0,0,0.05,44,0)" xlink:href="#aj"/><use transform="matrix(0.05,0,0,0.05,49.95,0)" xlink:href="#at"/></g><g id="S"><use transform="matrix(0.05,0,0,0.05,0,0)" xlink:href="#ae"/><use transform="matrix(0.05,0,0,0.05,10,0)" xlink:href="#ag"/><use transform="matrix(0.05,0,0,0.05,20,0)" xlink:href="#as"/></g><g id="T"><use transform="matrix(0.05,0,0,0.05,0,0)" xlink:href="#az"/><use transform="matrix(0.05,0,0,0.05,10,0)" xlink:href="#aj"/><use transform="matrix(0.05,0,0,0.05,15.949999999999998,0)" xlink:href="#ax"/><use transform="matrix(0.05,0,0,0.05,25.950000000000003,0)" xlink:href="#aA"/><use transform="matrix(0.05,0,0,0.05,40.9,0)" xlink:href="#ax"/><use transform="matrix(0.05,0,0,0.05,50.9,0)" xlink:href="#ai"/><use transform="matrix(0.05,0,0,0.05,55.900000000000006,0)" xlink:href="#ak"/><use transform="matrix(0.05,0,0,0.05,59.85,0)" xlink:href="#ax"/><use transform="matrix(0.05,0,0,0.05,69.85,0)" xlink:href="#ag"/></g><g id="U"><use transform="matrix(0.05,0,0,0.05,0,0)" xlink:href="#az"/><use transform="matrix(0.05,0,0,0.05,10,0)" xlink:href="#ae"/><use transform="matrix(0.05,0,0,0.05,20,0)" xlink:href="#af"/><use transform="matrix(0.05,0,0,0.05,32.95,0)" xlink:href="#ag"/></g><g id="V"><use transform="matrix(0.05,0,0,0.05,0,0)" xlink:href="#as"/><use transform="matrix(0.05,0,0,0.05,10,0)" xlink:href="#ak"/><use transform="matrix(0.05,0,0,0.05,13.949999999999998,0)" xlink:href="#ah"/><use transform="matrix(0.05,0,0,0.05,22.95,0)" xlink:href="#ae"/><use transform="matrix(0.05,0,0,0.05,32.95,0)" xlink:href="#aA"/><use transform="matrix(0.05,0,0,0.05,47.900000000000006,0)" xlink:href="#aG"/><use transform="matrix(0.05,0,0,0.05,57.900000000000006,0)" xlink:href="#ak"/><use transform="matrix(0.05,0,0,0.05,61.85,0)" xlink:href="#ar"/><use transform="matrix(0.05,0,0,0.05,71.85000000000001,0)" xlink:href="#aL"/><use transform="matrix(0.05,0,0,0.05,81.85000000000001,0)" xlink:href="#ae"/><use transform="matrix(0.05,0,0,0.05,91.85000000000001,0)" xlink:href="#ai"/><use transform="matrix(0.05,0,0,0.05,96.85000000000001,0)" xlink:href="#ak"/><use transform="matrix(0.05,0,0,0.05,100.80000000000001,0)" xlink:href="#ax"/><use transform="matrix(0.05,0,0,0.05,110.80000000000001,0)" xlink:href="#ag"/></g><g id="W"><use transform="matrix(0.05,0,0,0.05,0,0)" xlink:href="#aA"/><use transform="matrix(0.05,0,0,0.05,14.950000000000001,0)" xlink:href="#ax"/><use transform="matrix(0.05,0,0,0.05,24.950000000000003,0)" xlink:href="#aB"/><use transform="matrix(0.05,0,0,0.05,33.95,0)" xlink:href="#at"/></g><g id="X"><use transform="matrix(0.05,0,0,0.05,0,0)" xlink:href="#at"/><use transform="matrix(0.05,0,0,0.05,10,0)" xlink:href="#aN"/><use transform="matrix(0.05,0,0,0.05,15,0)" xlink:href="#ar"/><use transform="matrix(0.05,0,0,0.05,25,0)" xlink:href="#aN"/></g><g id="Y"><use transform="matrix(0.05,0,0,0.05,0,0)" xlink:href="#aS"/><use transform="matrix(0.05,0,0,0.05,12.950000000000001,0)" xlink:href="#aG"/><use transform="matrix(0.05,0,0,0.05,22.950000000000003,0)" xlink:href="#as"/><use transform="matrix(0.05,0,0,0.05,32.95,0)" xlink:href="#aQ"/></g><g id="Z"><use transform="matrix(0.05,0,0,0.05,0,0)" xlink:href="#aP"/><use transform="matrix(0.05,0,0,0.05,10,0)" xlink:href="#ao"/></g><g id="aa"><use transform="matrix(0.05,0,0,0.05,0,0)" xlink:href="#aQ"/><use transform="matrix(0.05,0,0,0.05,10,0)" xlink:href="#ao"/></g><g id="ab"><use transform="matrix(0.05,0,0,0.05,0,0)" xlink:href="#ah"/><use transform="matrix(0.05,0,0,0.05,9,0)" xlink:href="#ai"/><use transform="matrix(0.05,0,0,0.05,14,0)" xlink:href="#aj"/><use transform="matrix(0.05,0,0,0.05,19.95,0)" xlink:href="#ak"/><use transform="matrix(0.05,0,0,0.05,23.9,0)" xlink:href="#ag"/><use transform="matrix(0.05,0,0,0.05,33.9,0)" xlink:href="#ar"/></g><g id="ac"><use transform="matrix(0.05,0,0,0.05,0,0)" xlink:href="#av"/><use transform="matrix(0.05,0,0,0.05,3.95,0)" xlink:href="#at"/><use transform="matrix(0.05,0,0,0.05,13.949999999999998,0)" xlink:href="#ag"/><use transform="matrix(0.05,0,0,0.05,23.95,0)" xlink:href="#ar"/><use transform="matrix(0.05,0,0,0.05,33.95,0)" xlink:href="#ai"/><use transform="matrix(0.05,0,0,0.05,38.95,0)" xlink:href="#al"/></g></defs></g></svg>