<svg xmlns="http://www.w3.org/2000/svg" xmlns:xlink="http://www.w3.org/1999/xlink" xmlns:lucid="lucid" width="1585" height="1221.42"><g transform="translate(-55 0)" lucid:page-tab-id="SdTV2gPjQCcB"><path d="M780 20h60v60h-60z" stroke="#d2d3d3" stroke-width="2" fill="#fff"/><use xlink:href="#a" transform="matrix(1,0,0,1,785,25) translate(15 28.6)"/><path d="M747.4 123.24l-26.02 17.05-1.1-1.68 27.1-17.77zm62.3-40.86l-50.3 33v-2.4L808.6 80.7z"/><path d="M809.7 82.4l-.93-1.4h3.05zM721.23 140h-3.05l2.13-1.4z"/><use xlink:href="#b" transform="matrix(1,0,0,1,747.3919156414762,107.3097441905878) translate(0 14.4)"/><path d="M870.1 147.6l-1.5 1.3-22.13-25.05v-3.02zm-36.58-41.45v3.02l-23.6-26.76 1.5-1.3z"/><path d="M811.43 81.1l-1.5 1.33-1.26-1.43h2.66zM871.33 149h-2.66l-.1-.1 1.5-1.33z"/><use xlink:href="#c" transform="matrix(1,0,0,1,833.525,104.2) translate(0 14.4)"/><path d="M680 140h80v40h-80z" stroke="#000" stroke-opacity="0" stroke-width="2" fill="#fff"/><use xlink:href="#d" transform="matrix(1,0,0,1,685,145) translate(12.524999999999999 18.6)"/><path d="M840 150h60v60h-60z" stroke="#d2d3d3" stroke-width="2" fill="#fff"/><use xlink:href="#e" transform="matrix(1,0,0,1,845,155) translate(15 28.6)"/><path d="M593.6 258.82l-407.45 69-.33-1.97L593.6 256.8zm275.58-46.67l-263.6 44.64v-2.04l263.27-44.58z"/><path d="M873.12 211.5l-3.96.66-.2-1.16h4.08zM186.04 327h-4.08l-.08-.5 3.96-.66z"/><use xlink:href="#b" transform="matrix(1,0,0,1,593.5917602996252,245.99176029962547) translate(0 14.4)"/><path d="M135 328h100v80H135z" stroke="#d2d3d3" stroke-width="2" fill="#fff"/><use xlink:href="#f" transform="matrix(1,0,0,1,140,333) translate(4.574999999999996 27.799999999999997)"/><use xlink:href="#g" transform="matrix(1,0,0,1,140,333) translate(53.525 27.799999999999997)"/><use xlink:href="#h" transform="matrix(1,0,0,1,140,333) translate(26.65 49.4)"/><path d="M145.54 440.78l-19.14 14.8-1.22-1.58 20.36-15.75zm39.28-30.38l-27.28 21.1v-2.53l26.06-20.15z"/><path d="M184.8 410.42l-1.1-1.42h2.93zM126.3 455.4h-2.93l1.83-1.42z"/><use xlink:href="#b" transform="matrix(1,0,0,1,145.53658536585368,424.07837398373977) translate(0 14.4)"/><path d="M75 455.4h100v74.8H75z" stroke="#000" stroke-opacity="0" stroke-width="2" fill="#fff"/><use xlink:href="#i" transform="matrix(1,0,0,1,80,460.3999999999999) translate(12.049999999999997 25.299999999999997)"/><use xlink:href="#j" transform="matrix(1,0,0,1,80,460.3999999999999) translate(21.525 46.9)"/><path d="M244.82 454l-1.22 1.58-25.95-20.07V433zm-40.12-31.03v2.53l-19.52-15.1 1.22-1.58z"/><path d="M185.2 410.42l-1.83-1.42h2.93zM246.63 455.4h-2.93l1.1-1.42z"/><use xlink:href="#c" transform="matrix(1,0,0,1,204.7014705882353,418.4431372549019) translate(0.004999999999999893 14.4)"/><path d="M195 455.4h100v60H195z" stroke="#000" stroke-opacity="0" stroke-width="2" fill="#fff"/><use xlink:href="#k" transform="matrix(1,0,0,1,200,460.3999999999999) translate(10.549999999999997 17.799999999999997)"/><use xlink:href="#l" transform="matrix(1,0,0,1,200,460.3999999999999) translate(23.025 39.4)"/><path d="M1009.37 256.73l-.64 1.9-62.25-20.9v-2.1zm-75.85-25.46v2.1l-62.9-21.1.65-1.9z"/><path d="M870.65 212.27l-3.8-1.27h4.23zM1013.14 258h-4.22l.43-1.27z"/><use xlink:href="#c" transform="matrix(1,0,0,1,933.525,223.7) translate(0.004999999999999893 14.4)"/><path d="M980 259h60v60h-60z" stroke="#d2d3d3" stroke-width="2" fill="#fff"/><use xlink:href="#m" transform="matrix(1,0,0,1,985,264) translate(15 28.6)"/><path d="M711.5 380.6l-285.32 56.93-.4-1.96 285.72-57.02zm297.72-59.42L723.5 378.2v-2.04l285.32-56.94z"/><path d="M1013.14 320.4l-3.95.78-.25-1.18h4.1zM426.05 436.75h-4.1l-.1-.4 3.96-.78z"/><use xlink:href="#b" transform="matrix(1,0,0,1,711.5,367.57499999999993) translate(0.004999999999999893 14.4)"/><path d="M365 437.75h120v40H365z" stroke="#d2d3d3" stroke-width="2" fill="#fff"/><use xlink:href="#n" transform="matrix(1,0,0,1,370,442.7499999999999) translate(6.125 18.6)"/><use xlink:href="#o" transform="matrix(1,0,0,1,370,442.7499999999999) translate(78.075 18.6)"/><path d="M1219.42 397.7l-.7 1.88-120.76-45.42v-2.14zm-134.4-50.55v2.14l-74.44-28 .7-1.88z"/><path d="M1010.6 321.3l-3.44-1.3h3.94zM1222.84 399h-3.94l.5-1.3z"/><use xlink:href="#c" transform="matrix(1,0,0,1,1085.0121794871795,339.8547008547008) translate(0.004999999999999893 14.4)"/><path d="M1180 400h80v60h-80z" stroke="#d2d3d3" stroke-width="2" fill="#fff"/><use xlink:href="#p" transform="matrix(1,0,0,1,1185,405) translate(25 28.6)"/><path d="M380.72 501.4L336.34 523l-.88-1.8 45.26-22zm43.82-21.3l-31.82 15.47v-2.22l30.94-15.06z"/><path d="M424.52 480.1l-.66-1.35h3.43zM336.14 522.55h-3.43l2.78-1.35z"/><use xlink:href="#b" transform="matrix(1,0,0,1,380.7171481826654,486.580987884436) translate(0.004999999999999893 14.4)"/><path d="M275 523.55h120v60H275z" stroke="#d2d3d3" stroke-width="2" fill="#fff"/><use xlink:href="#f" transform="matrix(1,0,0,1,280,528.5499999999998) translate(21.549999999999997 18.299999999999997)"/><use xlink:href="#q" transform="matrix(1,0,0,1,280,528.5499999999998) translate(70.5 18.299999999999997)"/><use xlink:href="#r" transform="matrix(1,0,0,1,280,528.5499999999998) translate(7 39.9)"/><path d="M299 624.9l-22.6 24.4-1.45-1.36L299 621.96zm36.05-38.94L311 611.94V609l22.6-24.4z"/><path d="M335.04 585.98l-1.47-1.36 2.8-.07zM276.43 649.28l-2.8.07 1.33-1.43z"/><use xlink:href="#b" transform="matrix(1,0,0,1,299,606.1499999999999) translate(0.004999999999999893 14.4)"/><path d="M375.33 647.97l-1.7 1.05-15.5-25.08h1v-2.2zm-28.17-45.63h-1v2.2l-11.5-18.6 1.72-1.06z"/><path d="M336.4 584.9l-1.7 1.05-.88-1.4h2.36zM376.18 649.35h-2.36l-.2-.35 1.7-1.05z"/><use xlink:href="#c" transform="matrix(1,0,0,1,346.1731896827939,602.3400672861261) translate(0.004999999999999893 14.4)"/><path d="M235 649.35h80v60h-80z" stroke="#000" stroke-opacity="0" stroke-width="2" fill="#fff"/><use xlink:href="#s" transform="matrix(1,0,0,1,240,654.3499999999999) translate(13.524999999999999 17.799999999999997)"/><use xlink:href="#t" transform="matrix(1,0,0,1,240,654.3499999999999) translate(5.024999999999999 39.4)"/><path d="M335 649.35h80v60h-80z" stroke="#000" stroke-opacity="0" stroke-width="2" fill="#fff"/><use xlink:href="#k" transform="matrix(1,0,0,1,340,654.3499999999999) translate(0.5499999999999972 17.799999999999997)"/><use xlink:href="#t" transform="matrix(1,0,0,1,340,654.3499999999999) translate(5.024999999999999 39.4)"/><path d="M515.05 574.34l-1.46 1.36-27.86-30.02v-2.94zm-42.26-45.56v2.94l-47.85-51.56 1.46-1.36z"/><path d="M426.43 478.82l-1.47 1.36-1.32-1.43h2.72zM516.36 575.75h-2.72l1.4-1.43z"/><use xlink:href="#c" transform="matrix(1,0,0,1,472.7875264643613,526.4329451893672) translate(0.004999999999999893 14.4)"/><path d="M455 576.75h120v60H455z" stroke="#d2d3d3" stroke-width="2" fill="#fff"/><use xlink:href="#u" transform="matrix(1,0,0,1,460,581.7499999999999) translate(6.924999999999997 28.6)"/><use xlink:href="#v" transform="matrix(1,0,0,1,460,581.7499999999999) translate(50.925 28.6)"/><use xlink:href="#w" transform="matrix(1,0,0,1,460,581.7499999999999) translate(69.875 28.6)"/><path d="M595.1 727.94l-1.5 1.3-32.13-36.76v-3.04zm-46.58-53.32v3.04l-33.62-38.5 1.5-1.3z"/><path d="M516.43 637.86l-1.5 1.32-1.26-1.43h2.66zM596.33 729.35h-2.66l-.1-.1 1.5-1.33z"/><use xlink:href="#c" transform="matrix(1,0,0,1,548.525,672.75) translate(0.004999999999999893 14.4)"/><path d="M469 698.92l-22.6 29.25-1.58-1.22 24.18-31.3zm46.18-59.77L481 683.4v-3.28l32.6-42.2z"/><path d="M515.16 639.17l-1.58-1.22.16-.2h2.52zM446.42 728.15l-.16.2h-2.52l1.1-1.42z"/><use xlink:href="#b" transform="matrix(1,0,0,1,469.00373106484585,678.7165995074994) translate(0.004999999999999893 14.4)"/><path d="M375 729.35h140v47.4H375z" stroke="#d2d3d3" stroke-width="2" fill="#fff"/><use xlink:href="#x" transform="matrix(1,0,0,1,380,734.3499999999999) translate(29.049999999999997 14.4)"/><use xlink:href="#q" transform="matrix(1,0,0,1,380,734.3499999999999) translate(83 14.4)"/><use xlink:href="#r" transform="matrix(1,0,0,1,380,734.3499999999999) translate(17 36)"/><path d="M535 729.35h120v67.4H535z" stroke="#000" stroke-opacity="0" stroke-width="2" fill="#fff"/><use xlink:href="#k" transform="matrix(1,0,0,1,540,734.3499999999999) translate(20.549999999999997 14.4)"/><use xlink:href="#y" transform="matrix(1,0,0,1,540,734.3499999999999) translate(-5.400000000000006 36)"/><use xlink:href="#l" transform="matrix(1,0,0,1,540,734.3499999999999) translate(33.025 57.6)"/><path d="M404 825.53l-27.6 31.13-1.5-1.32L404 822.5zm41.1-46.37L416 812v-3.03l27.6-31.13z"/><path d="M445.07 779.18l-1.5-1.33.1-.1h2.67zM376.43 856.65l-.1.1h-2.67l1.27-1.43z"/><use xlink:href="#b" transform="matrix(1,0,0,1,404,806.45) translate(0.004999999999999893 14.4)"/><path d="M515.1 855.34l-1.5 1.32-23.4-26.4v-3zm-37.86-42.7v3l-32.33-36.48 1.5-1.32z"/><path d="M446.43 777.85l-1.5 1.33-1.27-1.43h2.68zM516.34 856.75h-2.68l-.1-.1 1.5-1.33z"/><use xlink:href="#c" transform="matrix(1,0,0,1,477.24354710827873,810.6466460222002) translate(0.004999999999999893 14.4)"/><path d="M455 856.75h120v67.4H455z" stroke="#000" stroke-opacity="0" stroke-width="2" fill="#fff"/><use xlink:href="#k" transform="matrix(1,0,0,1,460,861.7499999999998) translate(20.549999999999997 21.799999999999997)"/><use xlink:href="#z" transform="matrix(1,0,0,1,460,861.7499999999998) translate(31.5 43.4)"/><path d="M315 856.75h120v67.4H315z" stroke="#000" stroke-opacity="0" stroke-width="2" fill="#fff"/><use xlink:href="#A" transform="matrix(1,0,0,1,320,861.75) translate(7.524999999999999 32.6)"/><use xlink:href="#z" transform="matrix(1,0,0,1,320,861.75) translate(55.475 32.6)"/><path d="M898.1 534.18L681.2 582.8l-.44-1.94 217.34-48.73zm321.14-72L910.1 531.5v-2.04l308.7-69.2z"/><path d="M1223.15 461.32l-3.93.88-.27-1.2h4.12zM681.05 582.05h-4.12l-.08-.32 3.93-.88z"/><use xlink:href="#b" transform="matrix(1,0,0,1,898.1039401214521,521.0133667561079) translate(0.004999999999999893 14.4)"/><path d="M1148.53 551.14l-57.12 70.76-1.55-1.26 58.68-72.7zm71.62-88.73l-58.68 72.7v-3.2l57.12-70.75z"/><path d="M1220.13 462.43l-1.55-1.26.13-.17h2.6zM1091.42 621.88l-.13.17h-2.6l1.17-1.43z"/><use xlink:href="#c" transform="matrix(1,0,0,1,1148.525,530.7250000000001) translate(0.004999999999999893 14.4)"/><path d="M515.05 574.34l-1.46 1.36-27.86-30.02v-2.94zm-42.26-45.56v2.94l-47.85-51.56 1.46-1.36z"/><path d="M426.43 478.82l-1.47 1.36-.7-.75 1.47-1.36zM516.36 575.75h-2.72l1.4-1.43z"/><use xlink:href="#c" transform="matrix(1,0,0,1,472.7875264643613,526.4329451893672) translate(0.004999999999999893 14.4)"/><path d="M620 583.05h120v40H620z" stroke="#d2d3d3" stroke-width="2" fill="#fff"/><use xlink:href="#n" transform="matrix(1,0,0,1,625,588.0500000000001) translate(6.125 18.6)"/><use xlink:href="#o" transform="matrix(1,0,0,1,625,588.0500000000001) translate(78.075 18.6)"/><path d="M1050 623.05h80v60h-80z" stroke="#d2d3d3" stroke-width="2" fill="#fff"/><use xlink:href="#B" transform="matrix(1,0,0,1,1055,628.0500000000001) translate(25 28.6)"/><path d="M681 802.5h-2v-77.92h2zm0-99.52h-2v-77.93h2z"/><path d="M681 625.08h-2v-1.03h2zM681 803.5h-2v-1.03h2z"/><use xlink:href="#b" transform="matrix(1,0,0,1,674,702.9750000000001) translate(0.004999999999999893 14.4)"/><path d="M869.58 722.1l-.93 1.77-87.17-45.6V676zm-101.06-52.87v2.26l-88.1-46.1.93-1.77z"/><path d="M680.45 625.4l-2.6-1.35h3.3zM872.16 723.45h-3.32l.7-1.36z"/><use xlink:href="#c" transform="matrix(1,0,0,1,768.525,662.95) translate(0.004999999999999893 14.4)"/><path d="M820 724.45h100v60H820z" stroke="#d2d3d3" stroke-width="2" fill="#fff"/><use xlink:href="#f" transform="matrix(1,0,0,1,825,729.45) translate(4.574999999999996 17.799999999999997)"/><use xlink:href="#g" transform="matrix(1,0,0,1,825,729.45) translate(53.525 17.799999999999997)"/><use xlink:href="#h" transform="matrix(1,0,0,1,825,729.45) translate(26.65 39.4)"/><path d="M829.2 826.97l-17.8 17.5-1.4-1.43 19.2-18.88zm40.8-40.1l-28.8 28.3v-2.8l27.4-26.93z"/><path d="M869.97 786.88l-1.4-1.42h2.86zM811.43 844.44h-2.86l1.46-1.42z"/><use xlink:href="#b" transform="matrix(1,0,0,1,829.2054794520548,808.8646118721463) translate(0.004999999999999893 14.4)"/><path d="M959.74 845.66l-1.13 1.65-26.24-17.96v-2.42zm-40.33-27.6v2.42l-49.14-33.64 1.13-1.65z"/><path d="M870.28 786.85l-2.05-1.4h3zM961.77 847.05h-3l.95-1.4z"/><use xlink:href="#c" transform="matrix(1,0,0,1,919.4054585855982,812.8970694319207) translate(0.004999999999999893 14.4)"/><path d="M760 844.45h100v60H760z" stroke="#000" stroke-opacity="0" stroke-width="2" fill="#fff"/><use xlink:href="#C" transform="matrix(1,0,0,1,765,849.45) translate(3.5249999999999986 17.799999999999997)"/><use xlink:href="#j" transform="matrix(1,0,0,1,765,849.45) translate(21.525 39.4)"/><path d="M880 847.05h160v77.1H880z" stroke="#000" stroke-opacity="0" stroke-width="2" fill="#fff"/><use xlink:href="#D" transform="matrix(1,0,0,1,885,852.0500000000001) translate(6.625 16)"/><use xlink:href="#E" transform="matrix(1,0,0,1,885,852.0500000000001) translate(80.525 16)"/><use xlink:href="#y" transform="matrix(1,0,0,1,885,852.0500000000001) translate(14.599999999999994 37.6)"/><use xlink:href="#F" transform="matrix(1,0,0,1,885,852.0500000000001) translate(6.025000000000006 59.2)"/><use xlink:href="#G" transform="matrix(1,0,0,1,885,852.0500000000001) translate(54.97500000000001 59.2)"/><use xlink:href="#H" transform="matrix(1,0,0,1,885,852.0500000000001) translate(89.97500000000001 59.2)"/><path d="M1091 792.95h-2V749.8h2zm0-64.75h-2v-43.15h2z"/><path d="M1091 685.08h-2v-1.03h2zM1091 793.95h-2v-1.03h2z"/><use xlink:href="#b" transform="matrix(1,0,0,1,1084,728.2) translate(0.004999999999999893 14.4)"/><path d="M1359.34 766.75l-.6 1.9-127.27-39.56V727zm-140.8-43.8v2.1l-127.88-39.75.6-1.9z"/><path d="M1090.68 685.3l-3.84-1.2 4.23-.05zM1363.16 767.94l-4.23.06.4-1.26z"/><use xlink:href="#c" transform="matrix(1,0,0,1,1218.525,715.2250000000001) translate(0.004999999999999893 14.4)"/><path d="M1030 794.95h120v40h-120z" stroke="#d2d3d3" stroke-width="2" fill="#fff"/><use xlink:href="#n" transform="matrix(1,0,0,1,1035,799.9499999999999) translate(6.125 18.6)"/><use xlink:href="#o" transform="matrix(1,0,0,1,1035,799.9499999999999) translate(78.075 18.6)"/><path d="M620 804.5h120v60H620z" stroke="#d2d3d3" stroke-width="2" fill="#fff"/><use xlink:href="#u" transform="matrix(1,0,0,1,625,809.5000000000002) translate(6.924999999999997 28.6)"/><use xlink:href="#v" transform="matrix(1,0,0,1,625,809.5000000000002) translate(50.925 28.6)"/><use xlink:href="#w" transform="matrix(1,0,0,1,625,809.5000000000002) translate(69.875 28.6)"/><path d="M644 935h1.6l-24.25 47.46-1.8-.9L644 933.73zm36.44-68.15L656 914.65v-1.25h-1.6l24.25-47.46z"/><path d="M680.42 866.87l-1.78-.9.24-.47h2.24zM621.36 982.44l-.24.46h-2.24l.7-1.37z"/><use xlink:href="#b" transform="matrix(1,0,0,1,644,913.4000000000003) translate(0.004999999999999893 14.4)"/><path d="M740.45 984.76l-1.8.9-19.9-40.06h2.2v-.03zM710.22 924h-2.2v.04l-28.47-57.2 1.8-.9z"/><path d="M681.35 865.97l-1.8.9-.67-1.37h2.24zM741.12 986.1h-2.24l-.23-.47 1.8-.9z"/><use xlink:href="#c" transform="matrix(1,0,0,1,708.0050020249948,924.00480407024) translate(0.004999999999999893 14.4)"/><path d="M560 982.9h120v96.4H560z" stroke="#000" stroke-opacity="0" stroke-width="2" fill="#fff"/><use xlink:href="#I" transform="matrix(1,0,0,1,565,987.9000000000003) translate(20.549999999999997 14.69999999999999)"/><use xlink:href="#J" transform="matrix(1,0,0,1,565,987.9000000000003) translate(7.524999999999999 36.29999999999999)"/><use xlink:href="#K" transform="matrix(1,0,0,1,565,987.9000000000003) translate(72.475 36.29999999999999)"/><use xlink:href="#L" transform="matrix(1,0,0,1,565,987.9000000000003) translate(14 57.89999999999999)"/><use xlink:href="#M" transform="matrix(1,0,0,1,565,987.9000000000003) translate(66 57.89999999999999)"/><use xlink:href="#N" transform="matrix(1,0,0,1,565,987.9000000000003) translate(28.775 79.5)"/><path d="M680 986.1h120v67.4H680z" stroke="#000" stroke-opacity="0" stroke-width="2" fill="#fff"/><use xlink:href="#k" transform="matrix(1,0,0,1,685,991.1000000000003) translate(20.549999999999997 14.4)"/><use xlink:href="#y" transform="matrix(1,0,0,1,685,991.1000000000003) translate(-5.400000000000006 36)"/><use xlink:href="#J" transform="matrix(1,0,0,1,685,991.1000000000003) translate(7.524999999999999 57.6)"/><use xlink:href="#O" transform="matrix(1,0,0,1,685,991.1000000000003) translate(72.475 57.6)"/><use xlink:href="#P" transform="matrix(1,0,0,1,685,991.1000000000003) translate(29.025 79.20000000000002)"/><path d="M1339.84 1033.54l-1.25 1.57-144.87-115.3v-2.56zm-159.06-126.6v2.55l-90.62-72.14 1.25-1.57z"/><path d="M1090.18 837.37l-1.8-1.42h2.93zM1341.6 1034.95h-2.9l1.12-1.42z"/><use xlink:href="#c" transform="matrix(1,0,0,1,1180.7838728143704,902.5680627602387) translate(0.004999999999999893 14.4)"/><path d="M1091 931.45h-2V895h2zm0-58.05h-2v-36.45h2z"/><path d="M1091 836.98h-2v-1.03h2zM1091 932.45h-2v-1.03h2z"/><use xlink:href="#b" transform="matrix(1,0,0,1,1084,873.4000000000001) translate(0.004999999999999893 14.4)"/><path d="M1020 933.45h140v40.3h-140z" stroke="#d2d3d3" stroke-width="2" fill="#fff"/><use xlink:href="#Q" transform="matrix(1,0,0,1,1025,938.4500000000003) translate(19.892592592592592 18.87777777777778)"/><use xlink:href="#R" transform="matrix(1,0,0,1,1025,938.4500000000003) translate(61.17654320987655 18.87777777777778)"/><use xlink:href="#S" transform="matrix(1,0,0,1,1025,938.4500000000003) translate(78.9567901234568 18.87777777777778)"/><path d="M1039 1009.2l-37.62 24.54-1.1-1.67 38.72-25.25zm50.7-33.07l-38.7 25.25v-2.4l37.62-24.52z"/><path d="M1089.7 976.15l-.92-1.4h3.05zM1001.22 1033.45h-3.05l2.14-1.4z"/><g><use xlink:href="#b" transform="matrix(1,0,0,1,1039,993.3000000000002) translate(0.004999999999999893 14.4)"/></g><path d="M1179.7 1032.07l-1.08 1.67-32.24-21.02v-2.4zm-46.27-30.2v2.4l-43.14-28.14 1.08-1.67z"/><path d="M1090.3 976.15l-2.13-1.4h3.05zM1181.83 1033.45h-3.05l.9-1.4z"/><g><use xlink:href="#c" transform="matrix(1,0,0,1,1133.4293338537618,996.4987155246203) translate(0.004999999999999893 14.4)"/></g><path d="M900 1033.45h200v77.1H900z" fill="#fff" fill-opacity="0"/><g><use xlink:href="#T" transform="matrix(1,0,0,1,905,1038.45) translate(47.241975308641976 13.511111111111113)"/><use xlink:href="#U" transform="matrix(1,0,0,1,905,1038.45) translate(121.2716049382716 13.511111111111113)"/><use xlink:href="#V" transform="matrix(1,0,0,1,905,1038.45) translate(3.166666666666657 33.777777777777786)"/><use xlink:href="#W" transform="matrix(1,0,0,1,905,1038.45) translate(125.89259259259259 33.777777777777786)"/><use xlink:href="#X" transform="matrix(1,0,0,1,905,1038.45) translate(35.419753086419746 54.04444444444445)"/><use xlink:href="#Y" transform="matrix(1,0,0,1,905,1038.45) translate(68.25925925925927 54.04444444444445)"/><use xlink:href="#Z" transform="matrix(1,0,0,1,905,1038.45) translate(121.74074074074075 54.04444444444445)"/><use xlink:href="#aa" transform="matrix(1,0,0,1,905,1038.45) translate(65.70246913580246 74.31111111111113)"/></g><path d="M1060 1033.45h240v77.1h-240z" fill="#fff" fill-opacity="0"/><g><use xlink:href="#T" transform="matrix(1,0,0,1,1065,1038.45) translate(46.154320987654316 13.511111111111113)"/><use xlink:href="#ab" transform="matrix(1,0,0,1,1065,1038.45) translate(120.18395061728394 13.511111111111113)"/><use xlink:href="#ac" transform="matrix(1,0,0,1,1065,1038.45) translate(151.05308641975307 13.511111111111113)"/><use xlink:href="#V" transform="matrix(1,0,0,1,1065,1038.45) translate(39.562962962962956 33.777777777777786)"/><use xlink:href="#ad" transform="matrix(1,0,0,1,1065,1038.45) translate(162.2888888888889 33.777777777777786)"/><use xlink:href="#ae" transform="matrix(1,0,0,1,1065,1038.45) translate(65.7641975308642 54.04444444444445)"/><use xlink:href="#Z" transform="matrix(1,0,0,1,1065,1038.45) translate(131.3962962962963 54.04444444444445)"/><use xlink:href="#af" transform="matrix(1,0,0,1,1065,1038.45) translate(85.44444444444444 74.31111111111113)"/><use xlink:href="#ag" transform="matrix(1,0,0,1,1065,1038.45) translate(115 94.57777777777778)"/></g><path d="M1280 1034.95h120v40.3h-120z" stroke="#000" stroke-opacity="0" stroke-width="2" fill="#fff"/><g><use xlink:href="#ah" transform="matrix(1,0,0,1,1285,1039.9499999999998) translate(3.324691358024694 18.87777777777778)"/><use xlink:href="#ai" transform="matrix(1,0,0,1,1285,1039.9499999999998) translate(75.5246913580247 18.87777777777778)"/></g><path d="M1300 769h120v40h-120z" stroke="#d2d3d3" stroke-width="2" fill="#fff"/><g><use xlink:href="#n" transform="matrix(1,0,0,1,1305,774) translate(2.424999999999997 18.6)"/><use xlink:href="#aj" transform="matrix(1,0,0,1,1305,774) translate(74.375 18.6)"/></g><path d="M1336.3 868.47l-1.83-.78 7.37-17.4h2.17zm24.23-57.16l-7.37 17.4H1351l7.7-18.17z"/><path d="M1360.52 811.33l-1.84-.78.23-.55h2.2zM1336.32 868.45l-.23.55h-2.2l.58-1.33z"/><g><use xlink:href="#b" transform="matrix(1,0,0,1,1341.5,828.7) translate(0.004999999999999893 14.4)"/></g><path d="M1240 869h190v87.4h-190z" stroke="#000" stroke-opacity="0" stroke-width="2" fill="#fff"/><g><use xlink:href="#A" transform="matrix(1,0,0,1,1245,874) translate(33.55 21)"/><use xlink:href="#ak" transform="matrix(1,0,0,1,1245,874) translate(81.5 21)"/><use xlink:href="#al" transform="matrix(1,0,0,1,1245,874) translate(1.5750000000000028 42.6)"/><use xlink:href="#am" transform="matrix(1,0,0,1,1245,874) translate(91.425 42.6)"/><use xlink:href="#an" transform="matrix(1,0,0,1,1245,874) translate(126.425 42.6)"/><use xlink:href="#ao" transform="matrix(1,0,0,1,1245,874) translate(35.5 64.2)"/><use xlink:href="#ap" transform="matrix(1,0,0,1,1245,874) translate(75.5 64.2)"/></g><path d="M1524.56 892.85l-.9 1.8-74.7-38.12v-2.25zm-88.53-45.18v2.25l-75.6-38.57.92-1.8z"/><path d="M1360.46 811.36l-2.66-1.36h3.35zM1527.2 894.2h-3.35l.7-1.36z"/><g><use xlink:href="#c" transform="matrix(1,0,0,1,1436.025,841.3000000000001) translate(0.004999999999999893 14.4)"/></g><path d="M1430 894.2h190v118h-190z" stroke="#000" stroke-opacity="0" stroke-width="2" fill="#fff"/><g><use xlink:href="#aq" transform="matrix(1,0,0,1,1435,899.2) translate(14.125 14.899999999999993)"/><use xlink:href="#ar" transform="matrix(1,0,0,1,1435,899.2) translate(103.025 14.899999999999993)"/><use xlink:href="#y" transform="matrix(1,0,0,1,1435,899.2) translate(29.599999999999994 36.49999999999999)"/><use xlink:href="#as" transform="matrix(1,0,0,1,1435,899.2) translate(40.025 58.099999999999994)"/><use xlink:href="#K" transform="matrix(1,0,0,1,1435,899.2) translate(109.975 58.099999999999994)"/><use xlink:href="#at" transform="matrix(1,0,0,1,1435,899.2) translate(20.525000000000006 79.70000000000002)"/><use xlink:href="#ao" transform="matrix(1,0,0,1,1435,899.2) translate(33.5 101.30000000000001)"/><use xlink:href="#au" transform="matrix(1,0,0,1,1435,899.2) translate(73.5 101.30000000000001)"/></g><path d="M1320.72 1114.12h2l-11.4 24.05-1.8-.85 11.2-23.65zm19.76-37.54l-7.76 16.4v-.46h-2l7.95-16.8z"/><path d="M1340.47 1076.6l-1.8-.85.22-.5h2.2zM1311.34 1138.15l-.23.5h-2.2l.63-1.35z"/><g><use xlink:href="#b" transform="matrix(1,0,0,1,1320.715448111689,1092.5246863239638) translate(0.004999999999999893 14.4)"/></g><path d="M1240 1138.65h140v62.77h-140z" fill="#fff" fill-opacity="0"/><g><use xlink:href="#av" transform="matrix(1,0,0,1,1245,1143.65) translate(5.544444444444437 13.511111111111113)"/><use xlink:href="#aw" transform="matrix(1,0,0,1,1245,1143.65) translate(50.53456790123457 13.511111111111113)"/><use xlink:href="#ax" transform="matrix(1,0,0,1,1245,1143.65) translate(18.820987654320987 33.777777777777786)"/><use xlink:href="#ay" transform="matrix(1,0,0,1,1245,1143.65) translate(56.351851851851855 33.777777777777786)"/></g><path d="M1450.06 1137.24l-1.47 1.35-21.3-23.14v-2.95zm-35.7-38.8v2.95l-22.75-24.74 1.48-1.35z"/><path d="M1393.1 1075.33l-1.47 1.35-1.32-1.43h2.73zM1451.36 1138.65h-2.72l1.4-1.43z"/><g><use xlink:href="#c" transform="matrix(1,0,0,1,1414.3583333333336,1096.15) translate(0.004999999999999893 14.4)"/></g><path d="M1400 1138.65h100v60h-100z" stroke="#000" stroke-opacity="0" stroke-width="2" fill="#fff"/><g><use xlink:href="#az" transform="matrix(1,0,0,1,1405,1143.65) translate(40 28.6)"/></g><defs><path d="M101-251c82-7 93 87 43 132L82-64C71-53 59-42 53-27h129V0H18c2-99 128-94 128-182 0-28-16-43-45-43s-46 15-49 41l-32-3c6-41 34-60 81-64" id="aA"/><path d="M103-251c84 0 111 97 45 133-19 10-37 24-39 52H78c0-63 77-55 77-114 0-30-21-42-52-43-32 0-53 17-56 46l-32-2c7-45 34-72 88-72zM77 0v-35h34V0H77" id="aB"/><g id="a"><use transform="matrix(0.05,0,0,0.05,0,0)" xlink:href="#aA"/><use transform="matrix(0.05,0,0,0.05,10,0)" xlink:href="#aB"/></g><path d="M137-103V0h-34v-103L8-248h37l75 118 75-118h37" id="aC"/><use transform="matrix(0.05,0,0,0.05,0,0)" xlink:href="#aC" id="b"/><path d="M190 0L58-211 59 0H30v-248h39L202-35l-2-213h31V0h-41" id="aD"/><use transform="matrix(0.05,0,0,0.05,0,0)" xlink:href="#aD" id="c"/><path d="M30-248c87 1 191-15 191 75 0 78-77 80-158 76V0H30v-248zm33 125c57 0 124 11 124-50 0-59-68-47-124-48v98" id="aE"/><path d="M141-36C126-15 110 5 73 4 37 3 15-17 15-53c-1-64 63-63 125-63 3-35-9-54-41-54-24 1-41 7-42 31l-33-3c5-37 33-52 76-52 45 0 72 20 72 64v82c-1 20 7 32 28 27v20c-31 9-61-2-59-35zM48-53c0 20 12 33 32 33 41-3 63-29 60-74-43 2-92-5-92 41" id="aF"/><path d="M206 0h-36l-40-164L89 0H53L-1-190h32L70-26l43-164h34l41 164 42-164h31" id="aG"/><path d="M117-194c89-4 53 116 60 194h-32v-121c0-31-8-49-39-48C34-167 62-67 57 0H25l-1-190h30c1 10-1 24 2 32 11-22 29-35 61-36" id="aH"/><g id="d"><use transform="matrix(0.05,0,0,0.05,0,0)" xlink:href="#aE"/><use transform="matrix(0.05,0,0,0.05,12,0)" xlink:href="#aF"/><use transform="matrix(0.05,0,0,0.05,22,0)" xlink:href="#aG"/><use transform="matrix(0.05,0,0,0.05,34.95,0)" xlink:href="#aH"/></g><path d="M126-127c33 6 58 20 58 59 0 88-139 92-164 29-3-8-5-16-6-25l32-3c6 27 21 44 54 44 32 0 52-15 52-46 0-38-36-46-79-43v-28c39 1 72-4 72-42 0-27-17-43-46-43-28 0-47 15-49 41l-32-3c6-42 35-63 81-64 48-1 79 21 79 65 0 36-21 52-52 59" id="aI"/><g id="e"><use transform="matrix(0.05,0,0,0.05,0,0)" xlink:href="#aI"/><use transform="matrix(0.05,0,0,0.05,10,0)" xlink:href="#aB"/></g><path d="M135-143c-3-34-86-38-87 0 15 53 115 12 119 90S17 21 10-45l28-5c4 36 97 45 98 0-10-56-113-15-118-90-4-57 82-63 122-42 12 7 21 19 24 35" id="aJ"/><path d="M59-47c-2 24 18 29 38 22v24C64 9 27 4 27-40v-127H5v-23h24l9-43h21v43h35v23H59v120" id="aK"/><path d="M114-163C36-179 61-72 57 0H25l-1-190h30c1 12-1 29 2 39 6-27 23-49 58-41v29" id="aL"/><g id="f"><use transform="matrix(0.05,0,0,0.05,0,0)" xlink:href="#aJ"/><use transform="matrix(0.05,0,0,0.05,9,0)" xlink:href="#aK"/><use transform="matrix(0.05,0,0,0.05,14,0)" xlink:href="#aF"/><use transform="matrix(0.05,0,0,0.05,24,0)" xlink:href="#aL"/><use transform="matrix(0.05,0,0,0.05,29.950000000000003,0)" xlink:href="#aK"/><use transform="matrix(0.05,0,0,0.05,34.95,0)" xlink:href="#aJ"/></g><path d="M24-231v-30h32v30H24zM24 0v-190h32V0H24" id="aM"/><path d="M106-169C34-169 62-67 57 0H25v-261h32l-1 103c12-21 28-36 61-36 89 0 53 116 60 194h-32v-121c2-32-8-49-39-48" id="aN"/><g id="g"><use transform="matrix(0.05,0,0,0.05,0,0)" xlink:href="#aG"/><use transform="matrix(0.05,0,0,0.05,12.950000000000001,0)" xlink:href="#aM"/><use transform="matrix(0.05,0,0,0.05,16.900000000000002,0)" xlink:href="#aK"/><use transform="matrix(0.05,0,0,0.05,21.900000000000002,0)" xlink:href="#aN"/></g><path d="M109-170H84l-4-78h32zm-65 0H19l-4-78h33" id="aO"/><path d="M140-251c81 0 123 46 123 126C263-46 219 4 140 4 59 4 17-45 17-125s42-126 123-126zm0 227c63 0 89-41 89-101s-29-99-89-99c-61 0-89 39-89 99S79-25 140-24" id="aP"/><g id="h"><use transform="matrix(0.05,0,0,0.05,0,0)" xlink:href="#aO"/><use transform="matrix(0.05,0,0,0.05,6.3500000000000005,0)" xlink:href="#aP"/><use transform="matrix(0.05,0,0,0.05,20.35,0)" xlink:href="#aO"/><use transform="matrix(0.05,0,0,0.05,26.700000000000003,0)" xlink:href="#aB"/></g><path d="M143 0L79-87 56-68V0H24v-261h32v163l83-92h37l-77 82L181 0h-38" id="aQ"/><path d="M177-190C167-65 218 103 67 71c-23-6-38-20-44-43l32-5c15 47 100 32 89-28v-30C133-14 115 1 83 1 29 1 15-40 15-95c0-56 16-97 71-98 29-1 48 16 59 35 1-10 0-23 2-32h30zM94-22c36 0 50-32 50-73 0-42-14-75-50-75-39 0-46 34-46 75s6 73 46 73" id="aR"/><path d="M85-194c31 0 48 13 60 33l-1-100h32l1 261h-30c-2-10 0-23-3-31C134-8 116 4 85 4 32 4 16-35 15-94c0-66 23-100 70-100zm9 24c-40 0-46 34-46 75 0 40 6 74 45 74 42 0 51-32 51-76 0-42-9-74-50-73" id="aS"/><path d="M100-194c63 0 86 42 84 106H49c0 40 14 67 53 68 26 1 43-12 49-29l28 8c-11 28-37 45-77 45C44 4 14-33 15-96c1-61 26-98 85-98zm52 81c6-60-76-77-97-28-3 7-6 17-6 28h103" id="aT"/><g id="i"><use transform="matrix(0.05,0,0,0.05,0,0)" xlink:href="#aQ"/><use transform="matrix(0.05,0,0,0.05,9,0)" xlink:href="#aM"/><use transform="matrix(0.05,0,0,0.05,12.949999999999998,0)" xlink:href="#aH"/><use transform="matrix(0.05,0,0,0.05,22.95,0)" xlink:href="#aR"/><use transform="matrix(0.05,0,0,0.05,32.95,0)" xlink:href="#aJ"/><use transform="matrix(0.05,0,0,0.05,41.95,0)" xlink:href="#aM"/><use transform="matrix(0.05,0,0,0.05,45.900000000000006,0)" xlink:href="#aS"/><use transform="matrix(0.05,0,0,0.05,55.900000000000006,0)" xlink:href="#aT"/></g><path d="M96-169c-40 0-48 33-48 73s9 75 48 75c24 0 41-14 43-38l32 2c-6 37-31 61-74 61-59 0-76-41-82-99-10-93 101-131 147-64 4 7 5 14 7 22l-32 3c-4-21-16-35-41-35" id="aU"/><path d="M24 0v-261h32V0H24" id="aV"/><g id="j"><use transform="matrix(0.05,0,0,0.05,0,0)" xlink:href="#aU"/><use transform="matrix(0.05,0,0,0.05,9,0)" xlink:href="#aF"/><use transform="matrix(0.05,0,0,0.05,19,0)" xlink:href="#aJ"/><use transform="matrix(0.05,0,0,0.05,28,0)" xlink:href="#aK"/><use transform="matrix(0.05,0,0,0.05,33,0)" xlink:href="#aV"/><use transform="matrix(0.05,0,0,0.05,36.95,0)" xlink:href="#aT"/></g><path d="M100-194c62-1 85 37 85 99 1 63-27 99-86 99S16-35 15-95c0-66 28-99 85-99zM99-20c44 1 53-31 53-75 0-43-8-75-51-75s-53 32-53 75 10 74 51 75" id="aW"/><path d="M16-82v-28h88v28H16" id="aX"/><path d="M115-194c55 1 70 41 70 98S169 2 115 4C84 4 66-9 55-30l1 105H24l-1-265h31l2 30c10-21 28-34 59-34zm-8 174c40 0 45-34 45-75s-6-73-45-74c-42 0-51 32-51 76 0 43 10 73 51 73" id="aY"/><g id="k"><use transform="matrix(0.05,0,0,0.05,0,0)" xlink:href="#aH"/><use transform="matrix(0.05,0,0,0.05,10,0)" xlink:href="#aW"/><use transform="matrix(0.05,0,0,0.05,20,0)" xlink:href="#aH"/><use transform="matrix(0.05,0,0,0.05,30,0)" xlink:href="#aX"/><use transform="matrix(0.05,0,0,0.05,35.95,0)" xlink:href="#aY"/><use transform="matrix(0.05,0,0,0.05,45.95,0)" xlink:href="#aG"/><use transform="matrix(0.05,0,0,0.05,58.900000000000006,0)" xlink:href="#aH"/></g><path d="M210-169c-67 3-38 105-44 169h-31v-121c0-29-5-50-35-48C34-165 62-65 56 0H25l-1-190h30c1 10-1 24 2 32 10-44 99-50 107 0 11-21 27-35 58-36 85-2 47 119 55 194h-31v-121c0-29-5-49-35-48" id="aZ"/><path d="M108 0H70L1-190h34L89-25l56-165h34" id="ba"/><g id="l"><use transform="matrix(0.05,0,0,0.05,0,0)" xlink:href="#aZ"/><use transform="matrix(0.05,0,0,0.05,14.950000000000001,0)" xlink:href="#aW"/><use transform="matrix(0.05,0,0,0.05,24.950000000000003,0)" xlink:href="#ba"/><use transform="matrix(0.05,0,0,0.05,33.95,0)" xlink:href="#aT"/></g><path d="M155-56V0h-30v-56H8v-25l114-167h33v167h35v25h-35zm-30-156c-27 46-58 90-88 131h88v-131" id="bb"/><g id="m"><use transform="matrix(0.05,0,0,0.05,0,0)" xlink:href="#bb"/><use transform="matrix(0.05,0,0,0.05,10,0)" xlink:href="#aB"/></g><g id="n"><use transform="matrix(0.05,0,0,0.05,0,0)" xlink:href="#aU"/><use transform="matrix(0.05,0,0,0.05,9,0)" xlink:href="#aW"/><use transform="matrix(0.05,0,0,0.05,19,0)" xlink:href="#aH"/><use transform="matrix(0.05,0,0,0.05,29,0)" xlink:href="#aK"/><use transform="matrix(0.05,0,0,0.05,34,0)" xlink:href="#aF"/><use transform="matrix(0.05,0,0,0.05,44,0)" xlink:href="#aM"/><use transform="matrix(0.05,0,0,0.05,47.95,0)" xlink:href="#aH"/><use transform="matrix(0.05,0,0,0.05,57.95,0)" xlink:href="#aJ"/></g><path d="M47-170H22l-4-78h33" id="bc"/><path d="M141 0L90-78 38 0H4l68-98-65-92h35l48 74 47-74h35l-64 92 68 98h-35" id="bd"/><g id="o"><use transform="matrix(0.05,0,0,0.05,0,0)" xlink:href="#bc"/><use transform="matrix(0.05,0,0,0.05,3.4000000000000004,0)" xlink:href="#bd"/><use transform="matrix(0.05,0,0,0.05,12.4,0)" xlink:href="#bc"/><use transform="matrix(0.05,0,0,0.05,15.8,0)" xlink:href="#aB"/></g><path d="M54-142c48-35 137-8 131 61C196 18 31 33 14-55l32-4c7 23 22 37 52 37 35-1 51-22 54-58 4-55-73-65-99-34H22l8-134h141v27H59" id="be"/><g id="p"><use transform="matrix(0.05,0,0,0.05,0,0)" xlink:href="#be"/><use transform="matrix(0.05,0,0,0.05,10,0)" xlink:href="#aB"/></g><path d="M0 4l72-265h28L28 4H0" id="bf"/><g id="q"><use transform="matrix(0.05,0,0,0.05,0,0)" xlink:href="#aG"/><use transform="matrix(0.05,0,0,0.05,12.950000000000001,0)" xlink:href="#bf"/></g><path d="M39-94c74 12-11 154 75 146v23c-44 4-70-10-70-52C44-23 55-84 6-82v-22c81 4-7-162 84-157h24v23c-82-15-2 131-75 144" id="bg"/><path d="M115-194c53 0 69 39 70 98 0 66-23 100-70 100C84 3 66-7 56-30L54 0H23l1-261h32v101c10-23 28-34 59-34zm-8 174c40 0 45-34 45-75 0-40-5-75-45-74-42 0-51 32-51 76 0 43 10 73 51 73" id="bh"/><path d="M101-234c-31-9-42 10-38 44h38v23H63V0H32v-167H5v-23h27c-7-52 17-82 69-68v24" id="bi"/><path d="M76-40C78 24 84 88 6 75V52C86 64 9-79 80-94c-40-6-34-59-34-106 1-29-11-41-40-38v-23c44-4 70 10 70 52 0 47-12 108 38 105v22c-26 1-39 14-38 42" id="bj"/><g id="r"><use transform="matrix(0.05,0,0,0.05,0,0)" xlink:href="#bg"/><use transform="matrix(0.05,0,0,0.05,6,0)" xlink:href="#aF"/><use transform="matrix(0.05,0,0,0.05,16,0)" xlink:href="#bh"/><use transform="matrix(0.05,0,0,0.05,26,0)" xlink:href="#aU"/><use transform="matrix(0.05,0,0,0.05,35,0)" xlink:href="#aS"/><use transform="matrix(0.05,0,0,0.05,45,0)" xlink:href="#aT"/><use transform="matrix(0.05,0,0,0.05,55,0)" xlink:href="#bi"/><use transform="matrix(0.05,0,0,0.05,60,0)" xlink:href="#aR"/><use transform="matrix(0.05,0,0,0.05,70,0)" xlink:href="#aN"/><use transform="matrix(0.05,0,0,0.05,80,0)" xlink:href="#bj"/><use transform="matrix(0.05,0,0,0.05,86,0)" xlink:href="#aB"/></g><g id="s"><use transform="matrix(0.05,0,0,0.05,0,0)" xlink:href="#aY"/><use transform="matrix(0.05,0,0,0.05,10,0)" xlink:href="#aF"/><use transform="matrix(0.05,0,0,0.05,20,0)" xlink:href="#aG"/><use transform="matrix(0.05,0,0,0.05,32.95,0)" xlink:href="#aH"/></g><path d="M84 4C-5 8 30-112 23-190h32v120c0 31 7 50 39 49 72-2 45-101 50-169h31l1 190h-30c-1-10 1-25-2-33-11 22-28 36-60 37" id="bk"/><g id="t"><use transform="matrix(0.05,0,0,0.05,0,0)" xlink:href="#aU"/><use transform="matrix(0.05,0,0,0.05,9,0)" xlink:href="#aF"/><use transform="matrix(0.05,0,0,0.05,19,0)" xlink:href="#aY"/><use transform="matrix(0.05,0,0,0.05,29,0)" xlink:href="#aK"/><use transform="matrix(0.05,0,0,0.05,34,0)" xlink:href="#bk"/><use transform="matrix(0.05,0,0,0.05,44,0)" xlink:href="#aL"/><use transform="matrix(0.05,0,0,0.05,49.95,0)" xlink:href="#aT"/></g><g id="u"><use transform="matrix(0.05,0,0,0.05,0,0)" xlink:href="#aT"/><use transform="matrix(0.05,0,0,0.05,10,0)" xlink:href="#aH"/><use transform="matrix(0.05,0,0,0.05,20,0)" xlink:href="#aS"/><use transform="matrix(0.05,0,0,0.05,30,0)" xlink:href="#aJ"/></g><g id="v"><use transform="matrix(0.05,0,0,0.05,0,0)" xlink:href="#aM"/><use transform="matrix(0.05,0,0,0.05,3.95,0)" xlink:href="#aH"/></g><path d="M118-107v75H92v-75H18v-26h74v-75h26v75h74v26h-74" id="bl"/><g id="w"><use transform="matrix(0.05,0,0,0.05,0,0)" xlink:href="#aO"/><use transform="matrix(0.05,0,0,0.05,6.3500000000000005,0)" xlink:href="#bl"/><use transform="matrix(0.05,0,0,0.05,16.85,0)" xlink:href="#aO"/><use transform="matrix(0.05,0,0,0.05,23.200000000000003,0)" xlink:href="#aB"/></g><g id="x"><use transform="matrix(0.05,0,0,0.05,0,0)" xlink:href="#aJ"/><use transform="matrix(0.05,0,0,0.05,9,0)" xlink:href="#aK"/><use transform="matrix(0.05,0,0,0.05,14,0)" xlink:href="#aF"/><use transform="matrix(0.05,0,0,0.05,24,0)" xlink:href="#aL"/><use transform="matrix(0.05,0,0,0.05,29.950000000000003,0)" xlink:href="#aK"/><use transform="matrix(0.05,0,0,0.05,34.95,0)" xlink:href="#aJ"/></g><g id="y"><use transform="matrix(0.05,0,0,0.05,0,0)" xlink:href="#aS"/><use transform="matrix(0.05,0,0,0.05,10,0)" xlink:href="#aM"/><use transform="matrix(0.05,0,0,0.05,13.949999999999998,0)" xlink:href="#aJ"/><use transform="matrix(0.05,0,0,0.05,22.95,0)" xlink:href="#aF"/><use transform="matrix(0.05,0,0,0.05,32.95,0)" xlink:href="#aZ"/><use transform="matrix(0.05,0,0,0.05,47.900000000000006,0)" xlink:href="#bh"/><use transform="matrix(0.05,0,0,0.05,57.900000000000006,0)" xlink:href="#aM"/><use transform="matrix(0.05,0,0,0.05,61.85,0)" xlink:href="#aR"/><use transform="matrix(0.05,0,0,0.05,71.85000000000001,0)" xlink:href="#bk"/><use transform="matrix(0.05,0,0,0.05,81.85000000000001,0)" xlink:href="#aF"/><use transform="matrix(0.05,0,0,0.05,91.85000000000001,0)" xlink:href="#aK"/><use transform="matrix(0.05,0,0,0.05,96.85000000000001,0)" xlink:href="#aM"/><use transform="matrix(0.05,0,0,0.05,100.80000000000001,0)" xlink:href="#aW"/><use transform="matrix(0.05,0,0,0.05,110.80000000000001,0)" xlink:href="#aH"/></g><g id="z"><use transform="matrix(0.05,0,0,0.05,0,0)" xlink:href="#aU"/><use transform="matrix(0.05,0,0,0.05,9,0)" xlink:href="#aN"/><use transform="matrix(0.05,0,0,0.05,19,0)" xlink:href="#aT"/><use transform="matrix(0.05,0,0,0.05,29,0)" xlink:href="#aU"/><use transform="matrix(0.05,0,0,0.05,38,0)" xlink:href="#aQ"/></g><g id="A"><use transform="matrix(0.05,0,0,0.05,0,0)" xlink:href="#aY"/><use transform="matrix(0.05,0,0,0.05,10,0)" xlink:href="#aF"/><use transform="matrix(0.05,0,0,0.05,20,0)" xlink:href="#aG"/><use transform="matrix(0.05,0,0,0.05,32.95,0)" xlink:href="#aH"/></g><path d="M110-160c48 1 74 30 74 79 0 53-28 85-80 85-65 0-83-55-86-122-5-90 50-162 133-122 14 7 22 21 27 39l-31 6c-5-40-67-38-82-6-9 19-15 44-15 74 11-20 30-34 60-33zm-7 138c34 0 49-23 49-58s-16-56-50-56c-29 0-50 16-49 49 1 36 15 65 50 65" id="bm"/><g id="B"><use transform="matrix(0.05,0,0,0.05,0,0)" xlink:href="#bm"/><use transform="matrix(0.05,0,0,0.05,10,0)" xlink:href="#aB"/></g><path d="M145-31C134-9 116 4 85 4 32 4 16-35 15-94c0-59 17-99 70-100 32-1 48 14 60 33 0-11-1-24 2-32h30l-1 268h-32zM93-21c41 0 51-33 51-76s-8-73-50-73c-40 0-46 35-46 75s5 74 45 74" id="bn"/><g id="C"><use transform="matrix(0.05,0,0,0.05,0,0)" xlink:href="#bn"/><use transform="matrix(0.05,0,0,0.05,10,0)" xlink:href="#bk"/><use transform="matrix(0.05,0,0,0.05,20,0)" xlink:href="#aT"/><use transform="matrix(0.05,0,0,0.05,30,0)" xlink:href="#aT"/><use transform="matrix(0.05,0,0,0.05,40,0)" xlink:href="#aH"/><use transform="matrix(0.05,0,0,0.05,50,0)" xlink:href="#aJ"/><use transform="matrix(0.05,0,0,0.05,59,0)" xlink:href="#aM"/><use transform="matrix(0.05,0,0,0.05,62.95,0)" xlink:href="#aS"/><use transform="matrix(0.05,0,0,0.05,72.95,0)" xlink:href="#aT"/></g><g id="D"><use transform="matrix(0.05,0,0,0.05,0,0)" xlink:href="#aH"/><use transform="matrix(0.05,0,0,0.05,10,0)" xlink:href="#aW"/><use transform="matrix(0.05,0,0,0.05,20,0)" xlink:href="#aH"/><use transform="matrix(0.05,0,0,0.05,30,0)" xlink:href="#aX"/><use transform="matrix(0.05,0,0,0.05,35.95,0)" xlink:href="#aY"/><use transform="matrix(0.05,0,0,0.05,45.95,0)" xlink:href="#aG"/><use transform="matrix(0.05,0,0,0.05,58.900000000000006,0)" xlink:href="#aH"/></g><g id="E"><use transform="matrix(0.05,0,0,0.05,0,0)" xlink:href="#aL"/><use transform="matrix(0.05,0,0,0.05,5.95,0)" xlink:href="#aF"/><use transform="matrix(0.05,0,0,0.05,15.949999999999998,0)" xlink:href="#aH"/><use transform="matrix(0.05,0,0,0.05,25.950000000000003,0)" xlink:href="#aQ"/><use transform="matrix(0.05,0,0,0.05,34.95,0)" xlink:href="#bf"/><use transform="matrix(0.05,0,0,0.05,39.95,0)" xlink:href="#bi"/><use transform="matrix(0.05,0,0,0.05,44.95,0)" xlink:href="#aM"/><use transform="matrix(0.05,0,0,0.05,48.900000000000006,0)" xlink:href="#aV"/><use transform="matrix(0.05,0,0,0.05,52.85,0)" xlink:href="#aT"/></g><g id="F"><use transform="matrix(0.05,0,0,0.05,0,0)" xlink:href="#aZ"/><use transform="matrix(0.05,0,0,0.05,14.950000000000001,0)" xlink:href="#aW"/><use transform="matrix(0.05,0,0,0.05,24.950000000000003,0)" xlink:href="#ba"/><use transform="matrix(0.05,0,0,0.05,33.95,0)" xlink:href="#aT"/></g><path d="M33 0v-38h34V0H33" id="bo"/><g id="G"><use transform="matrix(0.05,0,0,0.05,0,0)" xlink:href="#aT"/><use transform="matrix(0.05,0,0,0.05,10,0)" xlink:href="#bo"/><use transform="matrix(0.05,0,0,0.05,15,0)" xlink:href="#aR"/><use transform="matrix(0.05,0,0,0.05,25,0)" xlink:href="#bo"/></g><path d="M140-251c81 0 123 46 123 126C263-53 228-8 163 1c7 30 30 48 69 40v23c-55 16-95-15-103-61C56-3 17-48 17-125c0-80 42-126 123-126zm0 227c63 0 89-41 89-101s-29-99-89-99c-61 0-89 39-89 99S79-25 140-24" id="bp"/><g id="H"><use transform="matrix(0.05,0,0,0.05,0,0)" xlink:href="#bp"/><use transform="matrix(0.05,0,0,0.05,14,0)" xlink:href="#aT"/><use transform="matrix(0.05,0,0,0.05,24,0)" xlink:href="#bb"/><use transform="matrix(0.05,0,0,0.05,34,0)" xlink:href="#aS"/><use transform="matrix(0.05,0,0,0.05,44,0)" xlink:href="#be"/></g><g id="I"><use transform="matrix(0.05,0,0,0.05,0,0)" xlink:href="#aH"/><use transform="matrix(0.05,0,0,0.05,10,0)" xlink:href="#aW"/><use transform="matrix(0.05,0,0,0.05,20,0)" xlink:href="#aH"/><use transform="matrix(0.05,0,0,0.05,30,0)" xlink:href="#aX"/><use transform="matrix(0.05,0,0,0.05,35.95,0)" xlink:href="#aY"/><use transform="matrix(0.05,0,0,0.05,45.95,0)" xlink:href="#aG"/><use transform="matrix(0.05,0,0,0.05,58.900000000000006,0)" xlink:href="#aH"/></g><g id="J"><use transform="matrix(0.05,0,0,0.05,0,0)" xlink:href="#aU"/><use transform="matrix(0.05,0,0,0.05,9,0)" xlink:href="#aF"/><use transform="matrix(0.05,0,0,0.05,19,0)" xlink:href="#aY"/><use transform="matrix(0.05,0,0,0.05,29,0)" xlink:href="#aK"/><use transform="matrix(0.05,0,0,0.05,34,0)" xlink:href="#bk"/><use transform="matrix(0.05,0,0,0.05,44,0)" xlink:href="#aL"/><use transform="matrix(0.05,0,0,0.05,49.95,0)" xlink:href="#aT"/></g><g id="K"><use transform="matrix(0.05,0,0,0.05,0,0)" xlink:href="#aF"/><use transform="matrix(0.05,0,0,0.05,10,0)" xlink:href="#aH"/><use transform="matrix(0.05,0,0,0.05,20,0)" xlink:href="#aS"/></g><g id="L"><use transform="matrix(0.05,0,0,0.05,0,0)" xlink:href="#aU"/><use transform="matrix(0.05,0,0,0.05,9,0)" xlink:href="#aN"/><use transform="matrix(0.05,0,0,0.05,19,0)" xlink:href="#aT"/><use transform="matrix(0.05,0,0,0.05,29,0)" xlink:href="#aU"/><use transform="matrix(0.05,0,0,0.05,38,0)" xlink:href="#aQ"/></g><g id="M"><use transform="matrix(0.05,0,0,0.05,0,0)" xlink:href="#aT"/><use transform="matrix(0.05,0,0,0.05,10,0)" xlink:href="#bo"/><use transform="matrix(0.05,0,0,0.05,15,0)" xlink:href="#aR"/><use transform="matrix(0.05,0,0,0.05,25,0)" xlink:href="#bo"/></g><path d="M233-177c-1 41-23 64-60 70L243 0h-38l-65-103H63V0H30v-248c88 3 205-21 203 71zM63-129c60-2 137 13 137-47 0-61-80-42-137-45v92" id="bq"/><g id="N"><use transform="matrix(0.05,0,0,0.05,0,0)" xlink:href="#bq"/><use transform="matrix(0.05,0,0,0.05,12.950000000000001,0)" xlink:href="#bd"/><use transform="matrix(0.05,0,0,0.05,21.950000000000003,0)" xlink:href="#aS"/><use transform="matrix(0.05,0,0,0.05,31.950000000000003,0)" xlink:href="#be"/><use transform="matrix(0.05,0,0,0.05,41.95,0)" xlink:href="#bl"/></g><g id="O"><use transform="matrix(0.05,0,0,0.05,0,0)" xlink:href="#aT"/><use transform="matrix(0.05,0,0,0.05,10,0)" xlink:href="#bo"/><use transform="matrix(0.05,0,0,0.05,15,0)" xlink:href="#aR"/><use transform="matrix(0.05,0,0,0.05,25,0)" xlink:href="#bo"/></g><g id="P"><use transform="matrix(0.05,0,0,0.05,0,0)" xlink:href="#bq"/><use transform="matrix(0.05,0,0,0.05,12.950000000000001,0)" xlink:href="#bh"/><use transform="matrix(0.05,0,0,0.05,22.950000000000003,0)" xlink:href="#bd"/><use transform="matrix(0.05,0,0,0.05,31.950000000000003,0)" xlink:href="#aS"/><use transform="matrix(0.05,0,0,0.05,41.95,0)" xlink:href="#be"/></g><g id="Q"><use transform="matrix(0.04691358024691358,0,0,0.04691358024691358,0,0)" xlink:href="#aT"/><use transform="matrix(0.04691358024691358,0,0,0.04691358024691358,9.382716049382717,0)" xlink:href="#aH"/><use transform="matrix(0.04691358024691358,0,0,0.04691358024691358,18.765432098765434,0)" xlink:href="#aS"/><use transform="matrix(0.04691358024691358,0,0,0.04691358024691358,28.14814814814815,0)" xlink:href="#aJ"/></g><g id="R"><use transform="matrix(0.04691358024691358,0,0,0.04691358024691358,0,0)" xlink:href="#aM"/><use transform="matrix(0.04691358024691358,0,0,0.04691358024691358,3.706172839506173,0)" xlink:href="#aH"/></g><g id="S"><use transform="matrix(0.04691358024691358,0,0,0.04691358024691358,0,0)" xlink:href="#aO"/><use transform="matrix(0.04691358024691358,0,0,0.04691358024691358,5.958024691358025,0)" xlink:href="#bl"/><use transform="matrix(0.04691358024691358,0,0,0.04691358024691358,15.809876543209878,0)" xlink:href="#aO"/><use transform="matrix(0.04691358024691358,0,0,0.04691358024691358,21.7679012345679,0)" xlink:href="#aB"/></g><g id="T"><use transform="matrix(0.04691358024691358,0,0,0.04691358024691358,0,0)" xlink:href="#aH"/><use transform="matrix(0.04691358024691358,0,0,0.04691358024691358,9.382716049382717,0)" xlink:href="#aW"/><use transform="matrix(0.04691358024691358,0,0,0.04691358024691358,18.765432098765434,0)" xlink:href="#aH"/><use transform="matrix(0.04691358024691358,0,0,0.04691358024691358,28.14814814814815,0)" xlink:href="#aX"/><use transform="matrix(0.04691358024691358,0,0,0.04691358024691358,33.73086419753087,0)" xlink:href="#aY"/><use transform="matrix(0.04691358024691358,0,0,0.04691358024691358,43.113580246913585,0)" xlink:href="#aG"/><use transform="matrix(0.04691358024691358,0,0,0.04691358024691358,55.2641975308642,0)" xlink:href="#aH"/></g><g id="U"><use transform="matrix(0.04691358024691358,0,0,0.04691358024691358,0,0)" xlink:href="#bi"/><use transform="matrix(0.04691358024691358,0,0,0.04691358024691358,4.691358024691358,0)" xlink:href="#aM"/><use transform="matrix(0.04691358024691358,0,0,0.04691358024691358,8.397530864197531,0)" xlink:href="#aV"/><use transform="matrix(0.04691358024691358,0,0,0.04691358024691358,12.103703703703705,0)" xlink:href="#aT"/></g><path d="M68-38c1 34 0 65-14 84H32c9-13 17-26 17-46H33v-38h35" id="br"/><g id="V"><use transform="matrix(0.04691358024691358,0,0,0.04691358024691358,0,0)" xlink:href="#aS"/><use transform="matrix(0.04691358024691358,0,0,0.04691358024691358,9.382716049382717,0)" xlink:href="#aM"/><use transform="matrix(0.04691358024691358,0,0,0.04691358024691358,13.08888888888889,0)" xlink:href="#aJ"/><use transform="matrix(0.04691358024691358,0,0,0.04691358024691358,21.533333333333335,0)" xlink:href="#aF"/><use transform="matrix(0.04691358024691358,0,0,0.04691358024691358,30.91604938271605,0)" xlink:href="#aZ"/><use transform="matrix(0.04691358024691358,0,0,0.04691358024691358,44.943209876543214,0)" xlink:href="#bh"/><use transform="matrix(0.04691358024691358,0,0,0.04691358024691358,54.32592592592593,0)" xlink:href="#aM"/><use transform="matrix(0.04691358024691358,0,0,0.04691358024691358,58.0320987654321,0)" xlink:href="#aR"/><use transform="matrix(0.04691358024691358,0,0,0.04691358024691358,67.41481481481482,0)" xlink:href="#bk"/><use transform="matrix(0.04691358024691358,0,0,0.04691358024691358,76.79753086419754,0)" xlink:href="#aF"/><use transform="matrix(0.04691358024691358,0,0,0.04691358024691358,86.18024691358026,0)" xlink:href="#aK"/><use transform="matrix(0.04691358024691358,0,0,0.04691358024691358,90.87160493827162,0)" xlink:href="#aM"/><use transform="matrix(0.04691358024691358,0,0,0.04691358024691358,94.57777777777778,0)" xlink:href="#aW"/><use transform="matrix(0.04691358024691358,0,0,0.04691358024691358,103.9604938271605,0)" xlink:href="#aH"/><use transform="matrix(0.04691358024691358,0,0,0.04691358024691358,113.34320987654321,0)" xlink:href="#br"/></g><g id="W"><use transform="matrix(0.04691358024691358,0,0,0.04691358024691358,0,0)" xlink:href="#aU"/><use transform="matrix(0.04691358024691358,0,0,0.04691358024691358,8.444444444444445,0)" xlink:href="#aF"/><use transform="matrix(0.04691358024691358,0,0,0.04691358024691358,17.82716049382716,0)" xlink:href="#aY"/><use transform="matrix(0.04691358024691358,0,0,0.04691358024691358,27.209876543209877,0)" xlink:href="#aK"/><use transform="matrix(0.04691358024691358,0,0,0.04691358024691358,31.901234567901238,0)" xlink:href="#bk"/><use transform="matrix(0.04691358024691358,0,0,0.04691358024691358,41.283950617283956,0)" xlink:href="#aL"/><use transform="matrix(0.04691358024691358,0,0,0.04691358024691358,46.866666666666674,0)" xlink:href="#aT"/><use transform="matrix(0.04691358024691358,0,0,0.04691358024691358,56.24938271604939,0)" xlink:href="#br"/></g><g id="X"><use transform="matrix(0.04691358024691358,0,0,0.04691358024691358,0,0)" xlink:href="#aF"/><use transform="matrix(0.04691358024691358,0,0,0.04691358024691358,9.382716049382717,0)" xlink:href="#aH"/><use transform="matrix(0.04691358024691358,0,0,0.04691358024691358,18.765432098765434,0)" xlink:href="#aS"/></g><g id="Y"><use transform="matrix(0.04691358024691358,0,0,0.04691358024691358,0,0)" xlink:href="#aU"/><use transform="matrix(0.04691358024691358,0,0,0.04691358024691358,8.444444444444445,0)" xlink:href="#aN"/><use transform="matrix(0.04691358024691358,0,0,0.04691358024691358,17.82716049382716,0)" xlink:href="#aT"/><use transform="matrix(0.04691358024691358,0,0,0.04691358024691358,27.209876543209877,0)" xlink:href="#aU"/><use transform="matrix(0.04691358024691358,0,0,0.04691358024691358,35.65432098765432,0)" xlink:href="#aQ"/><use transform="matrix(0.04691358024691358,0,0,0.04691358024691358,44.098765432098766,0)" xlink:href="#br"/></g><g id="Z"><use transform="matrix(0.04691358024691358,0,0,0.04691358024691358,0,0)" xlink:href="#aT"/><use transform="matrix(0.04691358024691358,0,0,0.04691358024691358,9.382716049382717,0)" xlink:href="#bo"/><use transform="matrix(0.04691358024691358,0,0,0.04691358024691358,14.074074074074074,0)" xlink:href="#aR"/><use transform="matrix(0.04691358024691358,0,0,0.04691358024691358,23.45679012345679,0)" xlink:href="#bo"/><use transform="matrix(0.04691358024691358,0,0,0.04691358024691358,28.14814814814815,0)" xlink:href="#br"/></g><g id="aa"><use transform="matrix(0.04691358024691358,0,0,0.04691358024691358,0,0)" xlink:href="#bq"/><use transform="matrix(0.04691358024691358,0,0,0.04691358024691358,12.150617283950618,0)" xlink:href="#bh"/><use transform="matrix(0.04691358024691358,0,0,0.04691358024691358,21.533333333333335,0)" xlink:href="#bd"/><use transform="matrix(0.04691358024691358,0,0,0.04691358024691358,29.97777777777778,0)" xlink:href="#aR"/><use transform="matrix(0.04691358024691358,0,0,0.04691358024691358,39.3604938271605,0)" xlink:href="#bm"/><use transform="matrix(0.04691358024691358,0,0,0.04691358024691358,48.74320987654321,0)" xlink:href="#bl"/></g><g id="ab"><use transform="matrix(0.04691358024691358,0,0,0.04691358024691358,0,0)" xlink:href="#bi"/><use transform="matrix(0.04691358024691358,0,0,0.04691358024691358,4.691358024691358,0)" xlink:href="#aM"/><use transform="matrix(0.04691358024691358,0,0,0.04691358024691358,8.397530864197531,0)" xlink:href="#aV"/><use transform="matrix(0.04691358024691358,0,0,0.04691358024691358,12.103703703703705,0)" xlink:href="#aT"/><use transform="matrix(0.04691358024691358,0,0,0.04691358024691358,21.486419753086423,0)" xlink:href="#br"/></g><g id="ac"><use transform="matrix(0.04691358024691358,0,0,0.04691358024691358,0,0)" xlink:href="#aL"/><use transform="matrix(0.04691358024691358,0,0,0.04691358024691358,5.582716049382716,0)" xlink:href="#aF"/><use transform="matrix(0.04691358024691358,0,0,0.04691358024691358,14.965432098765433,0)" xlink:href="#aH"/><use transform="matrix(0.04691358024691358,0,0,0.04691358024691358,24.348148148148148,0)" xlink:href="#aQ"/></g><g id="ad"><use transform="matrix(0.04691358024691358,0,0,0.04691358024691358,0,0)" xlink:href="#aF"/><use transform="matrix(0.04691358024691358,0,0,0.04691358024691358,9.382716049382717,0)" xlink:href="#aH"/><use transform="matrix(0.04691358024691358,0,0,0.04691358024691358,18.765432098765434,0)" xlink:href="#aS"/></g><g id="ae"><use transform="matrix(0.04691358024691358,0,0,0.04691358024691358,0,0)" xlink:href="#aU"/><use transform="matrix(0.04691358024691358,0,0,0.04691358024691358,8.444444444444445,0)" xlink:href="#aF"/><use transform="matrix(0.04691358024691358,0,0,0.04691358024691358,17.82716049382716,0)" xlink:href="#aY"/><use transform="matrix(0.04691358024691358,0,0,0.04691358024691358,27.209876543209877,0)" xlink:href="#aK"/><use transform="matrix(0.04691358024691358,0,0,0.04691358024691358,31.901234567901238,0)" xlink:href="#bk"/><use transform="matrix(0.04691358024691358,0,0,0.04691358024691358,41.283950617283956,0)" xlink:href="#aL"/><use transform="matrix(0.04691358024691358,0,0,0.04691358024691358,46.866666666666674,0)" xlink:href="#aT"/><use transform="matrix(0.04691358024691358,0,0,0.04691358024691358,56.24938271604939,0)" xlink:href="#br"/></g><g id="af"><use transform="matrix(0.04691358024691358,0,0,0.04691358024691358,0,0)" xlink:href="#bp"/><use transform="matrix(0.04691358024691358,0,0,0.04691358024691358,13.135802469135804,0)" xlink:href="#aT"/><use transform="matrix(0.04691358024691358,0,0,0.04691358024691358,22.51851851851852,0)" xlink:href="#bb"/><use transform="matrix(0.04691358024691358,0,0,0.04691358024691358,31.901234567901238,0)" xlink:href="#bd"/><use transform="matrix(0.04691358024691358,0,0,0.04691358024691358,40.34567901234568,0)" xlink:href="#aS"/><use transform="matrix(0.04691358024691358,0,0,0.04691358024691358,49.728395061728385,0)" xlink:href="#be"/></g><g id="ah"><use transform="matrix(0.04691358024691358,0,0,0.04691358024691358,0,0)" xlink:href="#aU"/><use transform="matrix(0.04691358024691358,0,0,0.04691358024691358,8.444444444444445,0)" xlink:href="#aW"/><use transform="matrix(0.04691358024691358,0,0,0.04691358024691358,17.82716049382716,0)" xlink:href="#aH"/><use transform="matrix(0.04691358024691358,0,0,0.04691358024691358,27.209876543209877,0)" xlink:href="#aK"/><use transform="matrix(0.04691358024691358,0,0,0.04691358024691358,31.901234567901238,0)" xlink:href="#aF"/><use transform="matrix(0.04691358024691358,0,0,0.04691358024691358,41.283950617283956,0)" xlink:href="#aM"/><use transform="matrix(0.04691358024691358,0,0,0.04691358024691358,44.99012345679013,0)" xlink:href="#aH"/><use transform="matrix(0.04691358024691358,0,0,0.04691358024691358,54.372839506172845,0)" xlink:href="#aJ"/></g><path d="M18-150v-26h174v26H18zm0 90v-26h174v26H18" id="bs"/><g id="ai"><use transform="matrix(0.04691358024691358,0,0,0.04691358024691358,0,0)" xlink:href="#aO"/><use transform="matrix(0.04691358024691358,0,0,0.04691358024691358,5.958024691358025,0)" xlink:href="#bs"/><use transform="matrix(0.04691358024691358,0,0,0.04691358024691358,15.809876543209878,0)" xlink:href="#aO"/><use transform="matrix(0.04691358024691358,0,0,0.04691358024691358,21.7679012345679,0)" xlink:href="#aB"/></g><g id="aj"><use transform="matrix(0.05,0,0,0.05,0,0)" xlink:href="#aO"/><use transform="matrix(0.05,0,0,0.05,6.3500000000000005,0)" xlink:href="#bs"/><use transform="matrix(0.05,0,0,0.05,16.85,0)" xlink:href="#aO"/><use transform="matrix(0.05,0,0,0.05,23.200000000000003,0)" xlink:href="#aB"/></g><g id="ak"><use transform="matrix(0.05,0,0,0.05,0,0)" xlink:href="#aU"/><use transform="matrix(0.05,0,0,0.05,9,0)" xlink:href="#aF"/><use transform="matrix(0.05,0,0,0.05,19,0)" xlink:href="#aY"/><use transform="matrix(0.05,0,0,0.05,29,0)" xlink:href="#aK"/><use transform="matrix(0.05,0,0,0.05,34,0)" xlink:href="#bk"/><use transform="matrix(0.05,0,0,0.05,44,0)" xlink:href="#aL"/><use transform="matrix(0.05,0,0,0.05,49.95,0)" xlink:href="#aT"/><use transform="matrix(0.05,0,0,0.05,59.95,0)" xlink:href="#br"/></g><g id="al"><use transform="matrix(0.05,0,0,0.05,0,0)" xlink:href="#aY"/><use transform="matrix(0.05,0,0,0.05,10,0)" xlink:href="#aL"/><use transform="matrix(0.05,0,0,0.05,15.949999999999998,0)" xlink:href="#aW"/><use transform="matrix(0.05,0,0,0.05,25.950000000000003,0)" xlink:href="#aZ"/><use transform="matrix(0.05,0,0,0.05,40.9,0)" xlink:href="#aW"/><use transform="matrix(0.05,0,0,0.05,50.9,0)" xlink:href="#aK"/><use transform="matrix(0.05,0,0,0.05,55.900000000000006,0)" xlink:href="#aM"/><use transform="matrix(0.05,0,0,0.05,59.85,0)" xlink:href="#aW"/><use transform="matrix(0.05,0,0,0.05,69.85,0)" xlink:href="#aH"/><use transform="matrix(0.05,0,0,0.05,79.85,0)" xlink:href="#br"/></g><g id="am"><use transform="matrix(0.05,0,0,0.05,0,0)" xlink:href="#aF"/><use transform="matrix(0.05,0,0,0.05,10,0)" xlink:href="#aH"/><use transform="matrix(0.05,0,0,0.05,20,0)" xlink:href="#aS"/></g><g id="an"><use transform="matrix(0.05,0,0,0.05,0,0)" xlink:href="#aU"/><use transform="matrix(0.05,0,0,0.05,9,0)" xlink:href="#aN"/><use transform="matrix(0.05,0,0,0.05,19,0)" xlink:href="#aT"/><use transform="matrix(0.05,0,0,0.05,29,0)" xlink:href="#aU"/><use transform="matrix(0.05,0,0,0.05,38,0)" xlink:href="#aQ"/><use transform="matrix(0.05,0,0,0.05,47,0)" xlink:href="#br"/></g><g id="ao"><use transform="matrix(0.05,0,0,0.05,0,0)" xlink:href="#aT"/><use transform="matrix(0.05,0,0,0.05,10,0)" xlink:href="#bo"/><use transform="matrix(0.05,0,0,0.05,15,0)" xlink:href="#aR"/><use transform="matrix(0.05,0,0,0.05,25,0)" xlink:href="#bo"/><use transform="matrix(0.05,0,0,0.05,30,0)" xlink:href="#br"/></g><path d="M27 0v-27h64v-190l-56 39v-29l58-41h29v221h61V0H27" id="bt"/><g id="ap"><use transform="matrix(0.05,0,0,0.05,0,0)" xlink:href="#bi"/><use transform="matrix(0.05,0,0,0.05,5,0)" xlink:href="#bd"/><use transform="matrix(0.05,0,0,0.05,14,0)" xlink:href="#aR"/><use transform="matrix(0.05,0,0,0.05,24,0)" xlink:href="#bt"/><use transform="matrix(0.05,0,0,0.05,34,0)" xlink:href="#bs"/><use transform="matrix(0.05,0,0,0.05,44.5,0)" xlink:href="#bp"/><use transform="matrix(0.05,0,0,0.05,58.5,0)" xlink:href="#bl"/></g><g id="aq"><use transform="matrix(0.05,0,0,0.05,0,0)" xlink:href="#aH"/><use transform="matrix(0.05,0,0,0.05,10,0)" xlink:href="#aW"/><use transform="matrix(0.05,0,0,0.05,20,0)" xlink:href="#aH"/><use transform="matrix(0.05,0,0,0.05,30,0)" xlink:href="#aX"/><use transform="matrix(0.05,0,0,0.05,35.95,0)" xlink:href="#aY"/><use transform="matrix(0.05,0,0,0.05,45.95,0)" xlink:href="#aF"/><use transform="matrix(0.05,0,0,0.05,55.95,0)" xlink:href="#aG"/><use transform="matrix(0.05,0,0,0.05,68.9,0)" xlink:href="#aH"/><use transform="matrix(0.05,0,0,0.05,78.9,0)" xlink:href="#br"/></g><g id="ar"><use transform="matrix(0.05,0,0,0.05,0,0)" xlink:href="#bi"/><use transform="matrix(0.05,0,0,0.05,5,0)" xlink:href="#aM"/><use transform="matrix(0.05,0,0,0.05,8.95,0)" xlink:href="#aV"/><use transform="matrix(0.05,0,0,0.05,12.899999999999999,0)" xlink:href="#aT"/><use transform="matrix(0.05,0,0,0.05,22.9,0)" xlink:href="#bf"/><use transform="matrix(0.05,0,0,0.05,27.899999999999995,0)" xlink:href="#aL"/><use transform="matrix(0.05,0,0,0.05,33.85,0)" xlink:href="#aF"/><use transform="matrix(0.05,0,0,0.05,43.85,0)" xlink:href="#aH"/><use transform="matrix(0.05,0,0,0.05,53.85,0)" xlink:href="#aQ"/></g><g id="as"><use transform="matrix(0.05,0,0,0.05,0,0)" xlink:href="#aU"/><use transform="matrix(0.05,0,0,0.05,9,0)" xlink:href="#aF"/><use transform="matrix(0.05,0,0,0.05,19,0)" xlink:href="#aY"/><use transform="matrix(0.05,0,0,0.05,29,0)" xlink:href="#aK"/><use transform="matrix(0.05,0,0,0.05,34,0)" xlink:href="#bk"/><use transform="matrix(0.05,0,0,0.05,44,0)" xlink:href="#aL"/><use transform="matrix(0.05,0,0,0.05,49.95,0)" xlink:href="#aT"/><use transform="matrix(0.05,0,0,0.05,59.95,0)" xlink:href="#br"/></g><g id="at"><use transform="matrix(0.05,0,0,0.05,0,0)" xlink:href="#aU"/><use transform="matrix(0.05,0,0,0.05,9,0)" xlink:href="#aN"/><use transform="matrix(0.05,0,0,0.05,19,0)" xlink:href="#aT"/><use transform="matrix(0.05,0,0,0.05,29,0)" xlink:href="#aU"/><use transform="matrix(0.05,0,0,0.05,38,0)" xlink:href="#aQ"/><use transform="matrix(0.05,0,0,0.05,47,0)" xlink:href="#bf"/><use transform="matrix(0.05,0,0,0.05,52,0)" xlink:href="#aU"/><use transform="matrix(0.05,0,0,0.05,61,0)" xlink:href="#aN"/><use transform="matrix(0.05,0,0,0.05,71,0)" xlink:href="#aT"/><use transform="matrix(0.05,0,0,0.05,81,0)" xlink:href="#aU"/><use transform="matrix(0.05,0,0,0.05,90,0)" xlink:href="#aQ"/><use transform="matrix(0.05,0,0,0.05,99,0)" xlink:href="#aZ"/><use transform="matrix(0.05,0,0,0.05,113.95,0)" xlink:href="#aF"/><use transform="matrix(0.05,0,0,0.05,123.95,0)" xlink:href="#aK"/><use transform="matrix(0.05,0,0,0.05,128.95,0)" xlink:href="#aT"/></g><path d="M64 0c3-98 48-159 88-221H18v-27h164v26C143-157 98-101 97 0H64" id="bu"/><path d="M158-156l-14 65h45v19h-49L124 0h-19l15-72H56L41 0H22l15-72H2v-19h39l14-65H11v-19h48l15-71h20l-16 71h64l16-71h19l-16 71h37v19h-40zm-83 0L61-91h63l14-65H75" id="bv"/><g id="au"><use transform="matrix(0.05,0,0,0.05,0,0)" xlink:href="#bp"/><use transform="matrix(0.05,0,0,0.05,14,0)" xlink:href="#aF"/><use transform="matrix(0.05,0,0,0.05,24,0)" xlink:href="#bm"/><use transform="matrix(0.05,0,0,0.05,34,0)" xlink:href="#bd"/><use transform="matrix(0.05,0,0,0.05,43,0)" xlink:href="#bh"/><use transform="matrix(0.05,0,0,0.05,53,0)" xlink:href="#bu"/><use transform="matrix(0.05,0,0,0.05,63,0)" xlink:href="#bv"/></g><g id="av"><use transform="matrix(0.04691358024691358,0,0,0.04691358024691358,0,0)" xlink:href="#aY"/><use transform="matrix(0.04691358024691358,0,0,0.04691358024691358,9.382716049382717,0)" xlink:href="#aF"/><use transform="matrix(0.04691358024691358,0,0,0.04691358024691358,18.765432098765434,0)" xlink:href="#aG"/><use transform="matrix(0.04691358024691358,0,0,0.04691358024691358,30.91604938271605,0)" xlink:href="#aH"/></g><g id="aw"><use transform="matrix(0.04691358024691358,0,0,0.04691358024691358,0,0)" xlink:href="#aY"/><use transform="matrix(0.04691358024691358,0,0,0.04691358024691358,9.382716049382717,0)" xlink:href="#aL"/><use transform="matrix(0.04691358024691358,0,0,0.04691358024691358,14.965432098765433,0)" xlink:href="#aW"/><use transform="matrix(0.04691358024691358,0,0,0.04691358024691358,24.348148148148148,0)" xlink:href="#aZ"/><use transform="matrix(0.04691358024691358,0,0,0.04691358024691358,38.37530864197531,0)" xlink:href="#aW"/><use transform="matrix(0.04691358024691358,0,0,0.04691358024691358,47.758024691358024,0)" xlink:href="#aK"/><use transform="matrix(0.04691358024691358,0,0,0.04691358024691358,52.449382716049385,0)" xlink:href="#aM"/><use transform="matrix(0.04691358024691358,0,0,0.04691358024691358,56.15555555555556,0)" xlink:href="#aW"/><use transform="matrix(0.04691358024691358,0,0,0.04691358024691358,65.53827160493827,0)" xlink:href="#aH"/></g><g id="ax"><use transform="matrix(0.04691358024691358,0,0,0.04691358024691358,0,0)" xlink:href="#aT"/><use transform="matrix(0.04691358024691358,0,0,0.04691358024691358,9.382716049382717,0)" xlink:href="#bo"/><use transform="matrix(0.04691358024691358,0,0,0.04691358024691358,14.074074074074074,0)" xlink:href="#aR"/><use transform="matrix(0.04691358024691358,0,0,0.04691358024691358,23.45679012345679,0)" xlink:href="#bo"/><use transform="matrix(0.04691358024691358,0,0,0.04691358024691358,28.14814814814815,0)" xlink:href="#br"/></g><g id="ay"><use transform="matrix(0.04691358024691358,0,0,0.04691358024691358,0,0)" xlink:href="#bi"/><use transform="matrix(0.04691358024691358,0,0,0.04691358024691358,4.691358024691358,0)" xlink:href="#aR"/><use transform="matrix(0.04691358024691358,0,0,0.04691358024691358,14.074074074074074,0)" xlink:href="#bt"/><use transform="matrix(0.04691358024691358,0,0,0.04691358024691358,23.45679012345679,0)" xlink:href="#bs"/><use transform="matrix(0.04691358024691358,0,0,0.04691358024691358,33.308641975308646,0)" xlink:href="#bp"/><use transform="matrix(0.04691358024691358,0,0,0.04691358024691358,46.44444444444445,0)" xlink:href="#bt"/></g><use transform="matrix(0.05,0,0,0.05,0,0)" xlink:href="#aB" id="az"/></defs></g></svg>