<svg xmlns="http://www.w3.org/2000/svg" xmlns:xlink="http://www.w3.org/1999/xlink" xmlns:lucid="lucid" width="1048.72" height="797.82"><g transform="translate(-380 0)" lucid:page-tab-id="tuCWWnzR5YvH"><path d="M940 402v39.73" stroke="#000" stroke-width="2" fill="none"/><path d="M941 402.03h-2V401h2zM941 442.73h-2v-1.03h2z"/><path d="M900 442.73h80v53.2h-80z" stroke="#000" stroke-opacity="0" stroke-width="2" fill="#fff"/><use xlink:href="#a" transform="matrix(1,0,0,1,905,447.725) translate(13.524999999999999 14.799999999999999)"/><use xlink:href="#b" transform="matrix(1,0,0,1,905,447.725) translate(13.024999999999999 36.4)"/><path d="M961.86 587.52h135v60h-135z" stroke="#d2d3d3" stroke-width="2" fill="#fff"/><use xlink:href="#c" transform="matrix(1,0,0,1,966.8580406918345,592.5249999999997) translate(1.2249999999999943 28.6)"/><use xlink:href="#d" transform="matrix(1,0,0,1,966.8580406918345,592.5249999999997) translate(50.175 28.6)"/><use xlink:href="#e" transform="matrix(1,0,0,1,966.8580406918345,592.5249999999997) translate(87.075 28.6)"/><path d="M990.25 685.8l-18.84 17.3-1.34-1.5 20.2-18.53zm39.05-35.86l-27.05 24.83v-2.72l25.7-23.6z"/><path d="M1029.28 649.96l-1.3-1.44h2.86zM971.4 703.02h-2.88l1.56-1.43z"/><use xlink:href="#f" transform="matrix(1,0,0,1,990.2526618994781,668.1209349593495) translate(0 14.4)"/><path d="M920 703.02h100v74.8H920z" stroke="#000" stroke-opacity="0" stroke-width="2" fill="#fff"/><use xlink:href="#g" transform="matrix(1,0,0,1,925,708.0249999999999) translate(12.049999999999997 25.299999999999997)"/><use xlink:href="#h" transform="matrix(1,0,0,1,925,708.0249999999999) translate(21.525 46.9)"/><path d="M1097 709l-1.36 1.5-30.27-27.7v-2.7zm-44.58-40.75v2.7l-23-21 1.35-1.5z"/><path d="M1029.44 649.96l-1.56-1.44h2.87zM1098.53 710.42h-2.87l1.3-1.43z"/><use xlink:href="#i" transform="matrix(1,0,0,1,1052.4150617126184,664.7303921568625) translate(0.004999999999999893 14.4)"/><path d="M1047.05 710.42h100v60h-100z" stroke="#000" stroke-opacity="0" stroke-width="2" fill="#fff"/><use xlink:href="#j" transform="matrix(1,0,0,1,1052.049414717002,715.4249999999998) translate(10.549999999999997 17.799999999999997)"/><use xlink:href="#b" transform="matrix(1,0,0,1,1052.049414717002,715.4249999999998) translate(23.025 39.4)"/><path d="M750 20h120v40H750z" stroke="#d2d3d3" stroke-width="2" fill="#fff"/><use xlink:href="#k" transform="matrix(1,0,0,1,755,25) translate(6.125 18.6)"/><use xlink:href="#l" transform="matrix(1,0,0,1,755,25) translate(78.075 18.6)"/><path d="M543.43 400h120v60h-120z" stroke="#d2d3d3" stroke-width="2" fill="#fff"/><use xlink:href="#c" transform="matrix(1,0,0,1,548.429020345917,405) translate(21.549999999999997 18.299999999999997)"/><use xlink:href="#m" transform="matrix(1,0,0,1,548.429020345917,405) translate(70.5 18.299999999999997)"/><use xlink:href="#n" transform="matrix(1,0,0,1,548.429020345917,405) translate(7 39.9)"/><path d="M572.3 491.68l-17.74 16.7-1.38-1.47 19.1-17.96zm31.1-29.27l-19.1 18v-2.76L602 460.96z"/><path d="M603.37 462.43l-1.35-1.43h2.87zM554.55 508.32h-2.87l1.52-1.43z"/><use xlink:href="#f" transform="matrix(1,0,0,1,572.2854898270414,473.86250000000024) translate(0.004999999999999893 14.4)"/><path d="M654.94 506.9l-1.35 1.5-20.94-19.22v-2.72zM619.7 474.6v2.72l-16.2-14.9 1.34-1.46z"/><path d="M603.5 462.43l-1.55-1.43h2.87zM656.48 508.32h-2.87l1.32-1.43z"/><use xlink:href="#i" transform="matrix(1,0,0,1,619.7073811224861,471.08001441845585) translate(0.004999999999999893 14.4)"/><path d="M615 508.33h80v60h-80z" stroke="#000" stroke-opacity="0" stroke-width="2" fill="#fff"/><use xlink:href="#j" transform="matrix(1,0,0,1,620,513.3250000000005) translate(0.5499999999999972 17.799999999999997)"/><use xlink:href="#o" transform="matrix(1,0,0,1,620,513.3250000000005) translate(5.024999999999999 39.4)"/><path d="M1178.72 548.25h143.33v36.9h-143.33z" stroke="#d2d3d3" stroke-width="2" fill="#fff"/><use xlink:href="#c" transform="matrix(1,0,0,1,1183.7160813836692,553.2500000000007) translate(5.724999999999994 17.1)"/><use xlink:href="#d" transform="matrix(1,0,0,1,1183.7160813836692,553.2500000000007) translate(54.675 17.1)"/><use xlink:href="#e" transform="matrix(1,0,0,1,1183.7160813836692,553.2500000000007) translate(91.575 17.1)"/><path d="M1203.8 632.03l-22 21-1.38-1.44 23.37-22.34zm46.55-44.47l-34.56 33v-2.76l33.17-31.68z"/><path d="M1250.33 587.58l-1.37-1.43h2.87zM1181.8 653h-2.87l1.5-1.43z"/><use xlink:href="#f" transform="matrix(1,0,0,1,1203.7891407443997,614.1168949771697) translate(0.004999999999999893 14.4)"/><path d="M1328.6 651.6l-1.3 1.5-21.8-18.6v-2.63zm-36.06-30.78v2.63l-42.05-35.9 1.3-1.5z"/><path d="M1250.5 587.58l-1.66-1.43h2.9zM1330.26 653h-2.9l1.23-1.43z"/><use xlink:href="#i" transform="matrix(1,0,0,1,1292.5444434859492,616.8567628494145) translate(0.004999999999999893 14.4)"/><path d="M1130.38 653h100v60h-100z" stroke="#000" stroke-opacity="0" stroke-width="2" fill="#fff"/><use xlink:href="#p" transform="matrix(1,0,0,1,1135.3827480503355,658.0000000000007) translate(3.5249999999999986 17.799999999999997)"/><use xlink:href="#h" transform="matrix(1,0,0,1,1135.3827480503355,658.0000000000007) translate(21.525 39.4)"/><path d="M1248.72 653h160v77.1h-160z" stroke="#000" stroke-opacity="0" stroke-width="2" fill="#fff"/><use xlink:href="#q" transform="matrix(1,0,0,1,1253.716081383669,658.0000000000007) translate(6.625 16)"/><use xlink:href="#r" transform="matrix(1,0,0,1,1253.716081383669,658.0000000000007) translate(80.525 16)"/><use xlink:href="#s" transform="matrix(1,0,0,1,1253.716081383669,658.0000000000007) translate(14.599999999999994 37.6)"/><use xlink:href="#t" transform="matrix(1,0,0,1,1253.716081383669,658.0000000000007) translate(6.025000000000006 59.2)"/><use xlink:href="#u" transform="matrix(1,0,0,1,1253.716081383669,658.0000000000007) translate(54.97500000000001 59.2)"/><use xlink:href="#v" transform="matrix(1,0,0,1,1253.716081383669,658.0000000000007) translate(89.97500000000001 59.2)"/><path d="M718.72 94.5l-70.86 27.3-.72-1.86 71.58-27.58zm83.57-32.2L730.7 89.87v-2.15l70.85-27.3z"/><path d="M802.26 62.3l-.5-1.3h3.88zM647.67 121.24h-3.88l3.37-1.3z"/><use xlink:href="#f" transform="matrix(1,0,0,1,718.7154232410851,80.31875000000001) translate(0.004999999999999893 14.4)"/><path d="M626.28 220h160v53.2h-160z" stroke="#d2d3d3" stroke-width="2" fill="#fff"/><use xlink:href="#w" transform="matrix(1,0,0,1,631.2839186163316,225) translate(17.574999999999996 14.799999999999999)"/><use xlink:href="#x" transform="matrix(1,0,0,1,631.2839186163316,225) translate(46.574999999999996 14.799999999999999)"/><use xlink:href="#y" transform="matrix(1,0,0,1,631.2839186163316,225) translate(83.475 14.799999999999999)"/><use xlink:href="#z" transform="matrix(1,0,0,1,631.2839186163316,225) translate(12.725000000000001 36.4)"/><use xlink:href="#x" transform="matrix(1,0,0,1,631.2839186163316,225) translate(53.675000000000004 36.4)"/><use xlink:href="#A" transform="matrix(1,0,0,1,631.2839186163316,225) translate(90.57499999999999 36.4)"/><use xlink:href="#B" transform="matrix(1,0,0,1,631.2839186163316,225) translate(115.57499999999999 36.4)"/><path d="M705.37 274.6l-101.02 43.73" stroke="#000" stroke-width="2" fill="none"/><path d="M705.74 275.53l-.57-1.33h3.63zM604.55 318.73h-3.64l3.07-1.33z"/><path d="M573.43 319.73h60v60h-60z" stroke="#d2d3d3" stroke-width="2" fill="#fff"/><use xlink:href="#C" transform="matrix(1,0,0,1,578.429020345917,324.7250000000003) translate(15 28.6)"/><path d="M603.43 381.73V398" stroke="#000" stroke-width="2" fill="none"/><path d="M604.43 381.75h-2v-1.02h2zM604.43 399h-2v-1.03h2z"/><path d="M676.28 318.13h60v60h-60z" stroke="#d2d3d3" stroke-width="2" fill="#fff"/><use xlink:href="#D" transform="matrix(1,0,0,1,681.2839186163316,323.12500000000045) translate(15 28.6)"/><path d="M706.28 275.2v40.93" stroke="#000" stroke-width="2" fill="none"/><path d="M707.28 275.23h-2v-1.03h2zM707.28 317.13h-2v-1.03h2z"/><path d="M646.28 580h120v67.4h-120z" stroke="#000" stroke-opacity="0" stroke-width="2" fill="#fff"/><use xlink:href="#q" transform="matrix(1,0,0,1,651.2839186163316,585) translate(6.599999999999994 14.4)"/><use xlink:href="#E" transform="matrix(1,0,0,1,651.2839186163316,585) translate(80.5 14.4)"/><use xlink:href="#s" transform="matrix(1,0,0,1,651.2839186163316,585) translate(-5.400000000000006 36)"/><use xlink:href="#F" transform="matrix(1,0,0,1,651.2839186163316,585) translate(7.524999999999999 57.6)"/><use xlink:href="#G" transform="matrix(1,0,0,1,651.2839186163316,585) translate(72.475 57.6)"/><use xlink:href="#H" transform="matrix(1,0,0,1,651.2839186163316,585) translate(29.025 79.20000000000002)"/><path d="M770 318.13h60v60h-60z" stroke="#d2d3d3" stroke-width="2" fill="#fff"/><use xlink:href="#I" transform="matrix(1,0,0,1,775,323.12500000000045) translate(15 28.6)"/><path d="M707.2 274.62l91.9 42.1" stroke="#000" stroke-width="2" fill="none"/><path d="M706.8 275.54l-2.92-1.34h3.53zM802.4 317.13h-3.53l.6-1.34z"/><path d="M720 450.73h180v67.4H720z" stroke="#000" stroke-opacity="0" stroke-width="2" fill="#fff"/><use xlink:href="#q" transform="matrix(1,0,0,1,725,455.7250000000006) translate(8.125 14.4)"/><use xlink:href="#J" transform="matrix(1,0,0,1,725,455.7250000000006) translate(82.025 14.4)"/><use xlink:href="#K" transform="matrix(1,0,0,1,725,455.7250000000006) translate(109.92500000000001 14.4)"/><use xlink:href="#L" transform="matrix(1,0,0,1,725,455.7250000000006) translate(126.92500000000001 14.4)"/><use xlink:href="#s" transform="matrix(1,0,0,1,725,455.7250000000006) translate(24.599999999999994 36)"/><use xlink:href="#F" transform="matrix(1,0,0,1,725,455.7250000000006) translate(4.049999999999997 57.6)"/><use xlink:href="#u" transform="matrix(1,0,0,1,725,455.7250000000006) translate(69 57.6)"/><use xlink:href="#M" transform="matrix(1,0,0,1,725,455.7250000000006) translate(104 57.6)"/><path d="M655 508.33" stroke="#000" stroke-width="2" fill="none"/><path/><path/><path d="M513.14 508.33h80v60h-80z" stroke="#000" stroke-opacity="0" stroke-width="2" fill="#fff"/><use xlink:href="#a" transform="matrix(1,0,0,1,518.1419593081657,513.3250000000005) translate(13.524999999999999 17.799999999999997)"/><use xlink:href="#o" transform="matrix(1,0,0,1,518.1419593081657,513.3250000000005) translate(5.024999999999999 39.4)"/><path d="M1248.73 402l1.64 144.25" stroke="#000" stroke-width="2" fill="none"/><path d="M1249.73 402l-2 .04V401h2zM1251.38 547.25h-2v-1l2-.04z"/><path d="M1047.05 463.33h200v72.6h-200z" stroke="#000" stroke-opacity="0" stroke-width="2" fill="#fff"/><use xlink:href="#q" transform="matrix(1,0,0,1,1052.049414717002,468.32500000000016) translate(46.599999999999994 14.4)"/><use xlink:href="#E" transform="matrix(1,0,0,1,1052.049414717002,468.32500000000016) translate(120.5 14.4)"/><use xlink:href="#N" transform="matrix(1,0,0,1,1052.049414717002,468.32500000000016) translate(10.125 36)"/><use xlink:href="#O" transform="matrix(1,0,0,1,1052.049414717002,468.32500000000016) translate(135.925 36)"/><use xlink:href="#P" transform="matrix(1,0,0,1,1052.049414717002,468.32500000000016) translate(56.025 57.6)"/><use xlink:href="#Q" transform="matrix(1,0,0,1,1052.049414717002,468.32500000000016) translate(91.025 57.6)"/><path d="M1130.38 402v60.33" stroke="#000" stroke-width="2" fill="none"/><path d="M1131.38 402.03h-2V401h2zM1131.38 463.32h-2v-1.02h2z"/><path d="M960.86 609.74" stroke="#000" stroke-width="2" fill="none"/><path/><path/><path d="M1029.36 402v183.52" stroke="#000" stroke-width="2" fill="none"/><path d="M1030.36 402.03h-2V401h2zM1030.36 586.52h-2v-1.02h2z"/><path d="M910 340h60v60h-60z" stroke="#d2d3d3" stroke-width="2" fill="#fff"/><use xlink:href="#D" transform="matrix(1,0,0,1,915,345) translate(15 28.6)"/><path d="M999.36 340h60v60h-60z" stroke="#d2d3d3" stroke-width="2" fill="#fff"/><use xlink:href="#I" transform="matrix(1,0,0,1,1004.3580406918345,345) translate(15 28.6)"/><path d="M1100.38 340h60v60h-60z" stroke="#d2d3d3" stroke-width="2" fill="#fff"/><use xlink:href="#R" transform="matrix(1,0,0,1,1105.3827480503355,345) translate(15 28.6)"/><path d="M1218.72 340h60v60h-60z" stroke="#d2d3d3" stroke-width="2" fill="#fff"/><use xlink:href="#S" transform="matrix(1,0,0,1,1223.7160813836686,345) translate(15 28.6)"/><path d="M979.97 239h120v39.9h-120z" stroke="#d2d3d3" stroke-width="2" fill="#fff"/><use xlink:href="#T" transform="matrix(1,0,0,1,984.9660813836686,244.00000000000003) translate(6.075000000000003 18.6)"/><use xlink:href="#U" transform="matrix(1,0,0,1,984.9660813836686,244.00000000000003) translate(54.975 18.6)"/><path d="M1035.84 236.6l-1.4 1.43-37.55-35.95v-2.77zm-51.9-49.68v2.77L945 152.4l1.38-1.43z"/><path d="M945.02 152.43l-1.5-1.43h2.87zM1037.3 238h-2.85l1.37-1.43z"/><use xlink:href="#i" transform="matrix(1,0,0,1,983.9410813836687,183.7) translate(0.004999999999999893 14.4)"/><path d="M1039.1 280.4l-99.26 58.1" stroke="#000" stroke-width="2" fill="none"/><path d="M1039.6 281.28l-.82-1.38h3.17zM940.16 339H937l2.36-1.38z"/><path d="M1039.8 280.88l-10.27 57.14" stroke="#000" stroke-width="2" fill="none"/><path d="M1040.77 281.1l-1.97-.37.15-.83h2.03zM1030.52 338.17l-.15.83h-2.03l.2-1.2z"/><path d="M1040.8 280.45l88.75 58" stroke="#000" stroke-width="2" fill="none"/><path d="M1040.28 281.3l-2.14-1.4h3.05zM1132.2 339h-3.04l.9-1.4z"/><path d="M1040.93 280.17l206.82 58.56" stroke="#000" stroke-width="2" fill="none"/><path d="M1040.68 281.14l-3.87-1.1.05-.14h4.18zM1251.88 338.86l-.05.14h-4.18l.35-1.24z"/><path d="M800 380.13v69.6" stroke="#000" stroke-width="2" fill="none"/><path d="M801 380.15h-2v-1.02h2zM801 450.73h-2v-1.03h2z"/><path d="M706.28 380.13V579" stroke="#000" stroke-width="2" fill="none"/><path d="M707.28 380.15h-2v-1.02h2zM707.28 580h-2v-1.03h2z"/><path d="M620 680.9" stroke="#000" stroke-width="2" fill="none"/><path d="M400 319.73h120v96.4H400z" stroke="#000" stroke-opacity="0" stroke-width="2" fill="#fff"/><g><use xlink:href="#V" transform="matrix(1,0,0,1,405,324.7250000000003) translate(1.0499999999999972 14.69999999999999)"/><use xlink:href="#W" transform="matrix(1,0,0,1,405,324.7250000000003) translate(49 14.69999999999999)"/><use xlink:href="#X" transform="matrix(1,0,0,1,405,324.7250000000003) translate(40 36.29999999999999)"/><use xlink:href="#Y" transform="matrix(1,0,0,1,405,324.7250000000003) translate(15.075000000000003 57.89999999999999)"/><use xlink:href="#Z" transform="matrix(1,0,0,1,405,324.7250000000003) translate(3.25 79.5)"/><use xlink:href="#aa" transform="matrix(1,0,0,1,405,324.7250000000003) translate(43.25 79.5)"/></g><path d="M573.14 122.24H720v57.4H573.14z" stroke="#d2d3d3" stroke-width="2" fill="#fff"/><g><use xlink:href="#ab" transform="matrix(1,0,0,1,578.1419593081658,127.2375) translate(9.199999999999996 16.799999999999997)"/><use xlink:href="#x" transform="matrix(1,0,0,1,578.1419593081658,127.2375) translate(44.199999999999996 16.799999999999997)"/><use xlink:href="#A" transform="matrix(1,0,0,1,578.1419593081658,127.2375) translate(81.1 16.799999999999997)"/><use xlink:href="#B" transform="matrix(1,0,0,1,578.1419593081658,127.2375) translate(106.1 16.799999999999997)"/><use xlink:href="#ac" transform="matrix(1,0,0,1,578.1419593081658,127.2375) translate(18.875 38.4)"/><use xlink:href="#ad" transform="matrix(1,0,0,1,578.1419593081658,127.2375) translate(90.825 38.4)"/></g><path d="M705.98 217.62l-1.08 1.68-22-14.13v-2.38zm-36.03-23.15v2.38l-23.08-14.83 1.08-1.68z"/><path d="M646.9 182.03l-2.18-1.4h3.07zM708.13 219h-3.07l.9-1.4z"/><g><use xlink:href="#i" transform="matrix(1,0,0,1,669.9524491352072,189.01874999999998) translate(0.004999999999999893 14.4)"/></g><path d="M645.77 181.24L460.8 319.14" stroke="#000" stroke-width="2" fill="none"/><path d="M646.35 182.05l-1.06-1.4h2.94zM461.28 319.73h-2.95l1.9-1.42z"/><path d="M879.36 110h120v40h-120z" stroke="#d2d3d3" stroke-width="2" fill="#fff"/><g><use xlink:href="#k" transform="matrix(1,0,0,1,884.3580406918345,115) translate(5.375 18.6)"/><use xlink:href="#ad" transform="matrix(1,0,0,1,884.3580406918345,115) translate(77.325 18.6)"/></g><path d="M938.77 107.7l-.7 1.9-74.72-27.74v-2.13zM850.4 74.93v2.14L810.6 62.3l.7-1.9z"/><path d="M810.6 62.3l-3.47-1.3h3.96zM942.23 109h-3.97l.48-1.3z"/><g><use xlink:href="#i" transform="matrix(1,0,0,1,850.3976572665478,67.59271510886693) translate(0.004999999999999893 14.4)"/></g><path d="M908.68 182.87L891.4 200l-1.4-1.4 18.68-18.55zm30.67-30.46l-18.67 18.55v-2.82L937.94 151z"/><path d="M939.33 152.43l-1.4-1.42h2.85zM891.43 200h-2.85l1.44-1.43z"/><g><use xlink:href="#f" transform="matrix(1,0,0,1,908.6790203459173,164.7) translate(0.004999999999999893 14.4)"/></g><path d="M830 200h120v73.2H830z" stroke="#000" stroke-opacity="0" stroke-width="2" fill="#fff"/><g><use xlink:href="#a" transform="matrix(1,0,0,1,835,205) translate(33.525 14.4)"/><use xlink:href="#Y" transform="matrix(1,0,0,1,835,205) translate(15.075000000000003 36)"/><use xlink:href="#Z" transform="matrix(1,0,0,1,835,205) translate(12.75 57.6)"/><use xlink:href="#ae" transform="matrix(1,0,0,1,835,205) translate(52.75 57.6)"/></g><defs><path d="M115-194c55 1 70 41 70 98S169 2 115 4C84 4 66-9 55-30l1 105H24l-1-265h31l2 30c10-21 28-34 59-34zm-8 174c40 0 45-34 45-75s-6-73-45-74c-42 0-51 32-51 76 0 43 10 73 51 73" id="af"/><path d="M141-36C126-15 110 5 73 4 37 3 15-17 15-53c-1-64 63-63 125-63 3-35-9-54-41-54-24 1-41 7-42 31l-33-3c5-37 33-52 76-52 45 0 72 20 72 64v82c-1 20 7 32 28 27v20c-31 9-61-2-59-35zM48-53c0 20 12 33 32 33 41-3 63-29 60-74-43 2-92-5-92 41" id="ag"/><path d="M206 0h-36l-40-164L89 0H53L-1-190h32L70-26l43-164h34l41 164 42-164h31" id="ah"/><path d="M117-194c89-4 53 116 60 194h-32v-121c0-31-8-49-39-48C34-167 62-67 57 0H25l-1-190h30c1 10-1 24 2 32 11-22 29-35 61-36" id="ai"/><g id="a"><use transform="matrix(0.05,0,0,0.05,0,0)" xlink:href="#af"/><use transform="matrix(0.05,0,0,0.05,10,0)" xlink:href="#ag"/><use transform="matrix(0.05,0,0,0.05,20,0)" xlink:href="#ah"/><use transform="matrix(0.05,0,0,0.05,32.95,0)" xlink:href="#ai"/></g><path d="M210-169c-67 3-38 105-44 169h-31v-121c0-29-5-50-35-48C34-165 62-65 56 0H25l-1-190h30c1 10-1 24 2 32 10-44 99-50 107 0 11-21 27-35 58-36 85-2 47 119 55 194h-31v-121c0-29-5-49-35-48" id="aj"/><path d="M100-194c62-1 85 37 85 99 1 63-27 99-86 99S16-35 15-95c0-66 28-99 85-99zM99-20c44 1 53-31 53-75 0-43-8-75-51-75s-53 32-53 75 10 74 51 75" id="ak"/><path d="M108 0H70L1-190h34L89-25l56-165h34" id="al"/><path d="M100-194c63 0 86 42 84 106H49c0 40 14 67 53 68 26 1 43-12 49-29l28 8c-11 28-37 45-77 45C44 4 14-33 15-96c1-61 26-98 85-98zm52 81c6-60-76-77-97-28-3 7-6 17-6 28h103" id="am"/><g id="b"><use transform="matrix(0.05,0,0,0.05,0,0)" xlink:href="#aj"/><use transform="matrix(0.05,0,0,0.05,14.950000000000001,0)" xlink:href="#ak"/><use transform="matrix(0.05,0,0,0.05,24.950000000000003,0)" xlink:href="#al"/><use transform="matrix(0.05,0,0,0.05,33.95,0)" xlink:href="#am"/></g><path d="M135-143c-3-34-86-38-87 0 15 53 115 12 119 90S17 21 10-45l28-5c4 36 97 45 98 0-10-56-113-15-118-90-4-57 82-63 122-42 12 7 21 19 24 35" id="an"/><path d="M59-47c-2 24 18 29 38 22v24C64 9 27 4 27-40v-127H5v-23h24l9-43h21v43h35v23H59v120" id="ao"/><path d="M114-163C36-179 61-72 57 0H25l-1-190h30c1 12-1 29 2 39 6-27 23-49 58-41v29" id="ap"/><g id="c"><use transform="matrix(0.05,0,0,0.05,0,0)" xlink:href="#an"/><use transform="matrix(0.05,0,0,0.05,9,0)" xlink:href="#ao"/><use transform="matrix(0.05,0,0,0.05,14,0)" xlink:href="#ag"/><use transform="matrix(0.05,0,0,0.05,24,0)" xlink:href="#ap"/><use transform="matrix(0.05,0,0,0.05,29.950000000000003,0)" xlink:href="#ao"/><use transform="matrix(0.05,0,0,0.05,34.95,0)" xlink:href="#an"/></g><path d="M24-231v-30h32v30H24zM24 0v-190h32V0H24" id="aq"/><path d="M106-169C34-169 62-67 57 0H25v-261h32l-1 103c12-21 28-36 61-36 89 0 53 116 60 194h-32v-121c2-32-8-49-39-48" id="ar"/><g id="d"><use transform="matrix(0.05,0,0,0.05,0,0)" xlink:href="#ah"/><use transform="matrix(0.05,0,0,0.05,12.950000000000001,0)" xlink:href="#aq"/><use transform="matrix(0.05,0,0,0.05,16.900000000000002,0)" xlink:href="#ao"/><use transform="matrix(0.05,0,0,0.05,21.900000000000002,0)" xlink:href="#ar"/></g><path d="M109-170H84l-4-78h32zm-65 0H19l-4-78h33" id="as"/><path d="M140-251c81 0 123 46 123 126C263-46 219 4 140 4 59 4 17-45 17-125s42-126 123-126zm0 227c63 0 89-41 89-101s-29-99-89-99c-61 0-89 39-89 99S79-25 140-24" id="at"/><path d="M103-251c84 0 111 97 45 133-19 10-37 24-39 52H78c0-63 77-55 77-114 0-30-21-42-52-43-32 0-53 17-56 46l-32-2c7-45 34-72 88-72zM77 0v-35h34V0H77" id="au"/><g id="e"><use transform="matrix(0.05,0,0,0.05,0,0)" xlink:href="#as"/><use transform="matrix(0.05,0,0,0.05,6.3500000000000005,0)" xlink:href="#at"/><use transform="matrix(0.05,0,0,0.05,20.35,0)" xlink:href="#as"/><use transform="matrix(0.05,0,0,0.05,26.700000000000003,0)" xlink:href="#au"/></g><path d="M137-103V0h-34v-103L8-248h37l75 118 75-118h37" id="av"/><use transform="matrix(0.05,0,0,0.05,0,0)" xlink:href="#av" id="f"/><path d="M143 0L79-87 56-68V0H24v-261h32v163l83-92h37l-77 82L181 0h-38" id="aw"/><path d="M177-190C167-65 218 103 67 71c-23-6-38-20-44-43l32-5c15 47 100 32 89-28v-30C133-14 115 1 83 1 29 1 15-40 15-95c0-56 16-97 71-98 29-1 48 16 59 35 1-10 0-23 2-32h30zM94-22c36 0 50-32 50-73 0-42-14-75-50-75-39 0-46 34-46 75s6 73 46 73" id="ax"/><path d="M85-194c31 0 48 13 60 33l-1-100h32l1 261h-30c-2-10 0-23-3-31C134-8 116 4 85 4 32 4 16-35 15-94c0-66 23-100 70-100zm9 24c-40 0-46 34-46 75 0 40 6 74 45 74 42 0 51-32 51-76 0-42-9-74-50-73" id="ay"/><g id="g"><use transform="matrix(0.05,0,0,0.05,0,0)" xlink:href="#aw"/><use transform="matrix(0.05,0,0,0.05,9,0)" xlink:href="#aq"/><use transform="matrix(0.05,0,0,0.05,12.949999999999998,0)" xlink:href="#ai"/><use transform="matrix(0.05,0,0,0.05,22.95,0)" xlink:href="#ax"/><use transform="matrix(0.05,0,0,0.05,32.95,0)" xlink:href="#an"/><use transform="matrix(0.05,0,0,0.05,41.95,0)" xlink:href="#aq"/><use transform="matrix(0.05,0,0,0.05,45.900000000000006,0)" xlink:href="#ay"/><use transform="matrix(0.05,0,0,0.05,55.900000000000006,0)" xlink:href="#am"/></g><path d="M96-169c-40 0-48 33-48 73s9 75 48 75c24 0 41-14 43-38l32 2c-6 37-31 61-74 61-59 0-76-41-82-99-10-93 101-131 147-64 4 7 5 14 7 22l-32 3c-4-21-16-35-41-35" id="az"/><path d="M24 0v-261h32V0H24" id="aA"/><g id="h"><use transform="matrix(0.05,0,0,0.05,0,0)" xlink:href="#az"/><use transform="matrix(0.05,0,0,0.05,9,0)" xlink:href="#ag"/><use transform="matrix(0.05,0,0,0.05,19,0)" xlink:href="#an"/><use transform="matrix(0.05,0,0,0.05,28,0)" xlink:href="#ao"/><use transform="matrix(0.05,0,0,0.05,33,0)" xlink:href="#aA"/><use transform="matrix(0.05,0,0,0.05,36.95,0)" xlink:href="#am"/></g><path d="M190 0L58-211 59 0H30v-248h39L202-35l-2-213h31V0h-41" id="aB"/><use transform="matrix(0.05,0,0,0.05,0,0)" xlink:href="#aB" id="i"/><path d="M16-82v-28h88v28H16" id="aC"/><g id="j"><use transform="matrix(0.05,0,0,0.05,0,0)" xlink:href="#ai"/><use transform="matrix(0.05,0,0,0.05,10,0)" xlink:href="#ak"/><use transform="matrix(0.05,0,0,0.05,20,0)" xlink:href="#ai"/><use transform="matrix(0.05,0,0,0.05,30,0)" xlink:href="#aC"/><use transform="matrix(0.05,0,0,0.05,35.95,0)" xlink:href="#af"/><use transform="matrix(0.05,0,0,0.05,45.95,0)" xlink:href="#ah"/><use transform="matrix(0.05,0,0,0.05,58.900000000000006,0)" xlink:href="#ai"/></g><g id="k"><use transform="matrix(0.05,0,0,0.05,0,0)" xlink:href="#az"/><use transform="matrix(0.05,0,0,0.05,9,0)" xlink:href="#ak"/><use transform="matrix(0.05,0,0,0.05,19,0)" xlink:href="#ai"/><use transform="matrix(0.05,0,0,0.05,29,0)" xlink:href="#ao"/><use transform="matrix(0.05,0,0,0.05,34,0)" xlink:href="#ag"/><use transform="matrix(0.05,0,0,0.05,44,0)" xlink:href="#aq"/><use transform="matrix(0.05,0,0,0.05,47.95,0)" xlink:href="#ai"/><use transform="matrix(0.05,0,0,0.05,57.95,0)" xlink:href="#an"/></g><path d="M47-170H22l-4-78h33" id="aD"/><path d="M141 0L90-78 38 0H4l68-98-65-92h35l48 74 47-74h35l-64 92 68 98h-35" id="aE"/><g id="l"><use transform="matrix(0.05,0,0,0.05,0,0)" xlink:href="#aD"/><use transform="matrix(0.05,0,0,0.05,3.4000000000000004,0)" xlink:href="#aE"/><use transform="matrix(0.05,0,0,0.05,12.4,0)" xlink:href="#aD"/><use transform="matrix(0.05,0,0,0.05,15.8,0)" xlink:href="#au"/></g><path d="M0 4l72-265h28L28 4H0" id="aF"/><g id="m"><use transform="matrix(0.05,0,0,0.05,0,0)" xlink:href="#ah"/><use transform="matrix(0.05,0,0,0.05,12.950000000000001,0)" xlink:href="#aF"/></g><path d="M39-94c74 12-11 154 75 146v23c-44 4-70-10-70-52C44-23 55-84 6-82v-22c81 4-7-162 84-157h24v23c-82-15-2 131-75 144" id="aG"/><path d="M115-194c53 0 69 39 70 98 0 66-23 100-70 100C84 3 66-7 56-30L54 0H23l1-261h32v101c10-23 28-34 59-34zm-8 174c40 0 45-34 45-75 0-40-5-75-45-74-42 0-51 32-51 76 0 43 10 73 51 73" id="aH"/><path d="M101-234c-31-9-42 10-38 44h38v23H63V0H32v-167H5v-23h27c-7-52 17-82 69-68v24" id="aI"/><path d="M76-40C78 24 84 88 6 75V52C86 64 9-79 80-94c-40-6-34-59-34-106 1-29-11-41-40-38v-23c44-4 70 10 70 52 0 47-12 108 38 105v22c-26 1-39 14-38 42" id="aJ"/><g id="n"><use transform="matrix(0.05,0,0,0.05,0,0)" xlink:href="#aG"/><use transform="matrix(0.05,0,0,0.05,6,0)" xlink:href="#ag"/><use transform="matrix(0.05,0,0,0.05,16,0)" xlink:href="#aH"/><use transform="matrix(0.05,0,0,0.05,26,0)" xlink:href="#az"/><use transform="matrix(0.05,0,0,0.05,35,0)" xlink:href="#ay"/><use transform="matrix(0.05,0,0,0.05,45,0)" xlink:href="#am"/><use transform="matrix(0.05,0,0,0.05,55,0)" xlink:href="#aI"/><use transform="matrix(0.05,0,0,0.05,60,0)" xlink:href="#ax"/><use transform="matrix(0.05,0,0,0.05,70,0)" xlink:href="#ar"/><use transform="matrix(0.05,0,0,0.05,80,0)" xlink:href="#aJ"/><use transform="matrix(0.05,0,0,0.05,86,0)" xlink:href="#au"/></g><path d="M84 4C-5 8 30-112 23-190h32v120c0 31 7 50 39 49 72-2 45-101 50-169h31l1 190h-30c-1-10 1-25-2-33-11 22-28 36-60 37" id="aK"/><g id="o"><use transform="matrix(0.05,0,0,0.05,0,0)" xlink:href="#az"/><use transform="matrix(0.05,0,0,0.05,9,0)" xlink:href="#ag"/><use transform="matrix(0.05,0,0,0.05,19,0)" xlink:href="#af"/><use transform="matrix(0.05,0,0,0.05,29,0)" xlink:href="#ao"/><use transform="matrix(0.05,0,0,0.05,34,0)" xlink:href="#aK"/><use transform="matrix(0.05,0,0,0.05,44,0)" xlink:href="#ap"/><use transform="matrix(0.05,0,0,0.05,49.95,0)" xlink:href="#am"/></g><path d="M145-31C134-9 116 4 85 4 32 4 16-35 15-94c0-59 17-99 70-100 32-1 48 14 60 33 0-11-1-24 2-32h30l-1 268h-32zM93-21c41 0 51-33 51-76s-8-73-50-73c-40 0-46 35-46 75s5 74 45 74" id="aL"/><g id="p"><use transform="matrix(0.05,0,0,0.05,0,0)" xlink:href="#aL"/><use transform="matrix(0.05,0,0,0.05,10,0)" xlink:href="#aK"/><use transform="matrix(0.05,0,0,0.05,20,0)" xlink:href="#am"/><use transform="matrix(0.05,0,0,0.05,30,0)" xlink:href="#am"/><use transform="matrix(0.05,0,0,0.05,40,0)" xlink:href="#ai"/><use transform="matrix(0.05,0,0,0.05,50,0)" xlink:href="#an"/><use transform="matrix(0.05,0,0,0.05,59,0)" xlink:href="#aq"/><use transform="matrix(0.05,0,0,0.05,62.95,0)" xlink:href="#ay"/><use transform="matrix(0.05,0,0,0.05,72.95,0)" xlink:href="#am"/></g><g id="q"><use transform="matrix(0.05,0,0,0.05,0,0)" xlink:href="#ai"/><use transform="matrix(0.05,0,0,0.05,10,0)" xlink:href="#ak"/><use transform="matrix(0.05,0,0,0.05,20,0)" xlink:href="#ai"/><use transform="matrix(0.05,0,0,0.05,30,0)" xlink:href="#aC"/><use transform="matrix(0.05,0,0,0.05,35.95,0)" xlink:href="#af"/><use transform="matrix(0.05,0,0,0.05,45.95,0)" xlink:href="#ah"/><use transform="matrix(0.05,0,0,0.05,58.900000000000006,0)" xlink:href="#ai"/></g><g id="r"><use transform="matrix(0.05,0,0,0.05,0,0)" xlink:href="#ap"/><use transform="matrix(0.05,0,0,0.05,5.95,0)" xlink:href="#ag"/><use transform="matrix(0.05,0,0,0.05,15.949999999999998,0)" xlink:href="#ai"/><use transform="matrix(0.05,0,0,0.05,25.950000000000003,0)" xlink:href="#aw"/><use transform="matrix(0.05,0,0,0.05,34.95,0)" xlink:href="#aF"/><use transform="matrix(0.05,0,0,0.05,39.95,0)" xlink:href="#aI"/><use transform="matrix(0.05,0,0,0.05,44.95,0)" xlink:href="#aq"/><use transform="matrix(0.05,0,0,0.05,48.900000000000006,0)" xlink:href="#aA"/><use transform="matrix(0.05,0,0,0.05,52.85,0)" xlink:href="#am"/></g><g id="s"><use transform="matrix(0.05,0,0,0.05,0,0)" xlink:href="#ay"/><use transform="matrix(0.05,0,0,0.05,10,0)" xlink:href="#aq"/><use transform="matrix(0.05,0,0,0.05,13.949999999999998,0)" xlink:href="#an"/><use transform="matrix(0.05,0,0,0.05,22.95,0)" xlink:href="#ag"/><use transform="matrix(0.05,0,0,0.05,32.95,0)" xlink:href="#aj"/><use transform="matrix(0.05,0,0,0.05,47.900000000000006,0)" xlink:href="#aH"/><use transform="matrix(0.05,0,0,0.05,57.900000000000006,0)" xlink:href="#aq"/><use transform="matrix(0.05,0,0,0.05,61.85,0)" xlink:href="#ax"/><use transform="matrix(0.05,0,0,0.05,71.85000000000001,0)" xlink:href="#aK"/><use transform="matrix(0.05,0,0,0.05,81.85000000000001,0)" xlink:href="#ag"/><use transform="matrix(0.05,0,0,0.05,91.85000000000001,0)" xlink:href="#ao"/><use transform="matrix(0.05,0,0,0.05,96.85000000000001,0)" xlink:href="#aq"/><use transform="matrix(0.05,0,0,0.05,100.80000000000001,0)" xlink:href="#ak"/><use transform="matrix(0.05,0,0,0.05,110.80000000000001,0)" xlink:href="#ai"/></g><g id="t"><use transform="matrix(0.05,0,0,0.05,0,0)" xlink:href="#aj"/><use transform="matrix(0.05,0,0,0.05,14.950000000000001,0)" xlink:href="#ak"/><use transform="matrix(0.05,0,0,0.05,24.950000000000003,0)" xlink:href="#al"/><use transform="matrix(0.05,0,0,0.05,33.95,0)" xlink:href="#am"/></g><path d="M33 0v-38h34V0H33" id="aM"/><g id="u"><use transform="matrix(0.05,0,0,0.05,0,0)" xlink:href="#am"/><use transform="matrix(0.05,0,0,0.05,10,0)" xlink:href="#aM"/><use transform="matrix(0.05,0,0,0.05,15,0)" xlink:href="#ax"/><use transform="matrix(0.05,0,0,0.05,25,0)" xlink:href="#aM"/></g><path d="M140-251c81 0 123 46 123 126C263-53 228-8 163 1c7 30 30 48 69 40v23c-55 16-95-15-103-61C56-3 17-48 17-125c0-80 42-126 123-126zm0 227c63 0 89-41 89-101s-29-99-89-99c-61 0-89 39-89 99S79-25 140-24" id="aN"/><path d="M155-56V0h-30v-56H8v-25l114-167h33v167h35v25h-35zm-30-156c-27 46-58 90-88 131h88v-131" id="aO"/><path d="M54-142c48-35 137-8 131 61C196 18 31 33 14-55l32-4c7 23 22 37 52 37 35-1 51-22 54-58 4-55-73-65-99-34H22l8-134h141v27H59" id="aP"/><g id="v"><use transform="matrix(0.05,0,0,0.05,0,0)" xlink:href="#aN"/><use transform="matrix(0.05,0,0,0.05,14,0)" xlink:href="#am"/><use transform="matrix(0.05,0,0,0.05,24,0)" xlink:href="#aO"/><use transform="matrix(0.05,0,0,0.05,34,0)" xlink:href="#ay"/><use transform="matrix(0.05,0,0,0.05,44,0)" xlink:href="#aP"/></g><path d="M27 0v-27h64v-190l-56 39v-29l58-41h29v221h61V0H27" id="aQ"/><g id="w"><use transform="matrix(0.05,0,0,0.05,0,0)" xlink:href="#aQ"/><use transform="matrix(0.05,0,0,0.05,10,0)" xlink:href="#an"/><use transform="matrix(0.05,0,0,0.05,19,0)" xlink:href="#ao"/></g><g id="x"><use transform="matrix(0.05,0,0,0.05,0,0)" xlink:href="#an"/><use transform="matrix(0.05,0,0,0.05,9,0)" xlink:href="#af"/><use transform="matrix(0.05,0,0,0.05,19,0)" xlink:href="#aA"/><use transform="matrix(0.05,0,0,0.05,22.95,0)" xlink:href="#aq"/><use transform="matrix(0.05,0,0,0.05,26.899999999999995,0)" xlink:href="#ao"/></g><g id="y"><use transform="matrix(0.05,0,0,0.05,0,0)" xlink:href="#aA"/><use transform="matrix(0.05,0,0,0.05,3.95,0)" xlink:href="#am"/><use transform="matrix(0.05,0,0,0.05,13.949999999999998,0)" xlink:href="#ai"/><use transform="matrix(0.05,0,0,0.05,23.95,0)" xlink:href="#ax"/><use transform="matrix(0.05,0,0,0.05,33.95,0)" xlink:href="#ao"/><use transform="matrix(0.05,0,0,0.05,38.95,0)" xlink:href="#ar"/></g><g id="z"><use transform="matrix(0.05,0,0,0.05,0,0)" xlink:href="#ag"/><use transform="matrix(0.05,0,0,0.05,10,0)" xlink:href="#aI"/><use transform="matrix(0.05,0,0,0.05,15,0)" xlink:href="#ao"/><use transform="matrix(0.05,0,0,0.05,20,0)" xlink:href="#am"/><use transform="matrix(0.05,0,0,0.05,30,0)" xlink:href="#ap"/></g><g id="A"><use transform="matrix(0.05,0,0,0.05,0,0)" xlink:href="#ak"/><use transform="matrix(0.05,0,0,0.05,10,0)" xlink:href="#ai"/></g><g id="B"><use transform="matrix(0.05,0,0,0.05,0,0)" xlink:href="#as"/><use transform="matrix(0.05,0,0,0.05,6.3500000000000005,0)" xlink:href="#aE"/><use transform="matrix(0.05,0,0,0.05,15.350000000000001,0)" xlink:href="#as"/></g><g id="C"><use transform="matrix(0.05,0,0,0.05,0,0)" xlink:href="#aQ"/><use transform="matrix(0.05,0,0,0.05,10,0)" xlink:href="#au"/></g><path d="M101-251c82-7 93 87 43 132L82-64C71-53 59-42 53-27h129V0H18c2-99 128-94 128-182 0-28-16-43-45-43s-46 15-49 41l-32-3c6-41 34-60 81-64" id="aR"/><g id="D"><use transform="matrix(0.05,0,0,0.05,0,0)" xlink:href="#aR"/><use transform="matrix(0.05,0,0,0.05,10,0)" xlink:href="#au"/></g><g id="E"><use transform="matrix(0.05,0,0,0.05,0,0)" xlink:href="#aI"/><use transform="matrix(0.05,0,0,0.05,5,0)" xlink:href="#aq"/><use transform="matrix(0.05,0,0,0.05,8.95,0)" xlink:href="#aA"/><use transform="matrix(0.05,0,0,0.05,12.899999999999999,0)" xlink:href="#am"/></g><g id="F"><use transform="matrix(0.05,0,0,0.05,0,0)" xlink:href="#az"/><use transform="matrix(0.05,0,0,0.05,9,0)" xlink:href="#ag"/><use transform="matrix(0.05,0,0,0.05,19,0)" xlink:href="#af"/><use transform="matrix(0.05,0,0,0.05,29,0)" xlink:href="#ao"/><use transform="matrix(0.05,0,0,0.05,34,0)" xlink:href="#aK"/><use transform="matrix(0.05,0,0,0.05,44,0)" xlink:href="#ap"/><use transform="matrix(0.05,0,0,0.05,49.95,0)" xlink:href="#am"/></g><g id="G"><use transform="matrix(0.05,0,0,0.05,0,0)" xlink:href="#am"/><use transform="matrix(0.05,0,0,0.05,10,0)" xlink:href="#aM"/><use transform="matrix(0.05,0,0,0.05,15,0)" xlink:href="#ax"/><use transform="matrix(0.05,0,0,0.05,25,0)" xlink:href="#aM"/></g><path d="M233-177c-1 41-23 64-60 70L243 0h-38l-65-103H63V0H30v-248c88 3 205-21 203 71zM63-129c60-2 137 13 137-47 0-61-80-42-137-45v92" id="aS"/><g id="H"><use transform="matrix(0.05,0,0,0.05,0,0)" xlink:href="#aS"/><use transform="matrix(0.05,0,0,0.05,12.950000000000001,0)" xlink:href="#aH"/><use transform="matrix(0.05,0,0,0.05,22.950000000000003,0)" xlink:href="#aE"/><use transform="matrix(0.05,0,0,0.05,31.950000000000003,0)" xlink:href="#ay"/><use transform="matrix(0.05,0,0,0.05,41.95,0)" xlink:href="#aP"/></g><path d="M126-127c33 6 58 20 58 59 0 88-139 92-164 29-3-8-5-16-6-25l32-3c6 27 21 44 54 44 32 0 52-15 52-46 0-38-36-46-79-43v-28c39 1 72-4 72-42 0-27-17-43-46-43-28 0-47 15-49 41l-32-3c6-42 35-63 81-64 48-1 79 21 79 65 0 36-21 52-52 59" id="aT"/><g id="I"><use transform="matrix(0.05,0,0,0.05,0,0)" xlink:href="#aT"/><use transform="matrix(0.05,0,0,0.05,10,0)" xlink:href="#au"/></g><g id="J"><use transform="matrix(0.05,0,0,0.05,0,0)" xlink:href="#aI"/><use transform="matrix(0.05,0,0,0.05,5,0)" xlink:href="#aq"/><use transform="matrix(0.05,0,0,0.05,8.95,0)" xlink:href="#aA"/><use transform="matrix(0.05,0,0,0.05,12.899999999999999,0)" xlink:href="#am"/></g><path d="M234-2c-28 10-62 0-77-18C117 19 8 12 13-65c3-43 29-61 60-76-25-40-17-114 47-108 35 3 59 15 59 50 0 44-40 53-71 69 14 26 32 50 51 72 14-21 24-43 30-72l26 8c-9 33-21 57-38 82 13 13 33 22 57 15v23zM97-151c25-10 52-18 56-48-1-18-13-29-33-29-42 0-39 50-23 77zM42-66c-3 51 71 58 98 28-20-24-41-51-56-80-23 10-40 24-42 52" id="aU"/><use transform="matrix(0.05,0,0,0.05,0,0)" xlink:href="#aU" id="K"/><g id="L"><use transform="matrix(0.05,0,0,0.05,0,0)" xlink:href="#ap"/><use transform="matrix(0.05,0,0,0.05,5.95,0)" xlink:href="#ag"/><use transform="matrix(0.05,0,0,0.05,15.949999999999998,0)" xlink:href="#ai"/><use transform="matrix(0.05,0,0,0.05,25.950000000000003,0)" xlink:href="#aw"/></g><g id="M"><use transform="matrix(0.05,0,0,0.05,0,0)" xlink:href="#aS"/><use transform="matrix(0.05,0,0,0.05,12.950000000000001,0)" xlink:href="#aH"/><use transform="matrix(0.05,0,0,0.05,22.950000000000003,0)" xlink:href="#aR"/><use transform="matrix(0.05,0,0,0.05,32.95,0)" xlink:href="#aE"/><use transform="matrix(0.05,0,0,0.05,41.95,0)" xlink:href="#ay"/><use transform="matrix(0.05,0,0,0.05,51.95,0)" xlink:href="#aR"/></g><g id="N"><use transform="matrix(0.05,0,0,0.05,0,0)" xlink:href="#ay"/><use transform="matrix(0.05,0,0,0.05,10,0)" xlink:href="#aq"/><use transform="matrix(0.05,0,0,0.05,13.949999999999998,0)" xlink:href="#an"/><use transform="matrix(0.05,0,0,0.05,22.95,0)" xlink:href="#ag"/><use transform="matrix(0.05,0,0,0.05,32.95,0)" xlink:href="#aj"/><use transform="matrix(0.05,0,0,0.05,47.900000000000006,0)" xlink:href="#aH"/><use transform="matrix(0.05,0,0,0.05,57.900000000000006,0)" xlink:href="#aq"/><use transform="matrix(0.05,0,0,0.05,61.85,0)" xlink:href="#ax"/><use transform="matrix(0.05,0,0,0.05,71.85000000000001,0)" xlink:href="#aK"/><use transform="matrix(0.05,0,0,0.05,81.85000000000001,0)" xlink:href="#ag"/><use transform="matrix(0.05,0,0,0.05,91.85000000000001,0)" xlink:href="#ao"/><use transform="matrix(0.05,0,0,0.05,96.85000000000001,0)" xlink:href="#aq"/><use transform="matrix(0.05,0,0,0.05,100.80000000000001,0)" xlink:href="#ak"/><use transform="matrix(0.05,0,0,0.05,110.80000000000001,0)" xlink:href="#ai"/></g><g id="O"><use transform="matrix(0.05,0,0,0.05,0,0)" xlink:href="#aj"/><use transform="matrix(0.05,0,0,0.05,14.950000000000001,0)" xlink:href="#ak"/><use transform="matrix(0.05,0,0,0.05,24.950000000000003,0)" xlink:href="#al"/><use transform="matrix(0.05,0,0,0.05,33.95,0)" xlink:href="#am"/></g><g id="P"><use transform="matrix(0.05,0,0,0.05,0,0)" xlink:href="#am"/><use transform="matrix(0.05,0,0,0.05,10,0)" xlink:href="#aM"/><use transform="matrix(0.05,0,0,0.05,15,0)" xlink:href="#ax"/><use transform="matrix(0.05,0,0,0.05,25,0)" xlink:href="#aM"/></g><g id="Q"><use transform="matrix(0.05,0,0,0.05,0,0)" xlink:href="#aS"/><use transform="matrix(0.05,0,0,0.05,12.950000000000001,0)" xlink:href="#aH"/><use transform="matrix(0.05,0,0,0.05,22.950000000000003,0)" xlink:href="#ay"/><use transform="matrix(0.05,0,0,0.05,32.95,0)" xlink:href="#aP"/></g><g id="R"><use transform="matrix(0.05,0,0,0.05,0,0)" xlink:href="#aO"/><use transform="matrix(0.05,0,0,0.05,10,0)" xlink:href="#au"/></g><g id="S"><use transform="matrix(0.05,0,0,0.05,0,0)" xlink:href="#aP"/><use transform="matrix(0.05,0,0,0.05,10,0)" xlink:href="#au"/></g><g id="T"><use transform="matrix(0.05,0,0,0.05,0,0)" xlink:href="#an"/><use transform="matrix(0.05,0,0,0.05,9,0)" xlink:href="#ao"/><use transform="matrix(0.05,0,0,0.05,14,0)" xlink:href="#ap"/><use transform="matrix(0.05,0,0,0.05,19.95,0)" xlink:href="#aq"/><use transform="matrix(0.05,0,0,0.05,23.9,0)" xlink:href="#ai"/><use transform="matrix(0.05,0,0,0.05,33.9,0)" xlink:href="#ax"/></g><g id="U"><use transform="matrix(0.05,0,0,0.05,0,0)" xlink:href="#aA"/><use transform="matrix(0.05,0,0,0.05,3.95,0)" xlink:href="#am"/><use transform="matrix(0.05,0,0,0.05,13.949999999999998,0)" xlink:href="#ai"/><use transform="matrix(0.05,0,0,0.05,23.95,0)" xlink:href="#ax"/><use transform="matrix(0.05,0,0,0.05,33.95,0)" xlink:href="#ao"/><use transform="matrix(0.05,0,0,0.05,38.95,0)" xlink:href="#ar"/></g><g id="V"><use transform="matrix(0.05,0,0,0.05,0,0)" xlink:href="#af"/><use transform="matrix(0.05,0,0,0.05,10,0)" xlink:href="#ag"/><use transform="matrix(0.05,0,0,0.05,20,0)" xlink:href="#ah"/><use transform="matrix(0.05,0,0,0.05,32.95,0)" xlink:href="#ai"/></g><g id="W"><use transform="matrix(0.05,0,0,0.05,0,0)" xlink:href="#az"/><use transform="matrix(0.05,0,0,0.05,9,0)" xlink:href="#ag"/><use transform="matrix(0.05,0,0,0.05,19,0)" xlink:href="#af"/><use transform="matrix(0.05,0,0,0.05,29,0)" xlink:href="#ao"/><use transform="matrix(0.05,0,0,0.05,34,0)" xlink:href="#aK"/><use transform="matrix(0.05,0,0,0.05,44,0)" xlink:href="#ap"/><use transform="matrix(0.05,0,0,0.05,49.95,0)" xlink:href="#am"/></g><g id="X"><use transform="matrix(0.05,0,0,0.05,0,0)" xlink:href="#ag"/><use transform="matrix(0.05,0,0,0.05,10,0)" xlink:href="#ai"/><use transform="matrix(0.05,0,0,0.05,20,0)" xlink:href="#ay"/></g><g id="Y"><use transform="matrix(0.05,0,0,0.05,0,0)" xlink:href="#af"/><use transform="matrix(0.05,0,0,0.05,10,0)" xlink:href="#ap"/><use transform="matrix(0.05,0,0,0.05,15.949999999999998,0)" xlink:href="#ak"/><use transform="matrix(0.05,0,0,0.05,25.950000000000003,0)" xlink:href="#aj"/><use transform="matrix(0.05,0,0,0.05,40.9,0)" xlink:href="#ak"/><use transform="matrix(0.05,0,0,0.05,50.9,0)" xlink:href="#ao"/><use transform="matrix(0.05,0,0,0.05,55.900000000000006,0)" xlink:href="#aq"/><use transform="matrix(0.05,0,0,0.05,59.85,0)" xlink:href="#ak"/><use transform="matrix(0.05,0,0,0.05,69.85,0)" xlink:href="#ai"/></g><path d="M68-38c1 34 0 65-14 84H32c9-13 17-26 17-46H33v-38h35" id="aV"/><g id="Z"><use transform="matrix(0.05,0,0,0.05,0,0)" xlink:href="#am"/><use transform="matrix(0.05,0,0,0.05,10,0)" xlink:href="#aM"/><use transform="matrix(0.05,0,0,0.05,15,0)" xlink:href="#ax"/><use transform="matrix(0.05,0,0,0.05,25,0)" xlink:href="#aM"/><use transform="matrix(0.05,0,0,0.05,30,0)" xlink:href="#aV"/></g><path d="M110-160c48 1 74 30 74 79 0 53-28 85-80 85-65 0-83-55-86-122-5-90 50-162 133-122 14 7 22 21 27 39l-31 6c-5-40-67-38-82-6-9 19-15 44-15 74 11-20 30-34 60-33zm-7 138c34 0 49-23 49-58s-16-56-50-56c-29 0-50 16-49 49 1 36 15 65 50 65" id="aW"/><path d="M18-150v-26h174v26H18zm0 90v-26h174v26H18" id="aX"/><g id="aa"><use transform="matrix(0.05,0,0,0.05,0,0)" xlink:href="#am"/><use transform="matrix(0.05,0,0,0.05,10,0)" xlink:href="#aE"/><use transform="matrix(0.05,0,0,0.05,19,0)" xlink:href="#ar"/><use transform="matrix(0.05,0,0,0.05,29,0)" xlink:href="#aW"/><use transform="matrix(0.05,0,0,0.05,39,0)" xlink:href="#aX"/><use transform="matrix(0.05,0,0,0.05,49.5,0)" xlink:href="#aN"/></g><g id="ab"><use transform="matrix(0.05,0,0,0.05,0,0)" xlink:href="#aR"/><use transform="matrix(0.05,0,0,0.05,10,0)" xlink:href="#ai"/><use transform="matrix(0.05,0,0,0.05,20,0)" xlink:href="#ay"/></g><g id="ac"><use transform="matrix(0.05,0,0,0.05,0,0)" xlink:href="#az"/><use transform="matrix(0.05,0,0,0.05,9,0)" xlink:href="#ak"/><use transform="matrix(0.05,0,0,0.05,19,0)" xlink:href="#ai"/><use transform="matrix(0.05,0,0,0.05,29,0)" xlink:href="#ao"/><use transform="matrix(0.05,0,0,0.05,34,0)" xlink:href="#ag"/><use transform="matrix(0.05,0,0,0.05,44,0)" xlink:href="#aq"/><use transform="matrix(0.05,0,0,0.05,47.95,0)" xlink:href="#ai"/><use transform="matrix(0.05,0,0,0.05,57.95,0)" xlink:href="#an"/></g><g id="ad"><use transform="matrix(0.05,0,0,0.05,0,0)" xlink:href="#aD"/><use transform="matrix(0.05,0,0,0.05,3.4000000000000004,0)" xlink:href="#aX"/><use transform="matrix(0.05,0,0,0.05,13.9,0)" xlink:href="#aD"/><use transform="matrix(0.05,0,0,0.05,17.3,0)" xlink:href="#au"/></g><path d="M134-131c28 9 52 24 51 62-1 50-34 73-85 73S17-19 16-69c0-36 21-54 49-61-75-25-45-126 34-121 46 3 78 18 79 63 0 33-17 51-44 57zm-34-11c31 1 46-15 46-44 0-28-17-43-47-42-29 0-46 13-45 42 1 28 16 44 46 44zm1 122c35 0 51-18 51-52 0-30-18-46-53-46-33 0-51 17-51 47 0 34 19 51 53 51" id="aY"/><g id="ae"><use transform="matrix(0.05,0,0,0.05,0,0)" xlink:href="#am"/><use transform="matrix(0.05,0,0,0.05,10,0)" xlink:href="#aY"/><use transform="matrix(0.05,0,0,0.05,20,0)" xlink:href="#aX"/><use transform="matrix(0.05,0,0,0.05,30.5,0)" xlink:href="#aN"/></g></defs></g></svg>